<svg width="137" height="71" viewBox="0 0 137 71" fill="none" xmlns="http://www.w3.org/2000/svg">
<path fill-rule="evenodd" clip-rule="evenodd" d="M106.811 14.4422C106.62 15.6143 106.461 16.625 106.38 17.1596C105.894 20.4138 103.706 28.3499 104.063 34.379C104.334 38.9789 106.084 42.4857 110.421 42.923C114.363 43.3204 117.881 40.459 120.697 35.8022C126.757 25.7799 129.84 7.51021 129.346 1.75032C129.292 1.12155 128.74 0.656251 128.112 0.710503C127.486 0.764352 127.021 1.31565 127.075 1.94442C127.547 7.47193 124.563 25.0011 118.745 34.6228C116.471 38.3833 113.833 40.9747 110.649 40.653C107.506 40.337 106.537 37.5799 106.34 34.2452C105.991 28.3776 108.161 20.6649 108.636 17.4966C108.933 15.5103 110.279 7.96672 110.239 7.29239C110.189 6.44794 109.554 6.25317 109.34 6.20492C109.175 6.1673 108.34 6.03293 107.968 7.00103C102.665 20.8018 84.974 38.3084 64.7393 47.1548C44.6826 55.9236 22.0551 56.1522 6.58601 35.3479C6.20934 34.8433 5.4941 34.7384 4.98909 35.1123C4.48449 35.4889 4.37951 36.2042 4.75619 36.7088C20.9648 58.5068 44.64 58.432 65.6519 49.2458C83.3608 41.5044 99.1258 27.2669 106.811 14.4422Z" fill="black"/>
<path fill-rule="evenodd" clip-rule="evenodd" d="M6.62101 36.9997C9.22835 37.6589 11.8035 38.3982 14.4635 38.8552C21.5502 40.074 29.1719 39.8394 36.0283 37.5887C36.628 37.3904 36.9522 36.7457 36.7571 36.1485C36.5588 35.5489 35.9141 35.2247 35.317 35.4198C28.811 37.5597 21.5743 37.7631 14.851 36.6062C11.8064 36.0816 8.87136 35.1811 5.87221 34.4641C5.72209 34.4302 4.42839 34.0787 4.13499 34.0796C3.45175 34.0777 3.16757 34.5132 3.06194 34.7316C2.9714 34.913 2.90644 35.1519 2.9407 35.4551C2.97014 35.7037 3.13689 36.1625 3.49031 36.7285C4.61677 38.5451 7.85219 42.4051 8.31616 43.095C13.6364 51.0014 17.2586 59.2502 21.2893 67.8393C21.5589 68.4085 22.2391 68.6551 22.8086 68.3883C23.3782 68.1216 23.6219 67.4418 23.3552 66.8722C19.2741 58.174 15.5943 49.8259 10.2083 41.8241C9.89097 41.3489 7.98838 38.814 6.62101 36.9997Z" fill="black"/>
</svg>
