<svg width="142" height="119" viewBox="0 0 142 119" fill="none" xmlns="http://www.w3.org/2000/svg">
<path fill-rule="evenodd" clip-rule="evenodd" d="M12.41 47.2775C12.4361 46.4677 12.4309 45.6793 12.4048 44.9393C12.3159 42.7137 10.9039 42.7214 10.7941 42.7244C10.564 42.7321 9.539 42.8271 9.29321 44.5623C9.27752 44.6658 9.24092 45.415 9.23046 45.7038C9.20954 46.3198 9.19911 46.925 9.25663 47.5326C9.20434 48.563 9.0893 49.6233 8.86966 50.6208C8.55067 52.0933 8.03295 53.4523 7.09688 54.1763C5.42346 55.4787 3.22191 55.4259 1.38115 55.7568C0.612421 55.8947 0.0267162 56.834 0.000570297 57.9678C-0.0203476 59.1024 0.523493 60.0923 1.28699 60.2983C3.58794 60.922 6.23406 63.9872 7.91793 66.4556C8.43565 67.2141 9.0161 69.0206 9.66455 70.1774C10.1875 71.1044 10.768 71.7257 11.3171 71.9724C11.5315 72.0682 12.7185 72.4176 13.2519 70.6172C13.3984 70.1116 13.9161 67.4639 13.9631 67.162C14.2455 65.4321 14.6481 63.8868 15.4378 62.5109C16.1228 61.318 16.9544 60.2761 17.9532 59.6985C18.3558 59.4656 18.7742 59.2886 19.1926 59.1063C19.339 59.0802 19.7521 59.0036 19.8985 58.9308C20.1966 58.7853 20.4162 58.557 20.5731 58.3295C20.8712 57.8989 21.0229 57.3848 21.049 56.7995C21.0699 56.4134 21.0333 55.9552 20.8451 55.4473C20.7039 55.0865 20.3849 54.5433 19.8097 54.1909C19.2083 53.8224 17.9166 53.4722 17.6865 53.3811C16.0863 52.7498 14.5174 51.7899 13.2885 50.1259C12.6767 49.2939 12.5355 48.3967 12.41 47.2775ZM11.385 53.7925C10.7679 55.6664 9.84759 57.2439 8.56638 58.2375C8.03821 58.6505 7.46297 58.9638 6.86681 59.2074C8.09573 60.4608 9.23575 61.8857 10.1404 63.2065C10.4333 63.6363 10.7523 64.332 11.0922 65.0958C11.4896 63.0564 12.0753 61.2246 13.0375 59.5484C13.6075 58.5601 14.2508 57.6568 14.9672 56.9037C13.6703 56.1514 12.4413 55.1447 11.385 53.7925Z" fill="#FF8C04"/>
<path fill-rule="evenodd" clip-rule="evenodd" d="M45.099 112.375C33.1968 112.797 21.0331 111.946 9.6539 117.907C8.8381 118.336 7.93866 117.707 7.64581 116.52C7.35296 115.325 7.78175 114.007 8.59754 113.578C20.2958 107.449 32.7889 108.208 45.0205 107.779C45.8886 107.748 46.605 108.752 46.6259 110.016C46.6469 111.287 45.9618 112.337 45.099 112.375Z" fill="#FF8C04"/>
<path fill-rule="evenodd" clip-rule="evenodd" d="M45.9829 86.9026C42.2962 81.9344 38.2748 78.2087 33.4114 76.3639C32.5747 76.046 32.0727 74.7911 32.2871 73.563C32.5067 72.3349 33.3591 71.5964 34.201 71.9143C39.5769 73.953 44.0324 78.0287 48.1061 83.5187C48.7441 84.3775 48.7859 85.8324 48.2002 86.7662C47.6145 87.7001 46.6209 87.7615 45.9829 86.9026Z" fill="#FF8C04"/>
<path fill-rule="evenodd" clip-rule="evenodd" d="M56.2536 32.0096C54.5645 23.5402 51.2438 16.9141 46.1556 12.1297C45.4287 11.4448 45.2143 10.0213 45.685 8.95411C46.1504 7.88614 47.1231 7.57587 47.85 8.26155C53.6023 13.668 57.357 21.1507 59.2658 30.7218C59.5063 31.9391 59.0304 33.2162 58.199 33.5717C57.3675 33.9272 56.4942 33.227 56.2536 32.0096Z" fill="#FF8C04"/>
<path fill-rule="evenodd" clip-rule="evenodd" d="M115.566 20.2315C116.549 21.943 117.427 23.7817 118.18 25.7353C118.62 26.8623 119.394 29.487 119.263 31.3877C119.163 32.8119 118.703 33.9703 117.783 34.6536C116.313 35.7477 115.137 35.6136 114.232 34.9524C113.364 34.3196 112.674 33.0862 112.245 31.4199C111.481 28.445 111.57 23.9479 111.957 21.239C110.911 19.6768 109.766 18.2565 108.548 16.9893C99.1766 7.25734 85.4284 10.8933 74.8493 25.4449C71.1416 30.5427 69.3792 41.2599 68.4536 52.8106C66.9946 70.9354 67.8261 91.1784 67.9412 97.1089C67.9673 98.6695 67.8522 99.595 67.8 99.7796C67.5071 100.799 66.9842 101.067 66.6233 101.167C66.1161 101.305 65.7134 101.159 65.384 100.907C64.9447 100.57 64.5786 99.9781 64.4113 99.0572C64.3276 98.5868 64.3015 97.9333 64.312 97.2354C64.3224 96.8224 64.3904 96.372 64.3328 96.0762C63.9249 93.9978 63.4334 91.9668 62.9576 89.9228C61.3574 83.0469 59.2812 76.6039 56.9855 70.1677C49.6696 49.7048 42.6098 28.0765 30.6187 12.4861C29.9703 11.6441 29.9075 10.1908 30.4827 9.2416C31.058 8.29314 32.0516 8.20656 32.7 9.04852C44.9787 25.0098 52.279 47.0854 59.7623 68.0364C61.5037 72.9043 63.1144 77.7791 64.5002 82.8301C64.3747 71.4264 64.5629 55.9731 66.2939 43.2188C67.5228 34.1235 69.578 26.3827 72.6999 22.094C84.5028 5.85996 99.9087 2.38176 110.362 13.2392C111.392 14.3071 112.37 15.4732 113.296 16.7311C118.85 2.52276 130.475 -3.11432 140.761 3.7631C141.545 4.29019 141.896 5.65462 141.535 6.80839C141.174 7.96216 140.243 8.47161 139.459 7.94452C130.391 1.88301 120.12 7.22975 115.566 20.2315ZM114.76 26.3359C115.001 26.8791 115.231 27.4338 115.451 27.9999C115.607 28.3968 115.843 29.0878 116.005 29.8263C116.057 30.083 116.099 30.4867 116.12 30.7334C115.926 30.8683 115.77 30.9388 115.628 30.8369C115.398 30.6676 115.299 30.2454 115.184 29.7987C114.928 28.8036 114.797 27.5648 114.76 26.3359Z" fill="#FF8C04"/>
</svg>
