<svg width="67" height="68" viewBox="0 0 67 68" fill="none" xmlns="http://www.w3.org/2000/svg">
<path d="M1.90751 31.3503C7.3321 19.2008 21.626 13.7704 33.8338 19.2211C46.0417 24.6718 49.2249 37.9055 43.8003 50.055C38.3757 62.2044 31.5348 71.1919 19.327 65.7413C7.11914 60.2906 -3.51708 43.4997 1.90751 31.3503Z" fill="#EC8000"/>
<path fill-rule="evenodd" clip-rule="evenodd" d="M55.638 38.1484C56.7812 38.3354 57.9161 38.5308 59.0568 38.6747C60.0227 38.7958 60.6986 37.8357 60.5661 36.5346C60.4335 35.2336 59.5419 34.0807 58.5759 33.9597C57.4682 33.8203 56.3662 33.6295 55.2555 33.4491C54.2853 33.2911 53.5847 34.2163 53.6899 35.5144C53.7957 36.8105 54.6679 37.9904 55.638 38.1484Z" fill="#EC8000"/>
<path fill-rule="evenodd" clip-rule="evenodd" d="M52.0827 25.9631C54.6717 23.0998 57.118 20.0256 59.6458 17.0744C60.33 16.2767 60.2582 14.7155 59.4871 13.5907C58.7156 12.468 57.5366 12.2032 56.8524 13.0009C54.341 15.9307 51.9147 18.9862 49.3421 21.8281C48.6431 22.6022 48.6888 24.1573 49.4451 25.2971C50.2009 26.439 51.3837 26.7372 52.0827 25.9631Z" fill="#EC8000"/>
<path fill-rule="evenodd" clip-rule="evenodd" d="M41.6243 17.1304C42.1382 13.0744 42.5623 8.96435 43.1144 4.92789C43.2898 3.63268 42.587 2.14565 41.5439 1.60871C40.5002 1.07395 39.5099 1.6909 39.3321 2.98698C38.7812 7.04262 38.353 11.1679 37.8361 15.2427C37.6717 16.5457 38.3853 18.0249 39.4308 18.5453C40.4757 19.0678 41.4598 18.4335 41.6243 17.1304Z" fill="#EC8000"/>
</svg>
