<svg width="311" height="250" viewBox="0 0 311 250" fill="none" xmlns="http://www.w3.org/2000/svg">
<g clip-path="url(#clip0_323_283)">
<path d="M155.827 212.067C134.822 212.066 114.468 204.783 98.2314 191.458C81.9949 178.133 70.881 159.591 66.7833 138.99C62.6856 118.389 65.8577 97.0053 75.7591 78.4812C85.6604 59.9571 101.678 45.4392 121.084 37.4013C140.489 29.3633 162.081 28.3026 182.181 34.3998C202.281 40.4971 219.645 53.375 231.314 70.8395C242.984 88.3039 248.236 109.274 246.178 130.177C244.119 151.08 234.876 170.623 220.024 185.475C211.613 193.932 201.608 200.637 190.589 205.201C179.569 209.766 167.754 212.099 155.827 212.067ZM155.827 31.1882C106.151 31.1882 65.7365 71.6025 65.7365 121.278C65.7365 170.954 106.151 211.368 155.827 211.368C205.502 211.368 245.917 170.954 245.917 121.278C245.917 71.6025 205.502 31.1882 155.827 31.1882Z" fill="#CCCCCC"/>
<path d="M189.537 225.682V134.218H121.463V225.682H189.537Z" fill="#2F2E41"/>
<path d="M201.232 131.425H109.768V167.731H201.232V131.425Z" fill="#3F3D56"/>
<path d="M201.232 171.92H109.768V208.227H201.232V171.92Z" fill="#3F3D56"/>
<path d="M201.232 212.416H109.768V248.722H201.232V212.416Z" fill="#3F3D56"/>
<path d="M201.232 146.819H109.768V152.404H201.232V146.819Z" fill="#FF8C04"/>
<path d="M201.232 187.314H109.768V192.9H201.232V187.314Z" fill="#FF8C04"/>
<path d="M201.232 227.81H109.768V233.395H201.232V227.81Z" fill="#FF8C04"/>
<path d="M183.428 138.756C184.585 138.756 185.523 137.818 185.523 136.661C185.523 135.504 184.585 134.567 183.428 134.567C182.271 134.567 181.333 135.504 181.333 136.661C181.333 137.818 182.271 138.756 183.428 138.756Z" fill="#FF8C04"/>
<path d="M190.759 138.756C191.916 138.756 192.854 137.818 192.854 136.661C192.854 135.504 191.916 134.567 190.759 134.567C189.602 134.567 188.664 135.504 188.664 136.661C188.664 137.818 189.602 138.756 190.759 138.756Z" fill="#FF8C04"/>
<path d="M198.09 138.756C199.247 138.756 200.185 137.818 200.185 136.661C200.185 135.504 199.247 134.567 198.09 134.567C196.933 134.567 195.995 135.504 195.995 136.661C195.995 137.818 196.933 138.756 198.09 138.756Z" fill="#FF8C04"/>
<path d="M183.428 178.553C184.585 178.553 185.523 177.615 185.523 176.459C185.523 175.302 184.585 174.364 183.428 174.364C182.271 174.364 181.333 175.302 181.333 176.459C181.333 177.615 182.271 178.553 183.428 178.553Z" fill="#FF8C04"/>
<path d="M190.759 178.553C191.916 178.553 192.854 177.615 192.854 176.459C192.854 175.302 191.916 174.364 190.759 174.364C189.602 174.364 188.664 175.302 188.664 176.459C188.664 177.615 189.602 178.553 190.759 178.553Z" fill="#FF8C04"/>
<path d="M198.09 178.553C199.247 178.553 200.185 177.615 200.185 176.459C200.185 175.302 199.247 174.364 198.09 174.364C196.933 174.364 195.995 175.302 195.995 176.459C195.995 177.615 196.933 178.553 198.09 178.553Z" fill="#FF8C04"/>
<path d="M183.428 218.35C184.585 218.35 185.523 217.413 185.523 216.256C185.523 215.099 184.585 214.161 183.428 214.161C182.271 214.161 181.333 215.099 181.333 216.256C181.333 217.413 182.271 218.35 183.428 218.35Z" fill="#FF8C04"/>
<path d="M190.759 218.35C191.916 218.35 192.854 217.413 192.854 216.256C192.854 215.099 191.916 214.161 190.759 214.161C189.602 214.161 188.664 215.099 188.664 216.256C188.664 217.413 189.602 218.35 190.759 218.35Z" fill="#FF8C04"/>
<path d="M198.09 218.35C199.247 218.35 200.185 217.413 200.185 216.256C200.185 215.099 199.247 214.161 198.09 214.161C196.933 214.161 195.995 215.099 195.995 216.256C195.995 217.413 196.933 218.35 198.09 218.35Z" fill="#FF8C04"/>
<path d="M310.5 248.373H0.5V249.071H310.5V248.373Z" fill="#3F3D56"/>
<path d="M84.9397 95.5574V160.487C84.9394 161.845 84.3997 163.148 83.4392 164.108C82.4787 165.069 81.176 165.609 79.8176 165.609H54.5853C53.2266 165.609 51.9234 165.07 50.9625 164.109C50.0015 163.149 49.4615 161.846 49.4611 160.487V95.5574C49.4615 94.1987 50.0015 92.8958 50.9625 91.9352C51.9234 90.9746 53.2266 90.4351 54.5853 90.4353H57.6461C57.4958 90.8049 57.4386 91.2058 57.4796 91.6027C57.5205 91.9996 57.6583 92.3803 57.8808 92.7115C58.1033 93.0427 58.4038 93.3141 58.7558 93.5019C59.1078 93.6898 59.5006 93.7883 59.8996 93.7888H74.2854C74.6844 93.7883 75.0772 93.6898 75.4292 93.5019C75.7812 93.3141 76.0817 93.0427 76.3042 92.7115C76.5268 92.3803 76.6645 91.9996 76.7055 91.6027C76.7464 91.2058 76.6892 90.8049 76.5389 90.4353H79.8176C81.176 90.4356 82.4787 90.9753 83.4392 91.9358C84.3997 92.8963 84.9394 94.199 84.9397 95.5574Z" fill="#E6E6E6"/>
<path d="M83.2588 102.834H51.1417V147.519H83.2588V102.834Z" fill="white"/>
<path d="M73.0796 133.561H60.2607V134.294H73.0796V133.561Z" fill="#E6E6E6"/>
<path d="M80.0826 136.251H60.2478V136.983H80.0826V136.251Z" fill="#FF8C04"/>
<path d="M75.8135 138.785H60.2478V139.517H75.8135V138.785Z" fill="#E6E6E6"/>
<path d="M69.4041 141.319H60.2478V142.051H69.4041V141.319Z" fill="#E6E6E6"/>
<path d="M73.9823 143.853H60.2478V144.585H73.9823V143.853Z" fill="#E6E6E6"/>
<path d="M55.9124 133.351H54.4474V134.816H55.9124V133.351Z" fill="#E6E6E6"/>
<path d="M55.9124 135.885H54.4474V137.35H55.9124V135.885Z" fill="#FF8C04"/>
<path d="M55.9124 138.418H54.4474V139.883H55.9124V138.418Z" fill="#E6E6E6"/>
<path d="M55.9124 140.952H54.4474V142.417H55.9124V140.952Z" fill="#E6E6E6"/>
<path d="M55.9124 143.486H54.4474V144.951H55.9124V143.486Z" fill="#E6E6E6"/>
<path d="M73.7229 108.42H60.8071V121.336H73.7229V108.42Z" fill="#E6E6E6"/>
<path d="M198.437 0.9776H112.599V55.952H198.437V0.9776Z" fill="#E6E6E6"/>
<path d="M190.238 16.3575H119.07V43.2504H190.238V16.3575Z" fill="white"/>
<path d="M149.117 21.0167H132.037V21.9927H149.117V21.0167Z" fill="#E6E6E6"/>
<path d="M158.448 24.6004H132.02V25.5764H158.448V24.6004Z" fill="#FF8C04"/>
<path d="M152.76 27.9768H132.02V28.9528H152.76V27.9768Z" fill="#E6E6E6"/>
<path d="M144.22 31.3531H132.02V32.3292H144.22V31.3531Z" fill="#E6E6E6"/>
<path d="M150.32 34.7295H132.02V35.7055H150.32V34.7295Z" fill="#E6E6E6"/>
<path d="M126.243 20.7361H124.291V22.6881H126.243V20.7361Z" fill="#E6E6E6"/>
<path d="M126.243 24.1124H124.291V26.0645H126.243V24.1124Z" fill="#FF8C04"/>
<path d="M126.243 27.4888H124.291V29.4408H126.243V27.4888Z" fill="#E6E6E6"/>
<path d="M126.243 30.8651H124.291V32.8171H126.243V30.8651Z" fill="#E6E6E6"/>
<path d="M126.243 34.2415H124.291V36.1936H126.243V34.2415Z" fill="#E6E6E6"/>
<path d="M186.746 19.7271H169.27V37.2025H186.746V19.7271Z" fill="#E6E6E6"/>
<path d="M198.401 0.928955H112.563V4.57566H198.401V0.928955Z" fill="#FF8C04"/>
<path d="M115.273 3.52536C115.677 3.52536 116.005 3.19763 116.005 2.79335C116.005 2.38907 115.677 2.06134 115.273 2.06134C114.868 2.06134 114.541 2.38907 114.541 2.79335C114.541 3.19763 114.868 3.52536 115.273 3.52536Z" fill="white"/>
<path d="M117.838 3.52536C118.242 3.52536 118.57 3.19763 118.57 2.79335C118.57 2.38907 118.242 2.06134 117.838 2.06134C117.434 2.06134 117.106 2.38907 117.106 2.79335C117.106 3.19763 117.434 3.52536 117.838 3.52536Z" fill="white"/>
<path d="M120.404 3.52536C120.808 3.52536 121.136 3.19763 121.136 2.79335C121.136 2.38907 120.808 2.06134 120.404 2.06134C119.999 2.06134 119.672 2.38907 119.672 2.79335C119.672 3.19763 119.999 3.52536 120.404 3.52536Z" fill="white"/>
<path d="M255.918 103.846H234.972V114.668H255.918V103.846Z" fill="#E6E6E6"/>
<path d="M255.918 142.596H234.972V153.418H255.918V142.596Z" fill="#E6E6E6"/>
<path d="M245.445 146.087C255.085 146.087 262.9 138.272 262.9 128.632C262.9 118.992 255.085 111.177 245.445 111.177C235.804 111.177 227.99 118.992 227.99 128.632C227.99 138.272 235.804 146.087 245.445 146.087Z" fill="#E6E6E6"/>
<path d="M245.445 142.247C252.964 142.247 259.059 136.151 259.059 128.632C259.059 121.113 252.964 115.017 245.445 115.017C237.925 115.017 231.83 121.113 231.83 128.632C231.83 136.151 237.925 142.247 245.445 142.247Z" fill="white"/>
<path d="M251.545 124.902H240.986V125.505H251.545V124.902Z" fill="#E2E2E2"/>
<path d="M257.314 127.117H240.976V127.72H257.314V127.117Z" fill="#FF8C04"/>
<path d="M253.797 129.204H240.976V129.808H253.797V129.204Z" fill="#E2E2E2"/>
<path d="M248.518 131.292H240.976V131.895H248.518V131.292Z" fill="#E2E2E2"/>
<path d="M252.289 133.379H240.976V133.982H252.289V133.379Z" fill="#E2E2E2"/>
<path d="M237.404 124.728H236.198V125.935H237.404V124.728Z" fill="#E2E2E2"/>
<path d="M237.404 126.815H236.198V128.022H237.404V126.815Z" fill="#FF8C04"/>
<path d="M237.404 128.903H236.198V130.109H237.404V128.903Z" fill="#E2E2E2"/>
<path d="M237.404 130.99H236.198V132.197H237.404V130.99Z" fill="#E2E2E2"/>
<path d="M237.404 133.077H236.198V134.284H237.404V133.077Z" fill="#E2E2E2"/>
</g>
<defs>
<clipPath id="clip0_323_283">
<rect width="310" height="248.142" fill="white" transform="translate(0.5 0.928955)"/>
</clipPath>
</defs>
</svg>
