<svg width="311" height="222" viewBox="0 0 311 222" fill="none" xmlns="http://www.w3.org/2000/svg">
<g clip-path="url(#clip0_324_700)">
<path d="M257.306 140.389C257.576 139.827 257.72 139.213 257.727 138.59C257.734 137.967 257.604 137.35 257.347 136.783C257.09 136.215 256.712 135.711 256.239 135.305C255.765 134.9 255.209 134.603 254.609 134.436L253.666 119.32L247.378 124.053L249.237 137.682C249.023 138.709 249.193 139.779 249.715 140.689C250.237 141.599 251.075 142.286 252.07 142.619C253.064 142.953 254.147 142.91 255.112 142.499C256.077 142.088 256.858 141.337 257.306 140.389Z" fill="#FFB8B8"/>
<path d="M284.717 199.809L289.712 201.241L297.613 182.656L290.241 180.543L284.717 199.809Z" fill="#FFB8B8"/>
<path d="M298.015 208.641L282.317 204.14L284.056 198.074L293.689 200.837C295.297 201.298 296.657 202.379 297.468 203.843C298.279 205.306 298.476 207.032 298.015 208.641Z" fill="#222057"/>
<path d="M276.714 216.882L271.517 216.881L269.045 196.839L276.715 196.839L276.714 216.882Z" fill="#FFB8B8"/>
<path d="M267.806 215.397H277.827V221.706H261.496C261.496 220.878 261.659 220.057 261.976 219.292C262.293 218.526 262.758 217.831 263.344 217.245C263.93 216.659 264.626 216.194 265.391 215.877C266.157 215.56 266.977 215.397 267.806 215.397Z" fill="#222057"/>
<path d="M262.343 135.166C262.343 135.166 259.376 147.034 264.462 171.193L268.276 212.729L278.025 213.152L276.753 168.226L280.144 149.577L288.621 175.431L285.654 193.656L292.859 197.047L300.912 172.04C300.912 172.04 300.064 137.286 296.674 133.047L262.343 135.166Z" fill="#222057"/>
<path d="M274.652 67.5652C280.402 67.5652 285.062 62.9046 285.062 57.1554C285.062 51.4061 280.402 46.7455 274.652 46.7455C268.903 46.7455 264.242 51.4061 264.242 57.1554C264.242 62.9046 268.903 67.5652 274.652 67.5652Z" fill="#FFB8B8"/>
<path d="M269.124 72.9638C269.124 72.9638 268.488 74.3618 276.117 73.4981C283.747 72.6344 285.442 70.1074 285.442 70.1074L298.793 128.673L297.945 133.855L261.495 136.014V128.673L267.853 89.806L269.124 72.9638Z" fill="#E6E6E6"/>
<path d="M272.245 134.534L260.69 134.315L260.653 134.154C259.161 126.124 259.305 117.875 261.076 109.901C263.41 99.5674 258.107 85.5526 255.719 80.0067C255.438 79.3471 255.405 78.6081 255.625 77.9257C255.845 77.2434 256.305 76.6636 256.919 76.2932L265.098 71.386C265.655 71.052 266.282 70.8527 266.929 70.8041C267.576 70.7554 268.226 70.8587 268.826 71.1057C269.426 71.3527 269.96 71.7366 270.386 72.2267C270.811 72.7168 271.116 73.2996 271.277 73.9286L272.707 79.5386C279.293 86.6209 278.831 101.147 277.281 112.097C276.172 119.639 274.505 127.088 272.293 134.383L272.245 134.534Z" fill="#222057"/>
<path d="M259.164 75.1935L258.165 75.8773C255.907 77.4122 254.211 79.6416 253.335 82.2274C252.826 83.735 252.437 85.2803 252.171 86.849C251.323 91.9351 247.508 113.551 247.508 113.551L245.813 134.743L255.138 132.623L259.376 108.041L263.614 92.7827L259.164 75.1935Z" fill="#222057"/>
<path d="M292.324 134.634L292.236 134.391C291.63 132.711 277.485 93.1366 284.165 79.1818L283.511 72.6372C283.441 71.9361 283.546 71.2286 283.817 70.5782C284.088 69.9278 284.516 69.3549 285.063 68.9109C285.61 68.4669 286.259 68.1658 286.951 68.0346C287.644 67.9034 288.358 67.9462 289.029 68.1592L299.251 71.4C299.673 71.5317 300.041 71.7962 300.301 72.1542C300.56 72.5122 300.697 72.9444 300.69 73.3864C300.648 77.1483 300.44 86.7364 299.427 94.5054C298.174 104.11 302.35 128.107 302.392 128.349L302.417 128.491L292.324 134.634Z" fill="#222057"/>
<path d="M287.819 124.112C287.831 123.489 287.979 122.877 288.254 122.317C288.528 121.758 288.922 121.265 289.407 120.875C289.893 120.484 290.458 120.205 291.063 120.056C291.668 119.907 292.298 119.893 292.91 120.014L300.565 106.946L304.044 114.005L296.241 125.333C295.969 126.346 295.335 127.225 294.459 127.802C293.583 128.379 292.526 128.614 291.488 128.464C290.449 128.313 289.503 127.787 288.826 126.985C288.15 126.183 287.792 125.161 287.819 124.112Z" fill="#FFB8B8"/>
<path d="M297.733 71.3789L298.281 71.5054C298.959 71.6619 299.588 71.9845 300.11 72.4443C300.632 72.9041 301.031 73.4865 301.272 74.1392L310.66 99.5641L299.64 123.723L295.614 113.763L300.7 102.743L291.587 91.0873L297.733 71.3789Z" fill="#222057"/>
<path d="M285.204 58.5944C285.802 57.0511 286.249 55.4537 286.54 53.8243C286.829 52.1857 286.636 50.4985 285.985 48.9673C285.285 47.6282 284.307 46.4547 283.115 45.5262C282.298 44.8314 281.44 44.186 280.546 43.5932C278.028 41.9229 277.48 43.4428 274.459 43.1009C271.438 42.759 268.053 41.8902 265.631 43.6933C264.065 44.8828 262.889 46.5124 262.255 48.3737C261.62 50.235 261.554 52.2433 262.067 54.1419C262.742 56.4389 262.205 57.196 264.289 58.4375C264.288 56.3703 265.074 54.3802 266.488 52.8722C267.932 51.3589 269.886 50.4347 271.972 50.2782C273.579 50.1618 275.179 50.5046 276.752 50.8452C278.278 51.1758 279.845 51.5232 281.139 52.3827C283.283 53.8072 284.288 56.3512 285.171 58.7375" fill="#222057"/>
<path d="M185.453 99.0474H0.660156V99.895H185.453V99.0474Z" fill="#E6E6E6"/>
<path d="M185.453 65.988H0.660156V66.8357H185.453V65.988Z" fill="#E6E6E6"/>
<path d="M185.453 32.9288H0.660156V33.7765H185.453V32.9288Z" fill="#E6E6E6"/>
<path d="M148.918 0.293335H148.071V132.53H148.918V0.293335Z" fill="#E6E6E6"/>
<path d="M111.96 0.293335H111.112V132.53H111.96V0.293335Z" fill="#E6E6E6"/>
<path d="M75.0011 0.293335H74.1534V132.53H75.0011V0.293335Z" fill="#E6E6E6"/>
<path d="M38.0425 0.293335H37.1948V132.53H38.0425V0.293335Z" fill="#E6E6E6"/>
<path d="M111.705 33.3527H37.5339V66.4119H111.705V33.3527Z" fill="#FF8C04"/>
<path d="M37.5339 63.8689V99.4712L76.1031 65.1404L37.5339 63.8689Z" fill="#FF8C04"/>
<path d="M111.705 65.1404V66.4119L111.222 66.84L110.248 67.7046C91.2893 68.2768 75.9761 81.8565 75.2851 98.6956L74.4163 99.467L74.4078 99.4712V63.8689L111.705 65.1404Z" fill="#FF8C04"/>
<path d="M111.494 66.8357C111.405 66.8357 111.311 66.8357 111.222 66.8399C91.0563 66.9671 74.6663 81.5132 74.4163 99.4669C74.4078 99.611 74.4078 99.7509 74.4078 99.895C74.4078 118.124 91.0434 132.954 111.494 132.954C131.944 132.954 148.579 118.124 148.579 99.895C148.579 81.6657 131.944 66.8357 111.494 66.8357ZM111.494 132.107C91.5138 132.107 75.2555 117.658 75.2555 99.895C75.2555 99.4923 75.264 99.0939 75.2851 98.6955C75.9761 81.8565 91.2893 68.2767 110.247 67.7046C110.659 67.6876 111.074 67.6834 111.494 67.6834C131.473 67.6834 147.732 82.132 147.732 99.895C147.732 117.658 131.473 132.107 111.494 132.107Z" fill="#E6E6E6"/>
<path d="M91.1493 99.478L89.0302 99.4662C89.0311 99.2776 89.3705 80.6137 111.049 79.3192L111.175 81.4347C91.5142 82.6087 91.155 98.7898 91.1493 99.478Z" fill="#E6E6E6"/>
<path d="M132.889 99.0473C132.807 96.6316 132.24 94.2569 131.223 92.0645C130.205 89.8722 128.756 87.9069 126.964 86.2856C122.749 82.4424 117.239 80.331 111.536 80.3731H111.493C99.8508 80.3731 90.3482 88.7099 90.0982 99.0473C90.0897 99.1872 90.0897 99.3313 90.0897 99.4711C90.0897 104.879 92.6201 109.766 96.6803 113.242C100.826 116.725 106.079 118.614 111.493 118.569H111.536C123.318 118.548 132.897 109.991 132.897 99.4711C132.897 99.3313 132.897 99.1872 132.889 99.0473Z" fill="#E6E6E6"/>
<path d="M126.964 86.2856L126.328 86.8493L97.3161 112.678L96.6803 113.242C92.6201 109.766 90.0897 104.879 90.0897 99.4711C90.0897 99.3313 90.0897 99.1872 90.0982 99.0473C90.3482 88.7099 99.8508 80.3731 111.493 80.3731H111.536C117.239 80.331 122.749 82.4424 126.964 86.2856Z" fill="#FF8C04"/>
</g>
<defs>
<clipPath id="clip0_324_700">
<rect width="310" height="221.413" fill="white" transform="translate(0.660156 0.293335)"/>
</clipPath>
</defs>
</svg>
