<svg width="300" height="290" viewBox="0 0 300 290" fill="none" xmlns="http://www.w3.org/2000/svg">
<g clip-path="url(#clip0_323_630)">
<path d="M109.135 38.9091C108.394 37.6979 105.19 38.9947 104.601 37.8955C104.014 36.8003 106.991 35.1315 108.692 31.3194C108.999 30.6319 110.931 26.2997 109.501 24.9629C106.788 22.429 94.3771 32.8856 90.0338 29.4637C89.0806 28.7128 88.4146 27.2136 85.5298 24.7796C84.3821 23.8113 83.6881 23.3741 83.0165 23.5368C82.0634 23.7676 81.9879 25.0045 80.966 27.4366C79.4335 31.0841 78.527 30.8638 77.6341 33.7739C76.9712 35.9341 77.1227 37.1901 76.3427 37.4348C75.2389 37.781 74.2229 35.4897 72.824 35.6948C71.3966 35.9042 70.5336 38.5721 70.261 40.5696C69.7494 44.3181 71.1689 46.7916 71.9557 49.3925C72.8106 52.219 73.3181 56.5175 71.3436 62.6026L51.801 116.001C56.1154 105.044 68.6077 75.0072 73.8569 63.8454C75.3723 60.6233 77.0454 57.355 80.481 56.0651C83.7886 54.8232 88.3312 55.5646 94.1224 54.2116C94.7988 54.0536 96.6757 53.5905 96.9119 52.5199C97.1072 51.6348 96.0032 51.1407 96.1729 50.3118C96.4004 49.1998 98.5714 49.1862 101.239 47.9033C103.12 46.9987 104.292 45.9229 105.3 44.9977C105.604 44.7188 110.121 40.5214 109.135 38.9091Z" fill="#F2F2F2"/>
<path d="M32.2485 67.0202C31.4218 67.0233 31.1536 68.9226 30.4274 68.8858C29.7037 68.8492 29.7181 66.9507 28.2796 65.0412C28.0202 64.6969 26.3854 62.5268 25.2959 62.8222C23.231 63.3821 24.942 72.3067 21.957 73.3867C21.3019 73.6238 20.351 73.5082 18.2869 74.1791C17.4657 74.446 17.0442 74.6501 16.9327 75.0167C16.7745 75.5369 17.3787 75.9298 18.3148 77.1179C19.7185 78.8998 19.3455 79.2677 20.5606 80.5324C21.4626 81.4712 22.1419 81.7615 22.0407 82.2034C21.8975 82.8286 20.4447 82.6511 20.1449 83.3761C19.839 84.116 20.9402 85.2965 21.8725 86.0026C23.622 87.3277 25.2833 87.3657 26.8266 87.7417C28.5038 88.1502 30.8256 89.149 33.3355 91.8445L54.7214 116.554C50.4209 111.339 38.824 96.7259 34.6897 91.0068C33.4962 89.3559 32.3249 87.6164 32.6634 85.609C32.9892 83.6763 34.6752 81.7281 35.6614 78.5811C35.7766 78.2136 36.0837 77.1866 35.6101 76.7652C35.2185 76.4169 34.6499 76.7999 34.2793 76.4799C33.7822 76.0508 34.4017 75.0135 34.5222 73.3735C34.6072 72.217 34.4009 71.3488 34.2235 70.6021C34.17 70.377 33.3489 67.0161 32.2485 67.0202Z" fill="#F2F2F2"/>
<path d="M48.7404 70.6105L48.2423 66.2987L48.4699 65.9718C49.5229 64.4603 50.0596 62.9842 50.066 61.583C50.0671 61.3603 50.0563 61.1375 50.0456 60.9106C50.0027 60.0112 49.949 58.8932 50.5501 57.5899C50.8872 56.8633 51.8339 55.181 53.2572 55.3892C53.6404 55.4413 53.9303 55.612 54.1503 55.8118C54.1825 55.7619 54.2158 55.7119 54.2512 55.6578C54.6945 55.0019 55.0455 54.7209 55.3836 54.4502C55.6434 54.242 55.9118 54.0276 56.3325 53.5196C56.5171 53.2968 56.661 53.1011 56.7823 52.9366C57.1505 52.4391 57.6313 51.8457 58.4793 51.8561C59.3853 51.8977 59.8597 52.6243 60.1742 53.1053C60.7356 53.963 60.99 54.5814 61.1585 54.9915C61.2197 55.1414 61.2895 55.3101 61.3249 55.3621C61.6169 55.7785 63.9902 55.3892 64.8843 55.2476C66.8927 54.9228 68.6305 54.6418 69.3465 55.8701C69.8596 56.7487 69.4785 57.9104 68.1797 59.4157C67.775 59.8842 67.3446 60.2402 66.9624 60.5192C67.2791 60.7024 67.5624 60.9834 67.6773 61.4248C67.9478 62.47 67.0215 63.5172 64.9251 64.5415C64.4045 64.7976 63.7036 65.1391 62.7214 65.3036C62.2588 65.3806 61.8423 65.3993 61.4859 65.4097C61.4784 65.6096 61.4301 65.8261 61.3045 66.0489C60.9364 66.7047 60.17 67.017 59.015 66.942C57.744 66.8775 56.6975 66.6422 55.7744 66.4361C54.9682 66.2571 54.2737 66.1051 53.7285 66.1405C52.7173 66.2196 51.938 67.0045 51.0235 68.0226L48.7404 70.6105Z" fill="#F2F2F2"/>
<path d="M51.0508 44.9382L46.8765 46.4991L46.4927 46.3686C44.718 45.7642 43.1096 45.6351 41.7104 45.9845C41.4879 46.04 41.2685 46.1066 41.0448 46.1742C40.1587 46.4426 39.0571 46.7765 37.6047 46.5432C36.7945 46.4114 34.8765 45.9499 34.7231 44.5619C34.6778 44.1892 34.7746 43.8741 34.9181 43.6169C34.8601 43.5994 34.8018 43.5809 34.7389 43.5614C33.9723 43.3119 33.6029 43.0539 33.2472 42.8053C32.9736 42.6145 32.6917 42.4171 32.0783 42.1513C31.8092 42.0346 31.5776 41.9493 31.3827 41.8772C30.793 41.6581 30.0792 41.3574 29.8745 40.5593C29.6863 39.6989 30.2907 39.0695 30.6906 38.6525C31.4037 37.9083 31.956 37.5128 32.3223 37.2507C32.4563 37.1553 32.6068 37.047 32.6497 37.0006C32.991 36.6211 32.0007 34.4935 31.6327 33.6907C30.7993 31.8891 30.0782 30.3301 31.1218 29.3469C31.868 28.6427 33.1234 28.7055 34.9542 29.5421C35.5241 29.8029 35.9884 30.1164 36.3636 30.4041C36.466 30.0606 36.6744 29.7235 37.0856 29.5038C38.0594 28.9849 39.3389 29.5883 40.8923 31.295C41.2798 31.7184 41.7982 32.2893 42.2113 33.169C42.4055 33.5834 42.5298 33.9693 42.6306 34.301C42.8319 34.2574 43.0601 34.2478 43.3141 34.3091C44.0616 34.4881 44.5676 35.1278 44.7857 36.2303C45.0437 37.4389 45.0745 38.4803 45.1031 39.3986C45.129 40.2002 45.1535 40.8903 45.3272 41.3928C45.6626 42.3213 46.6431 42.8532 47.8906 43.4529L51.0508 44.9382Z" fill="#F2F2F2"/>
<path d="M48.7404 32.2357L48.2423 27.924L48.4699 27.5971C49.5229 26.0856 50.0596 24.6095 50.066 23.2083C50.0671 22.9855 50.0563 22.7627 50.0456 22.5358C50.0027 21.6364 49.949 20.5184 50.5501 19.2151C50.8872 18.4885 51.8339 16.8063 53.2572 17.0145C53.6404 17.0665 53.9303 17.2372 54.1503 17.4371C54.1825 17.3871 54.2158 17.3371 54.2512 17.283C54.6945 16.6272 55.0455 16.3461 55.3836 16.0755C55.6434 15.8673 55.9118 15.6529 56.3325 15.1448C56.5171 14.9221 56.661 14.7264 56.7823 14.5619C57.1505 14.0643 57.6313 13.4709 58.4793 13.4813C59.3853 13.523 59.8597 14.2496 60.1742 14.7305C60.7356 15.5883 60.99 16.2066 61.1585 16.6168C61.2197 16.7667 61.2895 16.9353 61.3249 16.9874C61.6169 17.4038 63.9902 17.0144 64.8843 16.8728C66.8927 16.548 68.6305 16.267 69.3465 17.4954C69.8596 18.3739 69.4785 19.5357 68.1797 21.041C67.775 21.5094 67.3446 21.8654 66.9624 22.1444C67.2791 22.3276 67.5624 22.6087 67.6773 23.0501C67.9478 24.0952 67.0215 25.1425 64.9251 26.1668C64.4045 26.4229 63.7036 26.7643 62.7214 26.9288C62.2588 27.0058 61.8423 27.0246 61.4859 27.035C61.4784 27.2349 61.4301 27.4514 61.3045 27.6741C60.9364 28.33 60.17 28.6422 59.015 28.5673C57.744 28.5027 56.6975 28.2675 55.7744 28.0614C54.9682 27.8823 54.2737 27.7304 53.7285 27.7657C52.7173 27.8449 51.938 28.6298 51.0235 29.6478L48.7404 32.2357Z" fill="#F2F2F2"/>
<path d="M53.2894 115.931L52.3577 115.364L51.2714 115.485C51.2542 115.387 51.1952 115.163 51.1061 114.811C50.6198 112.883 49.1375 107.016 47.9009 97.776C47.0379 91.3261 46.5495 84.695 46.4486 78.0639C46.3477 71.4225 46.6719 66.3945 46.9316 62.3534C47.128 59.3054 47.3664 56.4032 47.6003 53.5758C48.2229 46.0225 48.8101 38.8876 48.3732 30.9886C48.2766 29.2251 48.0737 25.5546 45.8625 21.6489C44.5798 19.3837 42.813 17.3725 40.6104 15.6736L41.98 14.0039C44.4113 15.8818 46.3659 18.1096 47.7903 20.6246C50.242 24.9551 50.4631 28.9545 50.5694 30.8762C51.0138 38.9147 50.4202 46.1183 49.7912 53.7445C49.5593 56.5614 49.321 59.4512 49.1256 62.4867C48.868 66.4903 48.5471 71.4745 48.6469 78.0307C48.7457 84.5826 49.2287 91.1325 50.0799 97.5013C51.3014 106.624 52.7624 112.404 53.2422 114.303C53.4976 115.317 53.5513 115.529 53.2894 115.931Z" fill="#F2F2F2"/>
<path d="M36.5787 19.061C36.4886 19.061 36.3973 19.0589 36.305 19.0527C34.433 18.9548 32.6995 17.868 31.1516 15.8235C30.426 14.8617 30.0546 13.7645 29.314 11.5763C29.1991 11.239 28.6409 9.52766 28.3017 7.17295C28.0795 5.63436 28.1075 4.99106 28.422 4.42267C28.7708 3.78975 29.3354 3.34838 29.9709 3.05067C29.943 2.84662 29.9655 2.63635 30.0568 2.4219C30.4314 1.5329 31.4275 1.6495 31.9663 1.70571C32.239 1.73902 32.5792 1.78274 32.9464 1.764C33.5239 1.73695 33.8341 1.57037 34.3042 1.32053C34.754 1.08109 35.3132 0.783381 36.143 0.618903C37.7788 0.287874 39.1495 0.73758 39.6015 0.885387C41.979 1.65363 43.1512 3.44621 44.508 5.52192C44.7785 5.93831 45.7069 7.45397 46.3199 9.53178C46.7621 11.0308 46.6998 11.697 46.5667 12.1925C46.2962 13.2106 45.6576 13.7936 44.0357 15.0802C42.3418 16.4273 41.4917 17.1018 40.7618 17.512C39.0626 18.4634 37.9956 19.061 36.5787 19.061Z" fill="#F2F2F2"/>
<path d="M128.019 287.045C128.019 287.33 128.255 287.559 128.549 287.559H238.675C238.969 287.559 239.205 287.33 239.205 287.045C239.205 286.907 239.152 286.786 239.063 286.695H199.107C198.257 286.695 197.424 286.639 196.605 286.531H128.549C128.255 286.531 128.019 286.76 128.019 287.045Z" fill="#3F3D56"/>
<path d="M74.8128 196.119H136.121C146.508 196.119 154.927 204.284 154.927 214.357V262.051C154.927 272.124 146.508 280.289 136.121 280.289H74.8128C64.4264 280.289 56.0065 272.124 56.0065 262.051V214.357C56.0065 204.284 64.4264 196.119 74.8128 196.119Z" fill="white"/>
<path d="M55.561 262.051V214.357C55.561 204.062 64.1974 195.687 74.8127 195.687H136.121C146.736 195.687 155.373 204.062 155.373 214.357V262.051C155.373 272.346 146.736 280.721 136.121 280.721H74.8127C64.1974 280.721 55.561 272.346 55.561 262.051ZM74.8127 196.551C64.6884 196.551 56.4517 204.538 56.4517 214.357V262.051C56.4517 271.869 64.6884 279.857 74.8127 279.857H136.121C146.245 279.857 154.482 271.869 154.482 262.051V214.357C154.482 204.538 146.245 196.551 136.121 196.551H74.8127Z" fill="#3F3D56"/>
<path d="M97.7343 217.001H111.466L97.2111 257.962C96.9107 258.825 96.0762 259.406 95.1369 259.407H84.4499C83.2426 259.407 82.2638 258.458 82.2637 257.287C82.2636 257.056 82.3024 256.827 82.3784 256.609L95.6595 218.445C95.9598 217.582 96.7947 217.001 97.7343 217.001L97.7343 217.001Z" fill="url(#paint0_linear_323_630)"/>
<path d="M117.689 244.475H95.9132C95.3566 244.474 94.9049 244.912 94.9043 245.451C94.904 245.723 95.0202 245.982 95.225 246.168L109.218 258.833C109.625 259.202 110.161 259.407 110.719 259.407H123.049L117.689 244.475Z" fill="#0078D4"/>
<path d="M97.7344 217.001C96.7836 216.998 95.941 217.594 95.6549 218.474L82.3948 256.574C81.9876 257.675 82.5777 258.887 83.7127 259.282C83.9511 259.365 84.2026 259.407 84.4559 259.407H95.4187C96.2499 259.263 96.9369 258.696 97.217 257.923L99.8614 250.366L109.307 258.91C109.703 259.227 110.199 259.403 110.713 259.407H122.997L117.61 244.475L101.903 244.479L111.516 217.001L97.7344 217.001Z" fill="url(#paint1_linear_323_630)"/>
<path d="M115.274 218.443C114.974 217.581 114.14 217.001 113.202 217.001H97.8978C98.8359 217.001 99.6694 217.581 99.9694 218.443L113.251 256.608C113.637 257.718 113.023 258.921 111.879 259.296C111.653 259.37 111.417 259.407 111.18 259.407H126.484C127.692 259.407 128.671 258.457 128.67 257.286C128.67 257.056 128.631 256.827 128.555 256.608L115.274 218.443Z" fill="url(#paint2_linear_323_630)"/>
<path d="M19.5916 89.8757H80.8999C91.2864 89.8757 99.7063 98.0413 99.7063 108.114V155.808C99.7063 165.881 91.2864 174.046 80.9 174.046H19.5916C9.20516 174.046 0.785278 165.881 0.785278 155.808V108.114C0.785278 98.0413 9.20516 89.8757 19.5916 89.8757Z" fill="white"/>
<path d="M0.339844 155.808V108.114C0.339844 97.8194 8.9762 89.4438 19.5915 89.4438H80.8999C91.5152 89.4438 100.152 97.8194 100.152 108.114V155.808C100.152 166.103 91.5152 174.478 80.8999 174.478H19.5915C8.9762 174.478 0.339844 166.103 0.339844 155.808ZM19.5915 90.3076C9.46719 90.3076 1.23051 98.2955 1.23051 108.114V155.808C1.23051 165.627 9.46719 173.614 19.5915 173.614H80.8999C91.0242 173.614 99.2609 165.627 99.2609 155.808V108.114C99.2609 98.2955 91.0242 90.3076 80.8999 90.3076L19.5915 90.3076Z" fill="#3F3D56"/>
<path d="M38.0011 132.691C38.0011 133.36 38.0758 133.904 38.2064 134.302C38.3557 134.7 38.5424 135.134 38.8037 135.605C38.897 135.75 38.9343 135.895 38.9343 136.021C38.9343 136.202 38.8223 136.383 38.5797 136.564L37.4038 137.325C37.2359 137.433 37.0679 137.487 36.9186 137.487C36.7319 137.487 36.5453 137.397 36.3586 137.234C36.0973 136.963 35.8733 136.673 35.6867 136.383C35.5 136.076 35.3134 135.732 35.1081 135.315C33.6523 136.981 31.8231 137.813 29.6207 137.813C28.0529 137.813 26.8023 137.379 25.8878 136.51C24.9732 135.641 24.5066 134.483 24.5066 133.035C24.5066 131.496 25.0665 130.247 26.2051 129.306C27.3436 128.365 28.8554 127.894 30.7779 127.894C31.4125 127.894 32.0658 127.948 32.7563 128.039C33.4469 128.129 34.1562 128.274 34.9028 128.437V127.116C34.9028 125.74 34.6041 124.781 34.0255 124.22C33.4283 123.658 32.4204 123.387 30.9832 123.387C30.3299 123.387 29.658 123.459 28.9674 123.622C28.2768 123.785 27.6049 123.984 26.9517 124.238C26.653 124.364 26.429 124.437 26.2984 124.473C26.1677 124.509 26.0744 124.527 25.9998 124.527C25.7385 124.527 25.6078 124.346 25.6078 123.966V123.079C25.6078 122.79 25.6451 122.572 25.7384 122.446C25.8318 122.319 25.9998 122.192 26.2611 122.065C26.9143 121.74 27.6982 121.468 28.6128 121.251C29.5274 121.016 30.4979 120.907 31.5245 120.907C33.7456 120.907 35.3694 121.396 36.4146 122.373C37.4412 123.351 37.9638 124.835 37.9638 126.826V132.691L38.0011 132.691ZM30.4233 135.442C31.0392 135.442 31.6738 135.333 32.3457 135.116C33.0177 134.899 33.6149 134.501 34.1189 133.958C34.4175 133.614 34.6415 133.234 34.7535 132.799C34.8655 132.365 34.9401 131.84 34.9401 131.225V130.464C34.3988 130.338 33.8202 130.229 33.223 130.157C32.6257 130.084 32.0471 130.048 31.4685 130.048C30.218 130.048 29.3034 130.283 28.6875 130.772C28.0715 131.261 27.7729 131.949 27.7729 132.854C27.7729 133.704 27.9969 134.338 28.4635 134.772C28.9114 135.225 29.5647 135.442 30.4233 135.442ZM45.411 137.397C45.075 137.397 44.851 137.343 44.7017 137.216C44.5524 137.107 44.4217 136.854 44.3097 136.51L39.9236 122.518C39.8116 122.156 39.7556 121.921 39.7556 121.794C39.7556 121.504 39.9049 121.341 40.2035 121.341H42.0327C42.3873 121.341 42.6299 121.396 42.7606 121.522C42.9099 121.631 43.0219 121.884 43.1339 122.228L46.2695 134.211L49.1812 122.228C49.2745 121.866 49.3865 121.631 49.5358 121.522C49.6852 121.414 49.9465 121.341 50.2824 121.341H51.7756C52.1302 121.341 52.3729 121.396 52.5222 121.522C52.6715 121.631 52.8021 121.884 52.8768 122.228L55.8258 134.356L59.0548 122.228C59.1668 121.866 59.2974 121.631 59.4281 121.522C59.5774 121.414 59.82 121.341 60.156 121.341H61.8918C62.1904 121.341 62.3584 121.486 62.3584 121.794C62.3584 121.884 62.3398 121.975 62.3211 122.084C62.3024 122.192 62.2651 122.337 62.1904 122.536L57.6923 136.528C57.5803 136.89 57.4496 137.125 57.3003 137.234C57.151 137.343 56.9084 137.415 56.5911 137.415H54.9859C54.6313 137.415 54.3886 137.361 54.2393 137.234C54.09 137.107 53.9593 136.872 53.8847 136.51L50.9917 124.835L48.1173 136.492C48.024 136.854 47.912 137.089 47.7627 137.216C47.6134 137.343 47.3521 137.397 47.0161 137.397L45.411 137.397ZM69.395 137.886C68.4244 137.886 67.4539 137.777 66.5206 137.56C65.5874 137.343 64.8595 137.107 64.3742 136.836C64.0756 136.673 63.8703 136.492 63.7956 136.329C63.7209 136.166 63.6836 135.985 63.6836 135.822V134.899C63.6836 134.519 63.8329 134.338 64.1129 134.338C64.2249 134.338 64.3369 134.356 64.4489 134.392C64.5608 134.428 64.7288 134.501 64.9155 134.573C65.5501 134.845 66.2407 135.062 66.9686 135.207C67.7152 135.352 68.4431 135.424 69.1897 135.424C70.3655 135.424 71.2801 135.225 71.9147 134.827C72.5493 134.428 72.8853 133.849 72.8853 133.107C72.8853 132.6 72.7173 132.184 72.3813 131.84C72.0454 131.496 71.4108 131.188 70.4962 130.899L67.7898 130.084C66.4273 129.668 65.4194 129.052 64.8035 128.238C64.1876 127.441 63.8703 126.555 63.8703 125.613C63.8703 124.853 64.0382 124.183 64.3742 123.604C64.7102 123.025 65.1581 122.518 65.7181 122.12C66.278 121.703 66.9126 121.396 67.6592 121.179C68.4058 120.961 69.1897 120.871 70.0109 120.871C70.4215 120.871 70.8508 120.889 71.2615 120.943C71.6907 120.998 72.0827 121.07 72.4747 121.142C72.8479 121.233 73.2026 121.323 73.5385 121.432C73.8745 121.541 74.1358 121.649 74.3225 121.758C74.5838 121.903 74.7704 122.047 74.8824 122.21C74.9944 122.355 75.0504 122.554 75.0504 122.808V123.658C75.0504 124.039 74.9011 124.238 74.6211 124.238C74.4718 124.238 74.2291 124.165 73.9118 124.02C72.848 123.55 71.6534 123.314 70.3282 123.314C69.2644 123.314 68.4244 123.477 67.8458 123.821C67.2672 124.165 66.9686 124.69 66.9686 125.432C66.9686 125.939 67.1553 126.374 67.5285 126.717C67.9018 127.061 68.5924 127.405 69.5817 127.713L72.232 128.528C73.5759 128.944 74.5464 129.523 75.125 130.265C75.7037 131.007 75.9836 131.858 75.9836 132.799C75.9836 133.578 75.8156 134.284 75.4983 134.899C75.1624 135.515 74.7144 136.058 74.1358 136.492C73.5572 136.944 72.8666 137.27 72.064 137.506C71.2241 137.759 70.3469 137.886 69.395 137.886Z" fill="#252F3E"/>
<path fill-rule="evenodd" clip-rule="evenodd" d="M72.9226 146.683C66.7819 151.081 57.8602 153.416 50.1891 153.416C39.4382 153.416 29.7513 149.561 22.4348 143.153C21.8562 142.646 22.3788 141.958 23.0694 142.357C30.9832 146.809 40.7448 149.506 50.8423 149.506C57.6549 149.506 65.1394 148.131 72.0267 145.307C73.0532 144.855 73.9304 145.959 72.9226 146.683Z" fill="#FF9900"/>
<path fill-rule="evenodd" clip-rule="evenodd" d="M75.4795 143.859C74.6956 142.882 70.2908 143.388 68.2937 143.624C67.6964 143.696 67.6031 143.189 68.1444 142.809C71.6533 140.42 77.4207 141.108 78.0926 141.904C78.7645 142.719 77.9059 148.312 74.621 150.991C74.117 151.407 73.6317 151.19 73.8557 150.647C74.6023 148.855 76.2635 144.818 75.4795 143.859Z" fill="#FF9900"/>
<path d="M191.134 121.639C190.688 121.207 187.126 112.138 187.126 112.138L178.664 111.706L174.793 120.558L191.134 121.639Z" fill="#FFB6B6"/>
<path d="M179.129 115.884C185.419 115.884 190.519 110.939 190.519 104.838C190.519 98.7382 185.419 93.793 179.129 93.793C172.839 93.793 167.74 98.7382 167.74 104.838C167.74 110.939 172.839 115.884 179.129 115.884Z" fill="#FFB6B6"/>
<path d="M200.708 181.455L204.716 194.411L194.028 269.559H186.792L182.895 212.982L178.442 232.417L201.154 260.489L195.364 266.967L162.632 236.088L163.3 188.365L165.972 181.023L200.708 181.455Z" fill="#2F2E41"/>
<path d="M188.678 113.912L187.788 113.955C187.788 113.955 186.993 107.074 186.526 106.664C186.06 106.254 185.214 107.159 185.214 107.159C185.214 107.159 181.546 105.173 181.436 103.016C181.327 100.859 181.239 99.1335 179.905 99.1972C178.57 99.261 171.097 101.348 169.317 101.433C167.538 101.518 164.716 98.6257 167.698 95.8888C170.68 93.1519 173.305 92.1616 173.728 91.709C174.151 91.2564 176.935 89.3938 179.368 91.0072C181.8 92.6206 184.914 92.4718 184.914 92.4718C184.914 92.4718 190.762 93.4897 190.003 96.1203C189.245 98.751 192.177 103.8 190.974 106.452C189.771 109.104 188.678 113.912 188.678 113.912Z" fill="#2F2E41"/>
<path d="M186.458 268.263L194.474 269.127L195.364 283.379C195.364 283.379 194.919 290.289 187.348 289.425C179.778 288.562 182.004 281.651 182.004 281.651L186.458 268.263Z" fill="#2F2E41"/>
<path d="M196.923 258.114C196.923 258.114 202.712 255.523 203.603 258.546L205.384 264.592C205.384 264.592 205.384 270.638 205.83 271.07C206.275 271.502 214.736 282.731 207.166 288.777C207.166 288.777 203.158 289.209 200.931 283.163C198.704 277.117 192.024 271.07 192.024 271.07C192.024 271.07 190.73 268.047 192.936 268.263C195.142 268.479 198.259 263.296 197.368 261.569C196.478 259.841 196.923 258.114 196.923 258.114Z" fill="#2F2E41"/>
<path d="M123.398 201.69C121.326 200.844 120.758 197.599 122.13 194.44C122.66 193.171 123.496 192.044 124.567 191.152L126.168 187.592L126.11 187.555L130.712 169.769C131.782 165.633 134.728 162.144 138.774 160.476C141.181 159.483 143.464 159.304 144.128 161.682C145.23 165.628 138.053 178.341 133.725 185.493L130.354 193.516C130.445 194.883 130.197 196.251 129.632 197.506C128.261 200.663 125.47 202.537 123.398 201.69Z" fill="#FFB6B6"/>
<path d="M175.102 119.048L189.798 119.48L204.048 125.526L201.822 161.372C201.822 161.372 204.494 169.578 203.158 170.874C201.822 172.169 203.158 177.978 202.267 178.097C201.376 178.216 202.267 184.463 202.267 184.463C202.267 184.463 189.798 180.375 179.11 182.966C168.422 185.558 164.859 181.239 164.859 181.239C164.859 181.239 162.187 170.874 162.187 168.714V124.557L175.102 119.048Z" fill="#FF8C04"/>
<path d="M164.636 124.446C164.636 124.446 158.402 122.719 155.284 127.038C152.167 131.356 150.386 131.356 150.386 136.971C150.386 136.971 132.127 162.02 133.018 164.611L128.787 171.305L139.475 176.92C139.475 176.92 143.26 173.249 143.26 169.794C143.26 166.339 153.948 156.837 153.948 156.837C153.948 156.837 163.3 145.177 163.746 140.858C164.191 136.539 164.636 124.446 164.636 124.446Z" fill="#FF8C04"/>
<path d="M219.546 203.892H280.854C291.24 203.892 299.66 212.058 299.66 222.131V269.825C299.66 279.897 291.24 288.063 280.854 288.063H219.546C209.159 288.063 200.739 279.897 200.739 269.825V222.131C200.739 212.058 209.159 203.892 219.546 203.892Z" fill="white"/>
<path d="M199.849 269.393V221.699C199.849 211.404 208.485 203.029 219.1 203.029H280.409C291.024 203.029 299.66 211.404 299.66 221.699V269.393C299.66 279.688 291.024 288.063 280.409 288.063H219.1C208.485 288.063 199.849 279.688 199.849 269.393ZM219.1 203.893C208.976 203.893 200.739 211.88 200.739 221.699V269.393C200.739 279.212 208.976 287.199 219.1 287.199H280.409C290.533 287.199 298.77 279.212 298.77 269.393V221.699C298.77 211.88 290.533 203.893 280.409 203.893H219.1Z" fill="#3F3D56"/>
<path d="M258.004 237.239H259.517L263.828 233.057L264.04 231.282C256.015 224.413 243.769 225.154 236.686 232.936C234.718 235.097 233.29 237.669 232.512 240.452C232.992 240.261 233.524 240.23 234.025 240.364L242.648 238.985C242.648 238.985 243.087 238.28 243.314 238.324C247.15 234.239 253.605 233.763 258.034 237.239L258.004 237.239Z" fill="#EA4335"/>
<path d="M269.97 240.452C268.979 236.913 266.945 233.731 264.116 231.297L258.064 237.165C260.619 239.19 262.075 242.241 262.013 245.44V246.482C264.987 246.482 267.399 248.821 267.399 251.705C267.399 254.59 264.987 256.928 262.013 256.928H251.241L250.167 257.985V264.25L251.241 265.291H262.013C269.75 265.35 276.07 259.315 276.131 251.811C276.167 247.264 273.855 243 269.97 240.452Z" fill="#4285F4"/>
<path d="M240.454 265.233H251.226V256.87H240.454C239.687 256.869 238.929 256.709 238.23 256.4L236.718 256.855L232.376 261.036L231.997 262.504C234.432 264.287 237.403 265.245 240.454 265.233Z" fill="#34A853"/>
<path d="M240.454 238.104C232.718 238.149 226.483 244.268 226.529 251.771C226.555 255.961 228.573 259.905 231.997 262.459L238.246 256.4C235.535 255.212 234.33 252.118 235.555 249.49C236.78 246.861 239.97 245.693 242.681 246.88C243.875 247.404 244.832 248.331 245.371 249.49L251.619 243.43C248.961 240.06 244.83 238.089 240.454 238.104Z" fill="#FBBC05"/>
<path d="M212.992 211.463C215.237 211.349 216.907 208.483 216.722 205.061C216.667 203.693 216.276 202.357 215.58 201.166L215.32 197.29L215.387 197.274L217.283 179.029C217.724 174.787 216.174 170.535 212.952 167.634C211.035 165.908 208.95 164.988 207.493 167.006C205.075 170.356 207.378 184.676 208.946 192.828L209.309 201.485C208.745 202.74 208.499 204.109 208.593 205.475C208.777 208.896 210.747 211.577 212.992 211.463Z" fill="#FFB6B6"/>
<path d="M201.233 125.231C201.233 125.231 207.702 125.658 209.123 130.746C210.544 135.835 212.22 136.421 210.255 141.702C210.255 141.702 218.664 171.274 216.919 173.419L218.556 181.108L206.537 182.871C206.537 182.871 204.261 178.172 205.471 174.922C206.68 171.672 199.951 159.217 199.951 159.217C199.951 159.217 195.235 145.17 196.328 140.961C197.42 136.752 201.233 125.231 201.233 125.231Z" fill="#FF8C04"/>
</g>
<defs>
<linearGradient id="paint0_linear_323_630" x1="102.739" y1="220.143" x2="89.2439" y2="261.253" gradientUnits="userSpaceOnUse">
<stop stop-color="#114A8B"/>
<stop offset="1" stop-color="#0669BC"/>
</linearGradient>
<linearGradient id="paint1_linear_323_630" x1="107.194" y1="239.184" x2="103.916" y2="240.327" gradientUnits="userSpaceOnUse">
<stop stop-opacity="0.3"/>
<stop offset="0.071" stop-opacity="0.2"/>
<stop offset="0.321" stop-opacity="0.1"/>
<stop offset="0.623" stop-opacity="0.05"/>
<stop offset="1" stop-opacity="0"/>
</linearGradient>
<linearGradient id="paint2_linear_323_630" x1="105.482" y1="218.915" x2="120.314" y2="259.661" gradientUnits="userSpaceOnUse">
<stop stop-color="#3CCBF4"/>
<stop offset="1" stop-color="#2892DF"/>
</linearGradient>
<clipPath id="clip0_323_630">
<rect width="299.32" height="289" fill="white" transform="translate(0.339844 0.5)"/>
</clipPath>
</defs>
</svg>
