<svg width="311" height="240" viewBox="0 0 311 240" fill="none" xmlns="http://www.w3.org/2000/svg">
<g clip-path="url(#clip0_323_536)">
<path d="M281.087 229.246H29.9134C25.5153 229.246 21.1733 228.259 17.2071 226.359C13.2408 224.459 9.75141 221.693 6.99579 218.265C4.24016 214.837 2.28853 210.835 1.28462 206.553C0.280702 202.271 0.250081 197.818 1.195 193.523L12.4141 142.528H298.586L309.805 193.523C310.75 197.818 310.719 202.271 309.715 206.553C308.712 210.835 306.76 214.837 304.004 218.265C301.249 221.693 297.759 224.459 293.793 226.359C289.827 228.259 285.485 229.246 281.087 229.246ZM13.1042 143.387L2.03346 193.708C1.11615 197.877 1.1459 202.2 2.12052 206.357C3.09513 210.514 4.98979 214.399 7.66496 217.727C10.3401 221.054 13.7277 223.74 17.5781 225.585C21.4285 227.43 25.6437 228.387 29.9134 228.387H281.087C285.356 228.387 289.572 227.43 293.422 225.585C297.272 223.74 300.66 221.054 303.335 217.727C306.01 214.399 307.905 210.514 308.88 206.357C309.854 202.2 309.884 197.877 308.967 193.708L297.896 143.387H13.1042Z" fill="#F2F2F2"/>
<path d="M249.194 33.6475L262.369 31.6839L260.288 22.5188L252.389 26.4969L236.092 20.3551C235.86 19.7557 235.459 19.2367 234.937 18.8615C234.415 18.4863 233.795 18.2711 233.152 18.2421C232.51 18.2132 231.873 18.3717 231.32 18.6984C230.766 19.0251 230.319 19.5058 230.034 20.0819C229.749 20.6581 229.638 21.3048 229.714 21.9431C229.79 22.5815 230.05 23.184 230.462 23.6771C230.875 24.1702 231.422 24.5326 232.036 24.7202C232.651 24.9078 233.308 24.9124 233.925 24.7335L249.194 33.6475Z" fill="#FFB6B6"/>
<path d="M275.972 26.7961C274.954 30.6575 251.482 35.0132 251.494 34.1778C251.527 31.8036 253.036 26.8218 252.174 25.5294C251.681 24.7903 258.319 22.9017 258.319 22.9017C258.319 22.9017 261.982 21.4916 266.731 19.7708C268.065 19.2593 269.506 19.0937 270.921 19.2891C272.336 19.4846 273.679 20.0349 274.824 20.8888C274.824 20.8888 276.991 22.9347 275.972 26.7961Z" fill="#FF8C04"/>
<path d="M48.9104 187.602H40.7537C38.932 187.602 37.185 188.326 35.8968 189.614C34.6087 190.902 33.885 192.649 33.885 194.471C33.885 196.293 34.6087 198.04 35.8968 199.328C37.185 200.616 38.932 201.34 40.7537 201.34H48.9104C50.7321 201.34 52.4792 200.616 53.7673 199.328C55.0554 198.04 55.7791 196.293 55.7791 194.471C55.7791 192.649 55.0554 190.902 53.7673 189.614C52.4792 188.326 50.7321 187.602 48.9104 187.602Z" fill="#E6E6E6"/>
<path d="M75.0974 187.602H66.9408C65.1191 187.602 63.372 188.326 62.0838 189.614C60.7957 190.902 60.072 192.649 60.072 194.471C60.072 196.293 60.7957 198.04 62.0838 199.328C63.372 200.616 65.1191 201.34 66.9408 201.34H75.0974C76.9191 201.34 78.6662 200.616 79.9543 199.328C81.2425 198.04 81.9661 196.293 81.9661 194.471C81.9661 192.649 81.2425 190.902 79.9543 189.614C78.6662 188.326 76.9191 187.602 75.0974 187.602Z" fill="#E6E6E6"/>
<path d="M101.285 187.602H93.1279C91.3062 187.602 89.5591 188.326 88.271 189.614C86.9828 190.902 86.2592 192.649 86.2592 194.471C86.2592 196.293 86.9828 198.04 88.271 199.328C89.5591 200.616 91.3062 201.34 93.1279 201.34H101.285C103.106 201.34 104.853 200.616 106.141 199.328C107.43 198.04 108.153 196.293 108.153 194.471C108.153 192.649 107.43 190.902 106.141 189.614C104.853 188.326 103.106 187.602 101.285 187.602Z" fill="#E6E6E6"/>
<path d="M127.472 187.602H119.315C117.493 187.602 115.746 188.326 114.458 189.614C113.17 190.902 112.446 192.649 112.446 194.471C112.446 196.293 113.17 198.04 114.458 199.328C115.746 200.616 117.493 201.34 119.315 201.34H127.472C129.293 201.34 131.04 200.616 132.328 199.328C133.617 198.04 134.34 196.293 134.34 194.471C134.34 192.649 133.617 190.902 132.328 189.614C131.04 188.326 129.293 187.602 127.472 187.602Z" fill="#E6E6E6"/>
<path d="M153.659 187.602H145.502C143.68 187.602 141.933 188.326 140.645 189.614C139.357 190.902 138.633 192.649 138.633 194.471C138.633 196.293 139.357 198.04 140.645 199.328C141.933 200.616 143.68 201.34 145.502 201.34H153.659C155.48 201.34 157.227 200.616 158.516 199.328C159.804 198.04 160.527 196.293 160.527 194.471C160.527 192.649 159.804 190.902 158.516 189.614C157.227 188.326 155.48 187.602 153.659 187.602Z" fill="#E6E6E6"/>
<path d="M179.846 187.602H171.689C169.867 187.602 168.12 188.326 166.832 189.614C165.544 190.902 164.82 192.649 164.82 194.471C164.82 196.293 165.544 198.04 166.832 199.328C168.12 200.616 169.867 201.34 171.689 201.34H179.846C181.667 201.34 183.414 200.616 184.703 199.328C185.991 198.04 186.714 196.293 186.714 194.471C186.714 192.649 185.991 190.902 184.703 189.614C183.414 188.326 181.667 187.602 179.846 187.602Z" fill="#E6E6E6"/>
<path d="M206.033 187.602H197.876C196.054 187.602 194.307 188.326 193.019 189.614C191.731 190.902 191.007 192.649 191.007 194.471C191.007 196.293 191.731 198.04 193.019 199.328C194.307 200.616 196.054 201.34 197.876 201.34H206.033C207.854 201.34 209.601 200.616 210.89 199.328C212.178 198.04 212.901 196.293 212.901 194.471C212.901 192.649 212.178 190.902 210.89 189.614C209.601 188.326 207.854 187.602 206.033 187.602Z" fill="#E6E6E6"/>
<path d="M232.22 187.602H224.063C222.241 187.602 220.494 188.326 219.206 189.614C217.918 190.902 217.194 192.649 217.194 194.471C217.194 196.293 217.918 198.04 219.206 199.328C220.494 200.616 222.241 201.34 224.063 201.34H232.22C234.041 201.34 235.788 200.616 237.077 199.328C238.365 198.04 239.088 196.293 239.088 194.471C239.088 192.649 238.365 190.902 237.077 189.614C235.788 188.326 234.041 187.602 232.22 187.602Z" fill="#E6E6E6"/>
<path d="M258.407 187.602H250.25C248.429 187.602 246.681 188.326 245.393 189.614C244.105 190.902 243.381 192.649 243.381 194.471C243.381 196.293 244.105 198.04 245.393 199.328C246.681 200.616 248.429 201.34 250.25 201.34H258.407C260.229 201.34 261.976 200.616 263.264 199.328C264.552 198.04 265.276 196.293 265.276 194.471C265.276 192.649 264.552 190.902 263.264 189.614C261.976 188.326 260.229 187.602 258.407 187.602Z" fill="#E6E6E6"/>
<path d="M48.9104 158.839H40.7537C38.932 158.839 37.185 159.563 35.8968 160.851C34.6087 162.139 33.885 163.887 33.885 165.708C33.885 167.53 34.6087 169.277 35.8968 170.565C37.185 171.853 38.932 172.577 40.7537 172.577H48.9104C50.7321 172.577 52.4792 171.853 53.7673 170.565C55.0554 169.277 55.7791 167.53 55.7791 165.708C55.7791 163.887 55.0554 162.139 53.7673 160.851C52.4792 159.563 50.7321 158.839 48.9104 158.839Z" fill="#E6E6E6"/>
<path d="M75.0974 158.839H66.9408C65.1191 158.839 63.372 159.563 62.0838 160.851C60.7957 162.139 60.072 163.887 60.072 165.708C60.072 167.53 60.7957 169.277 62.0838 170.565C63.372 171.853 65.1191 172.577 66.9408 172.577H75.0974C76.9191 172.577 78.6662 171.853 79.9543 170.565C81.2425 169.277 81.9661 167.53 81.9661 165.708C81.9661 163.887 81.2425 162.139 79.9543 160.851C78.6662 159.563 76.9191 158.839 75.0974 158.839Z" fill="#E6E6E6"/>
<path d="M101.285 158.839H93.1279C91.3062 158.839 89.5591 159.563 88.271 160.851C86.9828 162.139 86.2592 163.887 86.2592 165.708C86.2592 167.53 86.9828 169.277 88.271 170.565C89.5591 171.853 91.3062 172.577 93.1279 172.577H101.285C103.106 172.577 104.853 171.853 106.141 170.565C107.43 169.277 108.153 167.53 108.153 165.708C108.153 163.887 107.43 162.139 106.141 160.851C104.853 159.563 103.106 158.839 101.285 158.839Z" fill="#FF8C04"/>
<path d="M127.472 158.839H119.315C117.493 158.839 115.746 159.563 114.458 160.851C113.17 162.139 112.446 163.887 112.446 165.708C112.446 167.53 113.17 169.277 114.458 170.565C115.746 171.853 117.493 172.577 119.315 172.577H127.472C129.293 172.577 131.04 171.853 132.328 170.565C133.617 169.277 134.34 167.53 134.34 165.708C134.34 163.887 133.617 162.139 132.328 160.851C131.04 159.563 129.293 158.839 127.472 158.839Z" fill="#E6E6E6"/>
<path d="M153.659 158.839H145.502C143.68 158.839 141.933 159.563 140.645 160.851C139.357 162.139 138.633 163.887 138.633 165.708C138.633 167.53 139.357 169.277 140.645 170.565C141.933 171.853 143.68 172.577 145.502 172.577H153.659C155.48 172.577 157.227 171.853 158.516 170.565C159.804 169.277 160.527 167.53 160.527 165.708C160.527 163.887 159.804 162.139 158.516 160.851C157.227 159.563 155.48 158.839 153.659 158.839Z" fill="#E6E6E6"/>
<path d="M179.846 158.839H171.689C169.867 158.839 168.12 159.563 166.832 160.851C165.544 162.139 164.82 163.887 164.82 165.708C164.82 167.53 165.544 169.277 166.832 170.565C168.12 171.853 169.867 172.577 171.689 172.577H179.846C181.667 172.577 183.414 171.853 184.703 170.565C185.991 169.277 186.714 167.53 186.714 165.708C186.714 163.887 185.991 162.139 184.703 160.851C183.414 159.563 181.667 158.839 179.846 158.839Z" fill="#E6E6E6"/>
<path d="M206.033 158.839H197.876C196.054 158.839 194.307 159.563 193.019 160.851C191.731 162.139 191.007 163.887 191.007 165.708C191.007 167.53 191.731 169.277 193.019 170.565C194.307 171.853 196.054 172.577 197.876 172.577H206.033C207.854 172.577 209.601 171.853 210.89 170.565C212.178 169.277 212.901 167.53 212.901 165.708C212.901 163.887 212.178 162.139 210.89 160.851C209.601 159.563 207.854 158.839 206.033 158.839Z" fill="#E6E6E6"/>
<path d="M232.22 158.839H224.063C222.241 158.839 220.494 159.563 219.206 160.851C217.918 162.139 217.194 163.887 217.194 165.708C217.194 167.53 217.918 169.277 219.206 170.565C220.494 171.853 222.241 172.577 224.063 172.577H232.22C234.041 172.577 235.788 171.853 237.077 170.565C238.365 169.277 239.088 167.53 239.088 165.708C239.088 163.887 238.365 162.139 237.077 160.851C235.788 159.563 234.041 158.839 232.22 158.839Z" fill="#E6E6E6"/>
<path d="M258.407 158.839H250.25C248.429 158.839 246.681 159.563 245.393 160.851C244.105 162.139 243.381 163.887 243.381 165.708C243.381 167.53 244.105 169.277 245.393 170.565C246.681 171.853 248.429 172.577 250.25 172.577H258.407C260.229 172.577 261.976 171.853 263.264 170.565C264.552 169.277 265.276 167.53 265.276 165.708C265.276 163.887 264.552 162.139 263.264 160.851C261.976 159.563 260.229 158.839 258.407 158.839Z" fill="#E6E6E6"/>
<path d="M61.1454 173.65H52.9887C51.167 173.65 49.4199 174.374 48.1318 175.662C46.8437 176.95 46.12 178.697 46.12 180.519C46.12 182.341 46.8437 184.088 48.1318 185.376C49.4199 186.664 51.167 187.388 52.9887 187.388H61.1454C62.9671 187.388 64.7141 186.664 66.0023 185.376C67.2904 184.088 68.0141 182.341 68.0141 180.519C68.0141 178.697 67.2904 176.95 66.0023 175.662C64.7141 174.374 62.9671 173.65 61.1454 173.65Z" fill="#E6E6E6"/>
<path d="M87.3324 173.65H79.1757C77.354 173.65 75.607 174.374 74.3188 175.662C73.0307 176.95 72.307 178.697 72.307 180.519C72.307 182.341 73.0307 184.088 74.3188 185.376C75.607 186.664 77.354 187.388 79.1757 187.388H87.3324C89.1541 187.388 90.9012 186.664 92.1893 185.376C93.4774 184.088 94.2011 182.341 94.2011 180.519C94.2011 178.697 93.4774 176.95 92.1893 175.662C90.9012 174.374 89.1541 173.65 87.3324 173.65Z" fill="#E6E6E6"/>
<path d="M113.519 173.65H105.363C103.541 173.65 101.794 174.374 100.506 175.662C99.2177 176.95 98.494 178.697 98.494 180.519C98.494 182.341 99.2177 184.088 100.506 185.376C101.794 186.664 103.541 187.388 105.363 187.388H113.519C115.341 187.388 117.088 186.664 118.376 185.376C119.664 184.088 120.388 182.341 120.388 180.519C120.388 178.697 119.664 176.95 118.376 175.662C117.088 174.374 115.341 173.65 113.519 173.65Z" fill="#E6E6E6"/>
<path d="M139.707 173.65H131.55C129.728 173.65 127.981 174.374 126.693 175.662C125.405 176.95 124.681 178.697 124.681 180.519C124.681 182.341 125.405 184.088 126.693 185.376C127.981 186.664 129.728 187.388 131.55 187.388H139.707C141.528 187.388 143.275 186.664 144.563 185.376C145.852 184.088 146.575 182.341 146.575 180.519C146.575 178.697 145.852 176.95 144.563 175.662C143.275 174.374 141.528 173.65 139.707 173.65Z" fill="#E6E6E6"/>
<path d="M165.894 173.65H157.737C155.915 173.65 154.168 174.374 152.88 175.662C151.592 176.95 150.868 178.697 150.868 180.519C150.868 182.341 151.592 184.088 152.88 185.376C154.168 186.664 155.915 187.388 157.737 187.388H165.894C167.715 187.388 169.462 186.664 170.75 185.376C172.039 184.088 172.762 182.341 172.762 180.519C172.762 178.697 172.039 176.95 170.75 175.662C169.462 174.374 167.715 173.65 165.894 173.65Z" fill="#E6E6E6"/>
<path d="M192.081 173.65H183.924C182.102 173.65 180.355 174.374 179.067 175.662C177.779 176.95 177.055 178.697 177.055 180.519C177.055 182.341 177.779 184.088 179.067 185.376C180.355 186.664 182.102 187.388 183.924 187.388H192.081C193.902 187.388 195.649 186.664 196.937 185.376C198.226 184.088 198.949 182.341 198.949 180.519C198.949 178.697 198.226 176.95 196.937 175.662C195.649 174.374 193.902 173.65 192.081 173.65Z" fill="#E6E6E6"/>
<path d="M218.268 173.65H210.111C208.289 173.65 206.542 174.374 205.254 175.662C203.966 176.95 203.242 178.697 203.242 180.519C203.242 182.341 203.966 184.088 205.254 185.376C206.542 186.664 208.289 187.388 210.111 187.388H218.268C220.089 187.388 221.836 186.664 223.125 185.376C224.413 184.088 225.136 182.341 225.136 180.519C225.136 178.697 224.413 176.95 223.125 175.662C221.836 174.374 220.089 173.65 218.268 173.65Z" fill="#E6E6E6"/>
<path d="M244.455 173.65H236.298C234.476 173.65 232.729 174.374 231.441 175.662C230.153 176.95 229.429 178.697 229.429 180.519C229.429 182.341 230.153 184.088 231.441 185.376C232.729 186.664 234.476 187.388 236.298 187.388H244.455C246.276 187.388 248.023 186.664 249.312 185.376C250.6 184.088 251.323 182.341 251.323 180.519C251.323 178.697 250.6 176.95 249.312 175.662C248.023 174.374 246.276 173.65 244.455 173.65Z" fill="#E6E6E6"/>
<path d="M270.642 173.65H262.485C260.663 173.65 258.916 174.374 257.628 175.662C256.34 176.95 255.616 178.697 255.616 180.519C255.616 182.341 256.34 184.088 257.628 185.376C258.916 186.664 260.663 187.388 262.485 187.388H270.642C272.463 187.388 274.21 186.664 275.499 185.376C276.787 184.088 277.51 182.341 277.51 180.519C277.51 178.697 276.787 176.95 275.499 175.662C274.21 174.374 272.463 173.65 270.642 173.65Z" fill="#E6E6E6"/>
<path d="M240.433 142.956H70.9625C68.2744 142.952 65.6972 141.883 63.7964 139.982C61.8956 138.082 60.8264 135.504 60.8234 132.816L60.8345 132.719C66.8299 106.778 66.8276 74.2573 60.8273 30.3743L60.8234 30.3161C60.8264 27.6279 61.8956 25.0508 63.7964 23.15C65.6972 21.2492 68.2744 20.1799 70.9625 20.1769H240.433C243.121 20.1799 245.698 21.2492 247.599 23.15C249.5 25.0508 250.569 27.6279 250.572 30.3161L250.563 30.4058C243.311 64.1273 243.311 99.0051 250.563 132.727L250.572 132.816C250.569 135.505 249.5 138.082 247.599 139.982C245.698 141.883 243.121 142.952 240.433 142.956Z" fill="white"/>
<path d="M240.433 142.956H70.9625C68.2744 142.952 65.6972 141.883 63.7964 139.982C61.8956 138.082 60.8264 135.504 60.8234 132.816L60.8345 132.719C66.8299 106.778 66.8276 74.2573 60.8273 30.3743L60.8234 30.3161C60.8264 27.6279 61.8956 25.0508 63.7964 23.15C65.6972 21.2492 68.2744 20.1799 70.9625 20.1769H240.433C243.121 20.1799 245.698 21.2492 247.599 23.15C249.5 25.0508 250.569 27.6279 250.572 30.3161L250.563 30.4058C243.311 64.1273 243.311 99.0051 250.563 132.727L250.572 132.816C250.569 135.505 249.5 138.082 247.599 139.982C245.698 141.883 243.121 142.952 240.433 142.956ZM61.6822 132.865C61.6977 135.317 62.682 137.663 64.4204 139.393C66.1588 141.122 68.5104 142.094 70.9625 142.097H240.433C242.886 142.094 245.238 141.122 246.976 139.391C248.715 137.661 249.699 135.314 249.713 132.861C242.449 99.0503 242.449 64.0821 249.713 30.2712C249.699 27.8185 248.715 25.4711 246.976 23.741C245.238 22.0108 242.886 21.0383 240.433 21.0355H70.9625C68.507 21.0383 66.1525 22.013 64.4135 23.7466C62.6745 25.4802 61.6924 27.8317 61.682 30.2871C67.689 74.2336 67.6894 106.833 61.6822 132.865Z" fill="#E6E6E6"/>
<path d="M222.668 50.4423H85.7226C84.9825 50.4423 84.2727 50.1483 83.7494 49.625C83.2261 49.1017 82.9321 48.3919 82.9321 47.6519C82.9321 46.9118 83.2261 46.2021 83.7494 45.6787C84.2727 45.1554 84.9825 44.8615 85.7226 44.8615H222.668C223.408 44.8615 224.118 45.1554 224.641 45.6787C225.164 46.2021 225.458 46.9118 225.458 47.6519C225.458 48.3919 225.164 49.1017 224.641 49.625C224.118 50.1483 223.408 50.4423 222.668 50.4423Z" fill="#E6E6E6"/>
<path d="M222.668 63.9651H85.7226C84.9825 63.9651 84.2727 63.6711 83.7494 63.1478C83.2261 62.6245 82.9321 61.9147 82.9321 61.1746C82.9321 60.4346 83.2261 59.7248 83.7494 59.2015C84.2727 58.6782 84.9825 58.3842 85.7226 58.3842H222.668C223.408 58.3842 224.118 58.6782 224.641 59.2015C225.164 59.7248 225.458 60.4346 225.458 61.1746C225.458 61.9147 225.164 62.6245 224.641 63.1478C224.118 63.6711 223.408 63.9651 222.668 63.9651Z" fill="#E6E6E6"/>
<path d="M222.668 77.4879H85.7226C84.9825 77.4879 84.2727 77.1939 83.7494 76.6706C83.2261 76.1473 82.9321 75.4375 82.9321 74.6975C82.9321 73.9574 83.2261 73.2476 83.7494 72.7243C84.2727 72.201 84.9825 71.907 85.7226 71.907H222.668C223.408 71.907 224.118 72.201 224.641 72.7243C225.164 73.2476 225.458 73.9574 225.458 74.6975C225.458 75.4375 225.164 76.1473 224.641 76.6706C224.118 77.1939 223.408 77.4879 222.668 77.4879Z" fill="#E6E6E6"/>
<path d="M222.668 91.0107H85.7226C84.9825 91.0107 84.2727 90.7167 83.7494 90.1934C83.2261 89.6701 82.9321 88.9604 82.9321 88.2203C82.9321 87.4802 83.2261 86.7705 83.7494 86.2472C84.2727 85.7239 84.9825 85.4299 85.7226 85.4299H222.668C223.408 85.4299 224.118 85.7239 224.641 86.2472C225.164 86.7705 225.458 87.4802 225.458 88.2203C225.458 88.9604 225.164 89.6701 224.641 90.1934C224.118 90.7167 223.408 91.0107 222.668 91.0107Z" fill="#E6E6E6"/>
<path d="M222.668 104.534H85.7226C84.9825 104.534 84.2727 104.24 83.7494 103.716C83.2261 103.193 82.9321 102.483 82.9321 101.743C82.9321 101.003 83.2261 100.293 83.7494 99.77C84.2727 99.2467 84.9825 98.9527 85.7226 98.9527H222.668C223.408 98.9527 224.118 99.2467 224.641 99.77C225.164 100.293 225.458 101.003 225.458 101.743C225.458 102.483 225.164 103.193 224.641 103.716C224.118 104.24 223.408 104.534 222.668 104.534Z" fill="#E6E6E6"/>
<path d="M147.112 118.056H85.7226C84.9825 118.056 84.2727 117.762 83.7494 117.239C83.2261 116.716 82.9321 116.006 82.9321 115.266C82.9321 114.526 83.2261 113.816 83.7494 113.293C84.2727 112.77 84.9825 112.476 85.7226 112.476H147.112C147.852 112.476 148.562 112.77 149.085 113.293C149.608 113.816 149.902 114.526 149.902 115.266C149.902 116.006 149.608 116.716 149.085 117.239C148.562 117.762 147.852 118.056 147.112 118.056Z" fill="#FF8C04"/>
<path d="M154.917 139.307H143.617C143.445 139.305 143.276 139.265 143.123 139.189C142.969 139.113 142.834 139.004 142.729 138.869C142.604 138.71 142.516 138.525 142.472 138.329C142.427 138.132 142.427 137.927 142.471 137.73L147.788 113.67C147.831 113.4 147.967 113.154 148.173 112.974C148.38 112.795 148.643 112.694 148.916 112.69C149.189 112.686 149.455 112.779 149.667 112.952C149.878 113.124 150.022 113.367 150.072 113.635L156.055 137.695C156.105 137.894 156.11 138.102 156.068 138.303C156.027 138.504 155.941 138.693 155.816 138.856C155.71 138.995 155.575 139.107 155.419 139.186C155.263 139.264 155.091 139.305 154.917 139.307Z" fill="#E6E6E6"/>
<path d="M296.936 148.322H14.4594C12.9224 148.322 11.4483 147.711 10.3614 146.624C9.27454 145.537 8.66394 144.063 8.66394 142.526C8.66394 140.989 9.27454 139.515 10.3614 138.428C11.4483 137.341 12.9224 136.731 14.4594 136.731H296.936C298.473 136.731 299.947 137.341 301.034 138.428C302.121 139.515 302.732 140.989 302.732 142.526C302.732 144.063 302.121 145.537 301.034 146.624C299.947 147.711 298.473 148.322 296.936 148.322Z" fill="#F2F2F2"/>
<path d="M261.165 133.809L257.043 133.808L255.083 117.909L261.166 117.91L261.165 133.809Z" fill="#FFB6B6"/>
<path d="M262.217 137.804L248.926 137.804V137.635C248.926 136.263 249.471 134.948 250.441 133.978C251.411 133.007 252.727 132.462 254.099 132.462L256.527 130.62L261.057 132.463L262.217 132.463L262.217 137.804Z" fill="#222057"/>
<path d="M298.41 128.449L294.721 130.288L285.873 116.933L291.318 114.22L298.41 128.449Z" fill="#FFB6B6"/>
<path d="M301.133 131.556L289.238 137.485L289.163 137.335C288.551 136.107 288.452 134.686 288.887 133.385C289.323 132.084 290.257 131.009 291.485 130.397L292.837 127.665L297.712 127.293L298.751 126.776L301.133 131.556Z" fill="#222057"/>
<path d="M259.339 61.6007L282.068 62.3962L283.768 65.5524C283.768 65.5524 285.548 78.4653 284.636 79.3769C283.725 80.2886 283.269 80.2886 283.725 81.8839C284.18 83.4792 285.359 98.7218 285.359 98.7218C285.359 98.7218 294.748 118.197 295.204 119.337C295.66 120.476 296.115 120.021 295.66 120.476C295.256 120.912 294.876 121.368 294.52 121.844H287.091C287.091 121.844 283.092 111.754 279.43 107.851C276.197 104.406 274.15 100.017 273.587 95.3255L270.506 80.7443L263.897 103.079C263.897 103.079 262.758 125.185 262.986 126.324L263.213 127.464L254.458 127.562C254.458 127.562 253.546 125.641 254.002 124.957C254.458 124.273 254.43 124.46 253.874 123.341C253.318 122.222 253.546 120.326 253.546 120.326C253.546 120.326 256.832 75.5026 256.832 74.8189C256.849 74.4671 256.785 74.1161 256.643 73.7937V72.8656L257.516 69.5772L259.339 61.6007Z" fill="#222057"/>
<path d="M269.139 20.3616C267.66 21.2411 266.775 22.8571 266.267 24.5016C265.326 27.546 264.76 30.6938 264.581 33.8752L264.044 43.3998C263.777 49.5466 262.067 55.5443 259.053 60.908C258.829 61.3164 258.702 61.7703 258.68 62.2354C258.658 62.7004 258.743 63.1643 258.927 63.5917C259.112 64.0191 259.392 64.3987 259.745 64.7017C260.099 65.0047 260.517 65.2231 260.967 65.3403C269.205 67.5019 284.807 64.7879 284.807 64.7879C284.807 64.7879 285.472 64.5664 284.807 63.9019C284.143 63.2373 282.652 59.9145 282.652 59.9145L284.424 48.2732L286.639 24.792C283.981 21.4692 278.635 19.5104 278.635 19.5104L277.253 17.0239L270.347 17.5765L269.139 20.3616Z" fill="#FF8C04"/>
<path d="M273.523 15.579C277.188 15.579 280.158 12.6084 280.158 8.94402C280.158 5.27965 277.188 2.30908 273.523 2.30908C269.859 2.30908 266.888 5.27965 266.888 8.94402C266.888 12.6084 269.859 15.579 273.523 15.579Z" fill="#FFB8B8"/>
<path d="M281.699 8.55005C281.402 9.89436 280.868 11.1748 280.121 12.3309C279.922 12.725 279.626 13.0616 279.26 13.3082C279.075 13.4271 278.853 13.4772 278.635 13.4499C278.417 13.4226 278.215 13.3196 278.064 13.1587L277.903 13.0272C278.219 12.8322 278.502 12.5869 278.74 12.301C278.857 12.1575 278.939 11.988 278.978 11.8066C279.017 11.6251 279.012 11.437 278.964 11.2579C278.907 11.0812 278.783 10.9336 278.619 10.8461C278.455 10.7586 278.264 10.738 278.085 10.7887C277.697 10.9411 277.461 11.503 277.054 11.4163C276.725 11.3446 276.657 10.9112 276.657 10.5705C276.669 8.78916 275.808 6.25767 275.141 6.33538C274.468 6.37219 273.794 6.28195 273.154 6.06938C272.513 5.85643 271.837 5.77015 271.163 5.81532C271.115 5.8213 271.068 5.83028 271.017 5.83924C270.909 5.5008 270.76 5.17665 270.574 4.87386C270.595 5.23937 270.577 5.60607 270.521 5.96775C269.985 6.1887 269.431 6.36368 268.865 6.49078C268.249 6.57747 266.895 8.41855 266.832 8.23025C266.724 7.89181 266.576 7.56768 266.39 7.26489C266.411 7.63039 266.393 7.99709 266.336 8.35877C266.333 8.37371 266.333 8.38568 266.33 8.40062C266.031 8.00309 265.849 7.51893 265.951 7.88953C264.95 5.62405 265.338 4.00115 266.913 2.09131C267.22 1.68066 267.626 1.35466 268.094 1.14386C268.328 1.04104 268.584 1.00024 268.839 1.02536C269.093 1.05049 269.337 1.14072 269.546 1.28733C270.189 0.698343 270.977 0.291868 271.829 0.110039C272.682 -0.0717901 273.567 -0.0223601 274.394 0.253207C276.035 0.824072 277.299 1.15882 277.55 2.88035C278.235 2.80549 278.927 2.9257 279.546 3.22713C280.165 3.52856 280.687 3.99892 281.05 4.58394C281.757 5.77739 281.989 7.19349 281.699 8.55005Z" fill="#222057"/>
<path d="M288.78 51.6651L288.79 38.3443L279.418 39.0441L282.181 47.4454L273.692 62.6517C273.065 62.7925 272.492 63.1127 272.044 63.5734C271.595 64.034 271.291 64.6152 271.167 65.246C271.043 65.8769 271.105 66.5301 271.346 67.1261C271.587 67.7221 271.997 68.2351 272.524 68.6025C273.052 68.9699 273.675 69.1759 274.317 69.1954C274.96 69.2149 275.594 69.047 276.143 68.7121C276.692 68.3773 277.131 67.89 277.408 67.3097C277.685 66.7294 277.787 66.0811 277.701 65.444L288.78 51.6651Z" fill="#FFB6B6"/>
<path d="M285.972 24.1666C289.64 25.7463 290.469 49.6044 289.645 49.469C287.302 49.0842 282.599 46.8532 281.193 47.5141C280.389 47.8921 279.505 41.0482 279.505 41.0482C279.505 41.0482 278.653 37.2163 277.655 32.2644C277.347 30.8696 277.397 29.4196 277.8 28.0493C278.203 26.6789 278.946 25.4328 279.96 24.427C279.96 24.427 282.305 22.587 285.972 24.1666Z" fill="#FF8C04"/>
<path d="M59.4585 171.371C59.2156 171.149 59.0243 170.877 58.8981 170.574C58.7718 170.27 58.7136 169.942 58.7276 169.614C58.7416 169.285 58.8274 168.964 58.9791 168.672C59.1308 168.381 59.3445 168.126 59.6054 167.926L57.0873 160.34L61.0982 161.418L62.8745 168.456C63.1817 168.916 63.3093 169.473 63.2332 170.022C63.157 170.57 62.8824 171.071 62.4613 171.431C62.0403 171.79 61.502 171.982 60.9486 171.971C60.3951 171.96 59.865 171.747 59.4585 171.371Z" fill="#FFB6B6"/>
<path d="M66.7279 130.16C67.3934 130.542 71.331 129.596 72.1 129.865C71.6755 132.455 73.981 131.483 71.4774 134.885C68.9737 138.286 63.931 148.484 62.7854 152.296C61.6399 156.107 62.7737 161.479 62.6021 163.285C62.5192 164.332 62.5244 165.384 62.6176 166.43C61.2649 166.413 59.9316 166.693 58.5577 166.514C57.0926 162.368 56.1075 156.467 55.4386 153.206C54.7697 149.945 54.7452 151.324 55.052 149.693C55.3588 148.062 55.4331 149.247 55.1108 147.687C54.7886 146.127 56.0919 144.167 57.2962 143.049C57.8155 141.556 58.4865 140.163 59.0006 138.685C62.7676 135.399 63.0153 133.501 66.7279 130.16Z" fill="#3F3D56"/>
<path d="M101.987 166.563C101.662 166.609 101.33 166.584 101.015 166.488C100.701 166.393 100.411 166.23 100.166 166.01C99.9216 165.791 99.728 165.52 99.5992 165.217C99.4704 164.915 99.4094 164.588 99.4207 164.259L91.9644 161.382L95.3455 158.971L101.908 162.072C102.459 162.128 102.97 162.384 103.345 162.791C103.72 163.198 103.932 163.729 103.942 164.282C103.952 164.836 103.758 165.374 103.398 165.794C103.038 166.214 102.536 166.488 101.987 166.563Z" fill="#FFB6B6"/>
<path d="M74.7915 134.757C75.509 134.486 77.2819 130.845 77.9782 130.423C79.708 132.396 80.4231 129.999 81.4577 134.094C82.4924 138.188 87.1607 148.563 89.3752 151.87C91.5898 155.177 96.4574 157.716 97.743 158.997C98.4983 159.726 99.3136 160.39 100.18 160.983C99.3073 162.017 98.6766 163.224 97.6649 164.171C93.5331 162.667 88.3512 159.677 85.4082 158.121C82.4653 156.564 83.5145 157.46 82.4505 156.186C81.3865 154.913 82.3486 155.609 80.9393 154.866C79.5301 154.123 78.8452 151.871 78.7477 150.231C77.9248 148.881 77.2762 147.478 76.4619 146.142C76.3192 141.145 75.0111 139.747 74.7915 134.757Z" fill="#3F3D56"/>
<path d="M80.4019 157.29L84.123 173.895L60.2782 172.412L66.7623 156.104L80.4019 157.29Z" fill="#FFB6B6"/>
<path d="M76.4313 233.931L79.1097 233.93L80.3839 223.599H76.4309L76.4313 233.931Z" fill="#FFB6B6"/>
<path d="M75.5243 232.609L79.7584 232.356V234.17L83.7839 236.951C83.9827 237.088 84.1325 237.285 84.2113 237.514C84.2901 237.742 84.2938 237.99 84.2219 238.22C84.1499 238.451 84.0062 238.653 83.8116 238.796C83.6169 238.939 83.3816 239.016 83.14 239.016H78.0991L77.2302 237.222L76.891 239.016H74.9904L75.5243 232.609Z" fill="#222057"/>
<path d="M51.1161 232.598L53.7335 233.166L57.1692 223.339L53.3059 222.501L51.1161 232.598Z" fill="#FFB6B6"/>
<path d="M50.5097 231.114L54.7012 231.765L54.3166 233.538L57.6612 237.108C57.8264 237.285 57.9309 237.509 57.9595 237.749C57.9881 237.989 57.9392 238.232 57.82 238.442C57.7008 238.652 57.5176 238.819 57.297 238.917C57.0765 239.016 56.8301 239.042 56.594 238.99L51.6677 237.922L51.199 235.984L50.487 237.666L48.6296 237.263L50.5097 231.114Z" fill="#222057"/>
<path d="M84.7316 187.781C82.8518 198.112 82.3819 202.572 82.3819 202.572C82.3819 202.572 83.7917 204.216 82.8518 205.156C81.9119 206.096 82.8518 207.973 82.8518 207.973L80.7384 230.748L79.0371 230.472L74.9389 229.813L73.4608 229.575L74.4007 208.209C74.4007 208.209 73.4608 206.329 73.9308 205.859C74.4007 205.39 73.4608 202.572 73.4608 202.572L72.2873 180.267L65.0071 204.686C65.0071 204.686 65.7133 205.626 65.0071 206.329C64.3034 207.033 62.8962 210.556 62.8962 210.556L58.567 225.705L58.1994 226.991L55.9416 226.568L53.4842 226.106L53.0326 226.022L52.2293 225.87L51.7121 225.773L51.5362 225.741L50.6855 225.581L50.9429 224.439L51.0767 223.838L54.7391 207.571L54.8232 207.196L54.9124 206.799C54.9124 206.799 54.4425 205.626 55.1461 204.92C55.3519 204.704 55.5023 204.442 55.5842 204.156C55.666 203.87 55.677 203.568 55.616 203.276C55.593 203.251 55.5719 203.225 55.553 203.197C55.4699 203.083 55.4126 202.952 55.385 202.814C55.3524 202.593 55.3784 202.368 55.4604 202.161C55.5425 201.953 55.6776 201.771 55.8523 201.633C55.9861 201.49 56.0985 201.329 56.1857 201.155C56.8999 199.803 57.2595 196.938 57.2595 196.938C57.2595 196.938 57.8949 174.252 59.9742 170.787C60.0845 170.606 62.2918 167.128 62.4073 167.057C64.7544 165.65 83.0405 167.594 83.0405 167.594C83.0405 167.594 84.148 170.569 84.1979 170.879C84.4683 172.619 86.3252 179.017 84.7316 187.781Z" fill="#222057"/>
<path d="M79.1754 133.137C79.1754 133.137 79.571 131.083 75.769 127.281C73.7561 126.61 70.2686 127.001 69.0595 127.281C63.4682 134.661 64.4693 133.359 63.0139 137.483C62.6296 138.41 62.4924 139.422 62.6155 140.418C63.2865 143.773 64.3757 160.993 64.1521 161.888C63.9284 162.783 62.3629 163.901 63.9284 163.901C65.494 163.901 85.6831 163.548 85.2358 162.877C84.7885 162.206 79.1754 133.137 79.1754 133.137Z" fill="#3F3D56"/>
<path d="M72.8693 125.991C76.4109 125.991 79.2819 123.12 79.2819 119.578C79.2819 116.037 76.4109 113.166 72.8693 113.166C69.3277 113.166 66.4567 116.037 66.4567 119.578C66.4567 123.12 69.3277 125.991 72.8693 125.991Z" fill="#FFB6B6"/>
<path d="M67.4364 122.003C67.4013 122.781 66.9139 123.451 66.5376 124.132C65.8814 125.347 65.5312 126.704 65.5175 128.084C65.5038 129.465 65.8268 130.829 66.4588 132.057C66.9822 133.049 67.707 133.935 68.1223 134.978C68.3222 135.419 68.4234 135.897 68.4189 136.381C68.4144 136.865 68.3043 137.341 68.0963 137.778C66.9723 136.696 66.4238 137.268 65.1474 136.323C65.6494 137.73 65.2215 137.776 65.7253 139.181C63.5591 139.8 61.392 140.42 59.2241 141.042C60.5551 139.961 61.495 138.474 61.8999 136.809C62.3048 135.143 62.1522 133.39 61.4657 131.82C60.6732 130.12 59.2567 128.72 58.741 126.914C58.4603 125.937 58.4654 124.9 58.7556 123.925C59.0458 122.951 59.609 122.08 60.3786 121.416C61.1483 120.751 62.0921 120.321 63.0984 120.176C64.1047 120.031 65.1315 120.178 66.0573 120.598C66.7861 120.39 67.4717 121.238 67.4364 122.003Z" fill="#222057"/>
<path d="M75.4908 112.391C74.6285 110.506 72.3531 110.89 70.2958 111.138C69.2685 111.297 68.2953 111.704 67.4605 112.323C66.6257 112.942 65.9546 113.756 65.5052 114.693C64.6259 116.593 64.4578 118.745 65.0315 120.758C65.3392 122.13 66.0737 123.368 67.1295 124.295C68.216 125.169 73.3236 127.235 73.7488 125.456C73.2172 127.778 71.8343 129.099 73.4171 130.879C74.237 128.416 77.7038 126.077 78.5237 123.614C78.6471 123.243 78.1403 118.886 78.2637 118.515C78.5239 117.734 78.7843 116.951 78.9723 116.149C79.2084 115.142 79.2993 113.987 78.6736 113.163C78.0479 112.339 76.4717 112.307 76.1555 113.292" fill="#222057"/>
<path d="M74.4584 120.233L74.1843 118.488C74.3706 116.318 74.0665 112.865 75.4909 112.391L76.3619 113.262C75.8109 113.445 74.763 116.691 74.4584 120.233Z" fill="#FF6584"/>
<path d="M136.926 239.101C136.926 239.168 136.913 239.235 136.887 239.297C136.861 239.359 136.824 239.415 136.776 239.463C136.729 239.51 136.672 239.548 136.61 239.573C136.548 239.599 136.482 239.612 136.415 239.612H16.0873C15.9518 239.612 15.8218 239.558 15.726 239.462C15.6302 239.366 15.5764 239.237 15.5764 239.101C15.5764 238.966 15.6302 238.836 15.726 238.74C15.8218 238.644 15.9518 238.59 16.0873 238.59H136.415C136.482 238.59 136.548 238.603 136.61 238.629C136.672 238.654 136.729 238.692 136.776 238.739C136.824 238.787 136.861 238.843 136.887 238.905C136.913 238.967 136.926 239.034 136.926 239.101Z" fill="#CCCCCC"/>
<path d="M199.915 207.352H111.48C109.659 207.352 107.912 208.076 106.623 209.364C105.335 210.652 104.612 212.399 104.612 214.221C104.612 216.042 105.335 217.789 106.623 219.078C107.912 220.366 109.659 221.089 111.48 221.089H199.915C201.737 221.089 203.484 220.366 204.772 219.078C206.06 217.789 206.784 216.042 206.784 214.221C206.784 212.399 206.06 210.652 204.772 209.364C203.484 208.076 201.737 207.352 199.915 207.352Z" fill="#E6E6E6"/>
</g>
<defs>
<clipPath id="clip0_323_536">
<rect width="310" height="239.612" fill="white" transform="translate(0.5)"/>
</clipPath>
</defs>
</svg>
