<svg width="311" height="218" viewBox="0 0 311 218" fill="none" xmlns="http://www.w3.org/2000/svg">
<g clip-path="url(#clip0_465_1637)">
<path d="M274.101 212.025L268.914 212.025L266.447 192.021L274.101 192.021L274.101 212.025Z" fill="#FFB8B8"/>
<path d="M275.423 217.052L258.701 217.052V216.84C258.701 215.114 259.386 213.458 260.607 212.238C261.828 211.017 263.483 210.331 265.209 210.331H265.21L275.424 210.332L275.423 217.052Z" fill="#2F2E41"/>
<path d="M296.99 199.275L293.624 203.22L276.805 192.112L281.774 186.29L296.99 199.275Z" fill="#FFB8B8"/>
<path d="M301.673 201.532L290.818 214.253L290.657 214.115C289.344 212.995 288.53 211.398 288.394 209.678C288.258 207.957 288.811 206.252 289.931 204.939L289.931 204.939L296.561 197.169L301.673 201.532Z" fill="#2F2E41"/>
<path d="M237.276 113.647L235.661 128.536L300.922 127.605L272.462 81.2315L249.224 80.3969L237.276 113.647Z" fill="#2F2E41"/>
<path opacity="0.28" d="M237.276 113.647L235.661 128.536L300.922 127.605L272.462 81.2315L249.224 80.3969L237.276 113.647Z" fill="black"/>
<path d="M250.109 116.204L247.805 129.827V142.004L266.381 148.067C266.381 148.067 264.206 195.365 267.105 198.377L267.034 205.649L275.138 206.018L275.204 200.9L278.64 162.645L280.663 134.558L277.382 113.263L250.109 116.204Z" fill="#2F2E41"/>
<path d="M264.501 127.93L247.805 142.004C247.805 142.004 246.828 167.395 249.309 170.372C251.44 172.93 279.159 194.99 279.159 194.99C279.159 194.99 284.086 199.509 286.847 199.581C289.608 199.653 292.819 193.862 292.819 193.862L286.425 189.004C286.425 189.004 269.86 173.543 264.942 167.395C262.957 164.913 262.957 164.665 262.957 164.665L263.635 154.346L270.459 135.195L264.501 127.93Z" fill="#2F2E41"/>
<path d="M246.775 60.5196L239.577 59.8544L233.047 60.9425L219.222 60.9469L218.044 70.9675L230.661 73.7909L233.735 72.284L246.552 77.1672L246.775 60.5196Z" fill="#FF8C04"/>
<path d="M255.372 60.4883C255.372 60.4883 270.649 59.0569 274.123 61.7864C277.597 64.5159 285.041 118.61 285.041 118.61L255.372 120.285L250.054 116.625L251.563 89.6192L255.372 60.4883Z" fill="#CCCCCC"/>
<path d="M260.036 60.1512L243.184 60.5211L227.473 131.514L239.88 134.243L260.036 60.1512Z" fill="#FF8C04"/>
<path d="M272.015 59.5513L285.289 63.7059L284.535 92.8745L300.922 127.748L281.658 129.777L266.431 92.1204L272.015 59.5513Z" fill="#FF8C04"/>
<path d="M293.904 131.29C294.37 130.88 294.739 130.373 294.988 129.805C295.236 129.237 295.357 128.622 295.342 128.002C295.326 127.382 295.175 126.773 294.899 126.218C294.623 125.663 294.229 125.175 293.743 124.789L296.414 115.473L291.148 112.469L287.562 125.678C286.967 126.536 286.708 127.582 286.833 128.619C286.958 129.655 287.459 130.609 288.241 131.301C289.022 131.993 290.031 132.374 291.074 132.372C292.118 132.37 293.125 131.985 293.904 131.29Z" fill="#FFB8B8"/>
<path d="M277.597 64.5159L285.452 63.8346C285.452 63.8346 292.503 71.2096 294.107 76.9198C295.711 82.6301 297.448 100.496 297.448 100.496L296.724 126.633L287.543 120.398L286.927 97.9171L277.597 64.5159Z" fill="#FF8C04"/>
<path d="M275.702 51.3791C278.652 45.9836 276.669 39.2185 271.273 36.269C265.878 33.3196 259.113 35.3025 256.163 40.6981C253.214 46.0937 255.197 52.8587 260.592 55.8082C265.988 58.7577 272.753 56.7747 275.702 51.3791Z" fill="#FFB8B8"/>
<path d="M264.691 41.3903C263.231 41.0528 261.714 41.4268 260.235 41.6693C258.755 41.9118 257.124 41.9917 255.873 41.1662C254.949 40.5565 254.38 39.5479 253.847 38.5778C253.624 38.2313 253.476 37.8424 253.411 37.4356C253.348 36.7181 253.805 36.0635 254.289 35.5307C256.541 33.056 259.831 31.7015 263.148 31.2712C265.885 30.8634 268.68 31.2048 271.238 32.259C273.756 33.3637 275.921 35.3866 276.912 37.9524C277.368 39.2655 277.653 40.632 277.759 42.0181C277.909 43.0378 277.928 44.0725 277.816 45.0971C277.683 45.8567 277.483 46.6032 277.219 47.3279L275.579 52.2807C275.461 52.7487 275.241 53.1848 274.934 53.5574C274.777 53.7399 274.564 53.8664 274.329 53.9181C274.093 53.9697 273.847 53.9436 273.628 53.8437C273.759 53.3057 273.779 52.7466 273.686 52.2007C273.635 51.9286 273.503 51.6781 273.308 51.4814C273.113 51.2848 272.864 51.1511 272.592 51.0975C271.988 51.0333 271.471 51.502 270.898 51.7038C270.635 51.7816 270.36 51.807 270.088 51.7784C269.816 51.7498 269.552 51.6679 269.311 51.5374C269.07 51.4068 268.858 51.2301 268.686 51.0174C268.513 50.8046 268.384 50.5601 268.307 50.2976C268.291 50.2447 268.277 50.1912 268.266 50.1372C268.175 49.5709 268.327 48.9647 268.113 48.433C267.861 47.81 267.194 47.4835 266.694 47.0359C266.236 46.614 265.909 46.0704 265.75 45.469C265.592 44.8676 265.608 44.2334 265.797 43.6409C265.931 43.2287 266.31 43.0413 266.234 42.5678C266.135 41.9465 265.219 41.5122 264.691 41.3903Z" fill="#2F2E41"/>
<path d="M140.907 88.4554H0.339783V0.520874H140.907V88.4554Z" fill="white"/>
<path d="M140.907 88.4554H0.339783V0.520874H140.907V88.4554ZM0.981642 87.8135H140.265V1.16273H0.981642V87.8135Z" fill="#3F3D56"/>
<path d="M123.737 210.248H43.5047V122.313H123.737V210.248Z" fill="white"/>
<path d="M123.737 210.248H43.5047V122.313H123.737V210.248ZM44.1466 209.606H123.095V122.955H44.1466V209.606Z" fill="#3F3D56"/>
<path d="M112.825 201.943H96.137V202.619H112.825V201.943Z" fill="#3F3D56"/>
<path d="M112.825 203.972H96.137V204.649H112.825V203.972Z" fill="#3F3D56"/>
<path d="M112.825 206.002H96.137V206.679H112.825V206.002Z" fill="#3F3D56"/>
<path d="M83.6208 138.039V145.099C87.8101 145.099 91.9052 146.342 95.3885 148.669C98.8717 150.996 101.587 154.305 103.19 158.175C104.793 162.045 105.212 166.304 104.395 170.413C103.578 174.522 101.56 178.296 98.5982 181.258L103.591 186.251C107.54 182.301 110.23 177.269 111.32 171.79C112.41 166.312 111.85 160.634 109.713 155.473C107.575 150.313 103.955 145.902 99.3111 142.799C94.6667 139.695 89.2065 138.039 83.6208 138.039Z" fill="#E6E6E6"/>
<path d="M103.591 186.251L98.5983 181.258C94.9769 184.88 90.1656 187.067 85.0555 187.413C79.9454 187.76 74.8829 186.243 70.8058 183.142L66.5324 188.765C71.9694 192.898 78.7197 194.92 85.5332 194.458C92.3467 193.995 98.7618 191.08 103.591 186.251Z" fill="#575A89"/>
<path d="M62.4395 166.281C62.4395 163.499 62.9874 160.745 64.0519 158.175C65.1163 155.605 66.6765 153.27 68.6434 151.303C70.6103 149.336 72.9453 147.776 75.5151 146.712C78.0849 145.647 80.8393 145.099 83.6208 145.099V138.039C77.7087 138.039 71.9457 139.894 67.1441 143.343C62.3424 146.793 58.7443 151.662 56.8569 157.264C54.9695 162.867 54.888 168.921 56.6238 174.572C58.3597 180.224 61.8254 185.188 66.5324 188.765L70.8059 183.142C68.2039 181.169 66.0944 178.619 64.6429 175.694C63.1913 172.768 62.4372 169.546 62.4395 166.281Z" fill="#FF8C04"/>
<path d="M242.481 155.69H162.248V67.7555H242.481V155.69Z" fill="white"/>
<path d="M242.481 155.69H162.248V67.7555H242.481V155.69ZM162.89 155.048H241.839V68.3974H162.89V155.048Z" fill="#3F3D56"/>
<path d="M188.244 121.511H173.802V144.618H188.244V121.511Z" fill="#575A89"/>
<path d="M209.104 105.786H194.662V144.618H209.104V105.786Z" fill="#E6E6E6"/>
<path d="M229.964 87.4927H215.523V144.618H229.964V87.4927Z" fill="#FF8C04"/>
<path d="M234.778 145.26H169.951V78.1857H170.592V144.618H234.778V145.26Z" fill="#3F3D56"/>
<path d="M219.149 70.0965C221.59 70.0965 223.569 68.1175 223.569 65.6763C223.569 63.2351 221.59 61.2561 219.149 61.2561C216.707 61.2561 214.728 63.2351 214.728 65.6763C214.728 68.1175 216.707 70.0965 219.149 70.0965Z" fill="#FFB8B8"/>
<path d="M309.971 217.479H241.09C240.992 217.479 240.899 217.44 240.829 217.371C240.76 217.302 240.722 217.209 240.722 217.111C240.722 217.013 240.76 216.92 240.829 216.85C240.899 216.781 240.992 216.743 241.09 216.743H309.971C310.069 216.743 310.163 216.781 310.232 216.85C310.301 216.92 310.34 217.013 310.34 217.111C310.34 217.209 310.301 217.302 310.232 217.371C310.163 217.44 310.069 217.479 309.971 217.479Z" fill="#CCCCCC"/>
<path d="M121.385 70.0649H19.8612C19.7769 70.0648 19.6961 70.0314 19.6365 69.9718C19.5769 69.9122 19.5435 69.8314 19.5435 69.7471V21.0866C19.5435 21.0024 19.5769 20.9216 19.6365 20.862C19.6961 20.8024 19.7769 20.7689 19.8612 20.7689C19.9454 20.7689 20.0263 20.8024 20.0858 20.862C20.1454 20.9216 20.1789 21.0024 20.1789 21.0866V69.4294H121.385C121.427 69.4293 121.468 69.4374 121.507 69.4533C121.546 69.4692 121.581 69.4926 121.611 69.5221C121.64 69.5516 121.664 69.5867 121.68 69.6253C121.696 69.6639 121.704 69.7053 121.704 69.7471C121.704 69.7889 121.696 69.8303 121.68 69.869C121.664 69.9076 121.64 69.9427 121.611 69.9722C121.581 70.0017 121.546 70.0251 121.507 70.041C121.468 70.0569 121.427 70.065 121.385 70.0649Z" fill="#3F3D56"/>
<path d="M41.5524 66.5699H32.3184C32.0684 66.5696 31.8286 66.4702 31.6518 66.2934C31.475 66.1166 31.3755 65.8769 31.3752 65.6268V52.8977C31.3755 52.6476 31.475 52.4079 31.6518 52.2311C31.8286 52.0543 32.0684 51.9549 32.3184 51.9546H41.5524C41.8025 51.9549 42.0422 52.0543 42.219 52.2311C42.3958 52.4079 42.4953 52.6476 42.4956 52.8977V65.6268C42.4953 65.8769 42.3958 66.1166 42.219 66.2934C42.0422 66.4702 41.8025 66.5696 41.5524 66.5699Z" fill="#FF8C04"/>
<path d="M58.3918 66.5699H49.1578C48.9077 66.5696 48.668 66.4702 48.4912 66.2934C48.3144 66.1166 48.2149 65.8769 48.2146 65.6268V40.8242C48.2149 40.5741 48.3144 40.3344 48.4912 40.1576C48.668 39.9808 48.9077 39.8814 49.1578 39.8811H58.3918C58.6418 39.8814 58.8815 39.9808 59.0583 40.1576C59.2352 40.3344 59.3346 40.5741 59.3349 40.8242V65.6268C59.3346 65.8769 59.2352 66.1166 59.0583 66.2934C58.8815 66.4702 58.6418 66.5696 58.3918 66.5699Z" fill="#FF8C04"/>
<path d="M75.2312 66.5699H65.9972C65.7471 66.5696 65.5074 66.4702 65.3306 66.2934C65.1538 66.1166 65.0543 65.8769 65.054 65.6268V52.8977C65.0543 52.6476 65.1538 52.4079 65.3306 52.2311C65.5074 52.0543 65.7471 51.9549 65.9972 51.9546H75.2312C75.4812 51.9549 75.721 52.0543 75.8978 52.2311C76.0746 52.4079 76.1741 52.6476 76.1744 52.8977V65.6268C76.1741 65.8769 76.0746 66.1166 75.8978 66.2934C75.721 66.4702 75.4812 66.5696 75.2312 66.5699Z" fill="#FF8C04"/>
<path d="M92.0705 66.5699H82.8365C82.5922 66.5751 82.3557 66.4833 82.1789 66.3146C82.0021 66.1458 81.8995 65.9138 81.8934 65.6695V36.0156C81.8995 35.7712 82.0021 35.5393 82.1789 35.3705C82.3557 35.2018 82.5922 35.1099 82.8365 35.1152H92.0705C92.3149 35.1099 92.5514 35.2018 92.7282 35.3705C92.9049 35.5393 93.0076 35.7712 93.0137 36.0156V65.6695C93.0076 65.9138 92.9049 66.1458 92.7282 66.3146C92.5514 66.4833 92.3149 66.5751 92.0705 66.5699Z" fill="#FF8C04"/>
<path d="M108.91 66.57H99.6759C99.4258 66.5697 99.1861 66.4702 99.0093 66.2934C98.8325 66.1166 98.733 65.8769 98.7327 65.6269V27.4798C98.733 27.2298 98.8325 26.9901 99.0093 26.8133C99.1861 26.6365 99.4258 26.537 99.6759 26.5367H108.91C109.16 26.537 109.4 26.6365 109.576 26.8133C109.753 26.9901 109.853 27.2298 109.853 27.4798V65.6269C109.853 65.8769 109.753 66.1166 109.576 66.2934C109.4 66.4702 109.16 66.5697 108.91 66.57Z" fill="#FF8C04"/>
<path d="M36.9354 48.1419C37.9882 48.1419 38.8417 47.2884 38.8417 46.2356C38.8417 45.1827 37.9882 44.3292 36.9354 44.3292C35.8826 44.3292 35.0291 45.1827 35.0291 46.2356C35.0291 47.2884 35.8826 48.1419 36.9354 48.1419Z" fill="#3F3D56"/>
<path d="M53.7748 35.7507C54.8277 35.7507 55.6812 34.8972 55.6812 33.8443C55.6812 32.7915 54.8277 31.938 53.7748 31.938C52.722 31.938 51.8685 32.7915 51.8685 33.8443C51.8685 34.8972 52.722 35.7507 53.7748 35.7507Z" fill="#3F3D56"/>
<path d="M70.6142 48.1419C71.667 48.1419 72.5205 47.2884 72.5205 46.2356C72.5205 45.1827 71.667 44.3292 70.6142 44.3292C69.5613 44.3292 68.7078 45.1827 68.7078 46.2356C68.7078 47.2884 69.5613 48.1419 70.6142 48.1419Z" fill="#3F3D56"/>
<path d="M87.4535 29.7139C88.5064 29.7139 89.3599 28.8604 89.3599 27.8076C89.3599 26.7547 88.5064 25.9012 87.4535 25.9012C86.4007 25.9012 85.5472 26.7547 85.5472 27.8076C85.5472 28.8604 86.4007 29.7139 87.4535 29.7139Z" fill="#3F3D56"/>
<path d="M104.293 22.7241C105.346 22.7241 106.199 21.8706 106.199 20.8177C106.199 19.7649 105.346 18.9114 104.293 18.9114C103.24 18.9114 102.387 19.7649 102.387 20.8177C102.387 21.8706 103.24 22.7241 104.293 22.7241Z" fill="#3F3D56"/>
<path d="M70.6542 46.6626L53.7749 34.0197L37.1258 46.4898L36.7449 45.9811L53.7749 33.2255L70.5739 45.8084L87.2679 27.5401L87.3349 27.5128L104.174 20.7278L104.412 21.3175L87.6392 28.0753L70.6542 46.6626Z" fill="#3F3D56"/>
</g>
<defs>
<clipPath id="clip0_465_1637">
<rect width="310" height="216.958" fill="white" transform="translate(0.339783 0.520874)"/>
</clipPath>
</defs>
</svg>
