<svg width="311" height="246" viewBox="0 0 311 246" fill="none" xmlns="http://www.w3.org/2000/svg">
<g clip-path="url(#clip0_323_247)">
<path d="M310.5 5.63812H124.591V93.855H310.5V5.63812Z" fill="#E6E6E6"/>
<path d="M305.184 13.2029H129.907V86.805H305.184V13.2029Z" fill="white"/>
<path d="M310.421 0.541321H124.512V8.43928H310.421V0.541321Z" fill="#FF8C04"/>
<path d="M130.381 6.64933C131.19 6.64933 131.845 5.99394 131.845 5.18548C131.845 4.37701 131.19 3.72162 130.381 3.72162C129.573 3.72162 128.917 4.37701 128.917 5.18548C128.917 5.99394 129.573 6.64933 130.381 6.64933Z" fill="white"/>
<path d="M135.937 6.64933C136.746 6.64933 137.401 5.99394 137.401 5.18548C137.401 4.37701 136.746 3.72162 135.937 3.72162C135.129 3.72162 134.474 4.37701 134.474 5.18548C134.474 5.99394 135.129 6.64933 135.937 6.64933Z" fill="white"/>
<path d="M141.494 6.64933C142.303 6.64933 142.958 5.99394 142.958 5.18548C142.958 4.37701 142.303 3.72162 141.494 3.72162C140.686 3.72162 140.03 4.37701 140.03 5.18548C140.03 5.99394 140.686 6.64933 141.494 6.64933Z" fill="white"/>
<path d="M263.92 25.1128H234.779V74.8959H263.92V25.1128Z" fill="#F2F2F2"/>
<path d="M229.951 25.1119H171.171V38.8153H229.951V25.1119Z" fill="#FF8C04"/>
<path d="M229.951 42.6315H171.171V57.3756H229.951V42.6315Z" fill="#F2F2F2"/>
<path d="M229.951 61.1917H171.171V74.8951H229.951V61.1917Z" fill="#F2F2F2"/>
<path d="M89.197 147.74C89.2026 146.731 88.995 145.732 88.5876 144.808C88.1802 143.885 87.5824 143.058 86.8332 142.382C86.084 141.706 85.2004 141.195 84.2403 140.885C83.2802 140.574 82.2652 140.469 81.2618 140.578C80.9444 140.614 80.6298 140.672 80.3204 140.751L56.0757 119.97L57.5245 112.16L45.5747 108.288L41.9718 120.803C41.5456 122.304 41.615 123.904 42.1698 125.363C42.7246 126.823 43.7351 128.064 45.0514 128.904L74.8765 147.768C74.8767 148.002 74.8889 148.237 74.9131 148.47C75.0221 149.474 75.3418 150.443 75.8513 151.314C76.3609 152.185 77.0488 152.939 77.8699 153.526C78.6911 154.113 79.627 154.519 80.6164 154.719C81.6057 154.919 82.6261 154.908 83.6107 154.686C83.8969 154.623 84.1788 154.541 84.4548 154.442C85.8352 153.943 87.0296 153.033 87.8774 151.835C88.7252 150.637 89.1858 149.208 89.197 147.74Z" fill="#9F616A"/>
<path d="M28.9219 171.842H60.1811C60.1811 172.74 92.3977 173.47 92.3977 173.47C92.9033 173.85 93.3642 174.287 93.7714 174.772C94.9951 176.231 95.6639 178.076 95.6599 179.981V181.283C95.6591 183.441 94.8013 185.511 93.2752 187.037C91.749 188.563 89.6794 189.421 87.5211 189.422H28.9219C26.7639 189.42 24.6949 188.562 23.1689 187.036C21.643 185.51 20.785 183.441 20.7831 181.283V179.981C20.7861 177.823 21.6445 175.755 23.1702 174.229C24.6958 172.703 26.7642 171.845 28.9219 171.842Z" fill="#3F3D56"/>
<path d="M62.9248 189.098H54.4604V243.791H62.9248V189.098Z" fill="#3F3D56"/>
<path d="M87.0156 244.471C87.0156 245.495 74.1892 244.867 58.3671 244.867C42.5449 244.867 29.7186 245.495 29.7186 244.471C29.7186 243.447 42.5449 235.327 58.3671 235.327C74.1892 235.327 87.0156 243.447 87.0156 244.471Z" fill="#3F3D56"/>
<path d="M79.3747 237.083L87.3565 237.083L91.1542 216.379L79.3731 216.38L79.3747 237.083Z" fill="#9F616A"/>
<path d="M77.3386 244.821L103.077 244.82V244.494C103.077 243.179 102.818 241.876 102.315 240.66C101.811 239.445 101.073 238.341 100.143 237.41C99.2127 236.48 98.1084 235.742 96.8929 235.239C95.6775 234.735 94.3748 234.476 93.0593 234.476H93.0582L77.3381 234.477L77.3386 244.821Z" fill="#222057"/>
<path d="M91.3134 224.245L107.227 188.559C108.556 185.552 108.702 182.154 107.638 179.043C106.574 175.931 104.377 173.335 101.485 171.771L66.9679 153.262L51.217 151.922L36.6879 150.601L36.5831 150.779C36.4491 151.005 33.3252 156.401 35.4368 162.317C37.0386 166.805 41.2049 170.311 47.82 172.736C63.2605 178.398 81.0973 183.237 88.0493 185.054C88.3565 185.133 88.6437 185.275 88.8918 185.473C89.1399 185.67 89.3435 185.918 89.489 186.2C89.6349 186.478 89.7216 186.784 89.7436 187.098C89.7656 187.411 89.7224 187.726 89.6168 188.022L74.8325 221.238C74.6781 221.659 74.6225 222.11 74.6701 222.556C74.7176 223.003 74.8669 223.432 75.1065 223.811C75.3462 224.19 75.6698 224.51 76.0523 224.744C76.4348 224.979 76.8661 225.122 77.3128 225.164L88.3598 225.968C88.4536 225.977 88.5469 225.981 88.6399 225.981C89.2056 225.981 89.7592 225.817 90.2337 225.509C90.7082 225.201 91.0832 224.762 91.3134 224.245Z" fill="#CBCBCB"/>
<path d="M74.1656 237.083L82.1475 237.083L85.9455 216.379L74.1644 216.38L74.1656 237.083Z" fill="#9F616A"/>
<path d="M72.1298 244.821L97.8682 244.82V244.494C97.8682 243.179 97.6091 241.876 97.1057 240.66C96.6023 239.445 95.8644 238.341 94.9342 237.41C94.0039 236.48 92.8995 235.742 91.6841 235.239C90.4687 234.735 89.166 234.476 87.8505 234.476H87.8494L72.1293 234.477L72.1298 244.821Z" fill="#222057"/>
<path d="M85.4535 226.198L101.367 190.513C102.696 187.505 102.843 184.107 101.779 180.996C100.714 177.885 98.5175 175.289 95.6252 173.724L61.1081 155.215L45.3571 153.875L33.9772 152.888L33.9787 152.732C33.8447 152.959 30.7208 158.354 32.8325 164.271C34.4342 168.759 35.345 172.264 41.9601 174.69C57.4006 180.351 75.2374 185.19 82.1894 187.007C82.4967 187.086 82.7838 187.229 83.0319 187.426C83.2801 187.624 83.4836 187.871 83.6291 188.153C83.775 188.432 83.8617 188.737 83.8837 189.051C83.9057 189.365 83.8625 189.679 83.7569 189.975L68.9727 223.191C68.8183 223.612 68.7627 224.064 68.8102 224.51C68.8577 224.956 69.007 225.385 69.2467 225.764C69.4863 226.144 69.8099 226.463 70.1924 226.697C70.5749 226.932 71.0062 227.075 71.4529 227.117L82.4999 227.921C82.5937 227.93 82.687 227.935 82.78 227.935C83.3457 227.934 83.8993 227.77 84.3738 227.462C84.8483 227.154 85.2233 226.715 85.4535 226.198Z" fill="#CBCBCB"/>
<path d="M55.4636 153.539C56.2266 153 67.1834 158.748 69.1367 154.19C60.0213 131.402 66.3028 121.561 60.7192 108.493C59.7357 106.239 58.2541 104.238 56.3859 102.638C54.5176 101.039 52.3111 99.8845 49.9324 99.2608L35.4457 98.5295L35.3707 98.5658C32.1016 100.167 29.4356 102.779 27.768 106.015C26.1003 109.25 25.5198 112.937 26.1124 116.529C26.164 130.751 34.6734 141.598 31.698 151.914C31.5732 152.345 31.5368 152.797 31.591 153.242C31.6451 153.688 31.7887 154.118 32.0131 154.507C32.2306 154.883 32.5229 155.21 32.8718 155.469C33.2207 155.727 33.6188 155.912 34.0417 156.011L53.1701 153.459C53.617 153.565 54.0813 153.575 54.5323 153.488C54.9832 153.401 55.4104 153.218 55.7853 152.953L55.4636 153.539Z" fill="#222057"/>
<path d="M40.2803 93.1187C49.1123 93.1187 56.2721 85.9589 56.2721 77.1269C56.2721 68.2949 49.1123 61.1352 40.2803 61.1352C31.4483 61.1352 24.2886 68.2949 24.2886 77.1269C24.2886 85.9589 31.4483 93.1187 40.2803 93.1187Z" fill="#9F616A"/>
<path d="M35.1866 91.8053C36.0362 92.1771 37.7762 85.4067 36.9968 84.0526C35.8377 82.0388 35.9062 82.0532 35.1367 80.7209C34.3672 79.3886 34.1951 77.5649 35.1915 76.3926C36.188 75.2203 38.4939 75.3758 38.9487 76.8457C38.6561 74.0539 41.4176 71.8097 44.1529 71.179C46.8882 70.5484 49.7735 70.9399 52.5239 70.3787C55.7159 69.7274 59.037 67.0518 57.7635 63.5417C57.5449 62.9573 57.2177 62.4196 56.7991 61.9569C55.3277 60.3024 53.2694 59.596 51.2569 58.9129C47.0703 57.4919 42.7691 56.0531 38.3507 56.2099C31.0909 56.4677 24.2285 61.4862 21.7826 68.3265C21.4781 69.1799 21.2422 70.0564 21.0771 70.9474C19.5606 79.1019 24.296 87.1455 31.9872 90.2507L35.1866 91.8053Z" fill="#222057"/>
<path d="M119.05 117.521L120.884 128.41C120.904 128.532 120.891 128.656 120.845 128.771L106.458 164.719C106.401 164.862 106.297 164.98 106.163 165.055C106.03 165.13 105.874 165.157 105.723 165.131C105.572 165.105 105.434 165.028 105.333 164.913C105.231 164.798 105.173 164.652 105.166 164.499L104.557 150.052C104.553 149.957 104.569 149.861 104.605 149.772L117.768 117.38C117.823 117.245 117.921 117.132 118.046 117.057C118.171 116.982 118.318 116.95 118.463 116.966C118.608 116.982 118.743 117.045 118.849 117.145C118.955 117.245 119.026 117.377 119.05 117.521Z" fill="#3F3D56"/>
<path d="M118.032 118.357L119.774 127.712L107.007 160.516L105.349 149.964L118.032 118.357Z" fill="#FF8C04"/>
<path d="M62.1718 164.552C62.4859 165.779 103.729 167.106 104.157 166.735C104.54 166.26 104.873 165.745 105.149 165.2C105.581 164.428 105.981 163.654 105.981 163.654L105.303 150.611L64.6758 146.269C64.6758 146.269 62.8784 157.154 62.3141 162.154C62.1867 162.947 62.139 163.75 62.1718 164.552Z" fill="#3F3D56"/>
<path opacity="0.1" d="M99.9877 151.991L99.9913 163.228L82.022 161.95L82.8171 150.77L99.9877 151.991Z" fill="black"/>
<path opacity="0.1" d="M76.5719 153.937L76.6806 153.924L75.8321 158.701L65.849 157.991L66.1898 153.199L76.5719 153.937Z" fill="black"/>
<path opacity="0.1" d="M62.1718 164.552C62.4859 165.779 103.729 167.106 104.157 166.735C104.54 166.26 104.873 165.745 105.149 165.2L62.3141 162.154C62.1867 162.947 62.139 163.75 62.1718 164.552Z" fill="black"/>
<path d="M45.6111 145.074L80.4014 151.567C80.4884 151.785 80.5866 151.998 80.6955 152.206C81.1683 153.095 81.8228 153.875 82.6167 154.495C83.4105 155.115 84.3259 155.561 85.3033 155.804C86.2847 156.05 87.3074 156.085 88.3031 155.904C89.2988 155.724 90.2445 155.333 91.0768 154.757C92.5846 153.722 93.6393 152.15 94.0247 150.362C94.4102 148.574 94.0972 146.707 93.1499 145.142C92.2026 143.578 90.6928 142.435 88.93 141.948C87.1672 141.461 85.2848 141.667 83.6688 142.523C83.3873 142.674 83.1167 142.844 82.8588 143.033L52.6409 132.71L51.0943 124.92L38.56 125.749L39.8588 138.809C40.0164 140.333 40.6611 141.765 41.6973 142.894C42.7336 144.023 44.106 144.787 45.6111 145.074Z" fill="#9F616A"/>
<path d="M38.1354 131.574L56.3486 125.588L52.1 113.389C51.5359 111.769 50.4173 110.401 48.9419 109.526C47.4665 108.651 45.7294 108.326 44.0375 108.608C42.3259 108.893 40.7728 109.781 39.6586 111.111C38.5444 112.442 37.9425 114.126 37.9617 115.861L38.1354 131.574Z" fill="#222057"/>
<path d="M153.673 245.459H0.900976C0.79463 245.459 0.69264 245.416 0.617443 245.341C0.542245 245.266 0.5 245.164 0.5 245.058C0.5 244.951 0.542245 244.849 0.617443 244.774C0.69264 244.699 0.79463 244.657 0.900976 244.657H153.673C153.779 244.657 153.881 244.699 153.956 244.774C154.031 244.849 154.074 244.951 154.074 245.058C154.074 245.164 154.031 245.266 153.956 245.341C153.881 245.416 153.779 245.459 153.673 245.459Z" fill="#CBCBCB"/>
<path d="M213.1 232.825C220.427 236.618 223.685 244.874 223.685 244.874C223.685 244.874 215.063 246.983 207.736 243.19C200.409 239.398 197.151 231.142 197.151 231.142C197.151 231.142 205.773 229.033 213.1 232.825Z" fill="#F1F1F1"/>
<path d="M210.757 235.557C215.129 242.553 223.623 245.133 223.623 245.133C223.623 245.133 225.026 236.368 220.654 229.372C216.281 222.375 207.788 219.796 207.788 219.796C207.788 219.796 206.384 228.56 210.757 235.557Z" fill="#F1F1F1"/>
<path d="M237.076 245.3H191.364C191.258 245.3 191.156 245.257 191.081 245.182C191.006 245.107 190.963 245.005 190.963 244.899C190.963 244.792 191.006 244.69 191.081 244.615C191.156 244.54 191.258 244.498 191.364 244.498H237.076C237.182 244.498 237.284 244.54 237.359 244.615C237.434 244.69 237.477 244.792 237.477 244.899C237.477 245.005 237.434 245.107 237.359 245.182C237.284 245.257 237.182 245.3 237.076 245.3Z" fill="#CBCBCB"/>
</g>
<defs>
<clipPath id="clip0_323_247">
<rect width="310" height="244.917" fill="white" transform="translate(0.5 0.541321)"/>
</clipPath>
</defs>
</svg>
