<svg width="311" height="172" viewBox="0 0 311 172" fill="none" xmlns="http://www.w3.org/2000/svg">
<g clip-path="url(#clip0_518_384)">
<path d="M197.604 147.184H26.9203C25.9212 147.183 24.9634 146.786 24.257 146.079C23.5505 145.373 23.1531 144.415 23.152 143.416V44.0506C23.1531 43.0515 23.5505 42.0936 24.2569 41.3872C24.9634 40.6807 25.9212 40.2833 26.9203 40.2822H197.604C198.603 40.2834 199.561 40.6808 200.267 41.3872C200.974 42.0937 201.371 43.0515 201.372 44.0506V143.416C201.371 144.415 200.974 145.373 200.267 146.079C199.561 146.786 198.603 147.183 197.604 147.184Z" fill="#E6E6E6"/>
<path d="M208.244 161.091H16.2803V34.0756C16.2815 32.9589 16.7257 31.8884 17.5152 31.0989C18.3048 30.3093 19.3753 29.8652 20.4919 29.8639H204.032C205.149 29.8652 206.219 30.3093 207.009 31.0989C207.798 31.8884 208.243 32.9589 208.244 34.0756V161.091ZM17.1669 160.204H207.357V34.0756C207.356 33.194 207.006 32.3488 206.382 31.7255C205.759 31.1021 204.914 30.7515 204.032 30.7506H20.4919C19.6104 30.7515 18.7652 31.1021 18.1419 31.7255C17.5185 32.3488 17.1679 33.194 17.1669 34.0756V160.204Z" fill="#CCCCCC"/>
<path d="M112.262 37.1789C113.241 37.1789 114.035 36.3849 114.035 35.4055C114.035 34.4262 113.241 33.6322 112.262 33.6322C111.283 33.6322 110.489 34.4262 110.489 35.4055C110.489 36.3849 111.283 37.1789 112.262 37.1789Z" fill="#E6E6E6"/>
<path d="M155.044 126.097H69.4804C68.4813 126.096 67.5235 125.698 66.817 124.992C66.1106 124.285 65.7132 123.327 65.712 122.328V65.1383C65.7132 64.1393 66.1106 63.1814 66.817 62.475C67.5235 61.7685 68.4813 61.3711 69.4804 61.37H155.044C156.043 61.3712 157.001 61.7686 157.707 62.475C158.414 63.1815 158.811 64.1393 158.812 65.1383V122.328C158.811 123.327 158.414 124.285 157.707 124.992C157.001 125.698 156.043 126.096 155.044 126.097Z" fill="white"/>
<path d="M83.5562 85.7531C82.8547 85.7531 82.169 85.5451 81.5858 85.1554C81.0025 84.7657 80.5479 84.2118 80.2795 83.5637C80.0111 82.9156 79.9408 82.2025 80.0777 81.5145C80.2145 80.8265 80.5523 80.1946 81.0483 79.6986C81.5443 79.2026 82.1763 78.8648 82.8643 78.7279C83.5523 78.5911 84.2654 78.6613 84.9134 78.9298C85.5615 79.1982 86.1154 79.6528 86.5051 80.236C86.8949 80.8193 87.1029 81.505 87.1029 82.2065C87.1018 83.1468 86.7278 84.0482 86.0629 84.7131C85.398 85.378 84.4965 85.752 83.5562 85.7531Z" fill="#CCCCCC"/>
<path d="M83.5562 97.2799C82.8547 97.2799 82.169 97.0718 81.5858 96.6821C81.0025 96.2924 80.5479 95.7385 80.2795 95.0904C80.0111 94.4424 79.9408 93.7293 80.0777 93.0413C80.2145 92.3533 80.5523 91.7213 81.0483 91.2253C81.5443 90.7293 82.1763 90.3915 82.8643 90.2547C83.5523 90.1178 84.2654 90.188 84.9134 90.4565C85.5615 90.7249 86.1154 91.1795 86.5051 91.7628C86.8949 92.346 87.1029 93.0317 87.1029 93.7332C87.1018 94.6735 86.7278 95.575 86.0629 96.2399C85.398 96.9048 84.4965 97.2788 83.5562 97.2799Z" fill="#FF8C04"/>
<path d="M83.5562 108.806C82.8547 108.806 82.169 108.598 81.5858 108.209C81.0025 107.819 80.5479 107.265 80.2795 106.617C80.0111 105.969 79.9408 105.256 80.0777 104.568C80.2145 103.88 80.5523 103.248 81.0483 102.752C81.5443 102.256 82.1763 101.918 82.8643 101.781C83.5523 101.644 84.2654 101.715 84.9134 101.983C85.5615 102.252 86.1154 102.706 86.5051 103.289C86.8949 103.873 87.1029 104.558 87.1029 105.26C87.1018 106.2 86.7278 107.102 86.0629 107.766C85.398 108.431 84.4965 108.805 83.5562 108.806Z" fill="#FF8C04"/>
<path d="M100.403 79.3248C99.6386 79.3248 98.9057 79.6284 98.3653 80.1689C97.8248 80.7093 97.5212 81.4422 97.5212 82.2065C97.5212 82.9708 97.8248 83.7037 98.3653 84.2441C98.9057 84.7846 99.6386 85.0882 100.403 85.0882H141.633C142.397 85.0882 143.13 84.7846 143.671 84.2441C144.211 83.7037 144.515 82.9708 144.515 82.2065C144.515 81.4422 144.211 80.7093 143.671 80.1689C143.13 79.6284 142.397 79.3248 141.633 79.3248H100.403Z" fill="#CCCCCC"/>
<path d="M100.403 90.8514C99.6386 90.8514 98.9057 91.155 98.3653 91.6955C97.8248 92.2359 97.5212 92.9688 97.5212 93.7331C97.5212 94.4974 97.8248 95.2303 98.3653 95.7708C98.9057 96.3112 99.6386 96.6148 100.403 96.6148H141.633C142.397 96.6148 143.13 96.3112 143.671 95.7708C144.211 95.2303 144.515 94.4974 144.515 93.7331C144.515 92.9688 144.211 92.2359 143.671 91.6955C143.13 91.155 142.397 90.8514 141.633 90.8514H100.403Z" fill="#FF8C04"/>
<path d="M100.403 102.378C99.6386 102.378 98.9057 102.682 98.3653 103.222C97.8248 103.763 97.5212 104.496 97.5212 105.26C97.5212 106.024 97.8248 106.757 98.3653 107.297C98.9057 107.838 99.6386 108.142 100.403 108.142H141.633C142.397 108.142 143.13 107.838 143.671 107.297C144.211 106.757 144.515 106.024 144.515 105.26C144.515 104.496 144.211 103.763 143.671 103.222C143.13 102.682 142.397 102.378 141.633 102.378H100.403Z" fill="#FF8C04"/>
<path d="M294.378 166.665L288.944 166.574L286.71 145.569L294.731 145.704L294.378 166.665Z" fill="#FFB8B8"/>
<path d="M285.088 164.956L295.569 165.132L295.458 171.731L278.379 171.444C278.393 170.577 278.578 169.722 278.923 168.927C279.268 168.132 279.767 167.412 280.39 166.81C281.013 166.208 281.748 165.734 282.555 165.415C283.361 165.097 284.222 164.941 285.088 164.956Z" fill="#2F2E41"/>
<path d="M240.448 166.615L235.41 164.576L240.879 144.173L248.314 147.183L240.448 166.615Z" fill="#FFB8B8"/>
<path d="M232.394 161.68L242.11 165.613L239.634 171.731L223.8 165.321C224.457 163.699 225.731 162.404 227.343 161.721C228.955 161.038 230.771 161.023 232.394 161.68Z" fill="#2F2E41"/>
<path d="M258.613 88.0164L242.653 130.133L236.003 159.393L243.096 162.94L275.46 99.9865L287.43 163.162H294.523C294.523 163.162 297.767 88.2317 293.042 82.3607L258.613 88.0164Z" fill="#2F2E41"/>
<path d="M238.827 134.129C245.725 134.129 251.316 128.537 251.316 121.639C251.316 114.741 245.725 109.15 238.827 109.15C231.929 109.15 226.337 114.741 226.337 121.639C226.337 128.537 231.929 134.129 238.827 134.129Z" fill="#FF8C04"/>
<path d="M237.786 127.162L233.822 122.065L236.127 120.272L238.004 122.685L244.345 115.992L246.465 118.001L237.786 127.162Z" fill="white"/>
<path d="M266.371 29.718C274.451 29.718 281.001 23.168 281.001 15.088C281.001 7.00809 274.451 0.458008 266.371 0.458008C258.291 0.458008 251.741 7.00809 251.741 15.088C251.741 23.168 258.291 29.718 266.371 29.718Z" fill="#2F2E41"/>
<path d="M245.954 114.642C246.577 114.332 247.125 113.889 247.559 113.344C247.992 112.8 248.301 112.166 248.464 111.489C248.626 110.812 248.638 110.108 248.499 109.426C248.359 108.743 248.072 108.1 247.657 107.541L258.755 46.1215L248.399 45.985L240.692 106.721C239.799 107.48 239.215 108.541 239.051 109.701C238.888 110.862 239.156 112.043 239.804 113.019C240.453 113.995 241.437 114.7 242.571 114.999C243.704 115.298 244.908 115.171 245.954 114.642Z" fill="#FFB8B8"/>
<path d="M309.55 102.646C309.941 102.05 310.193 101.374 310.288 100.667C310.383 99.9608 310.319 99.242 310.099 98.5638C309.879 97.8856 309.51 97.2654 309.018 96.7489C308.527 96.2324 307.926 95.8328 307.26 95.5795L287.442 47.4423C286.957 46.2643 286.221 45.206 285.286 44.3412C284.35 43.4763 283.238 42.8257 282.025 42.4346C280.813 42.0434 279.529 41.9211 278.265 42.0762C277 42.2313 275.785 42.66 274.703 43.3326L300.951 98.6434C300.613 99.7481 300.685 100.938 301.155 101.993C301.625 103.049 302.461 103.899 303.509 104.386C304.556 104.874 305.745 104.966 306.855 104.646C307.965 104.327 308.922 103.616 309.55 102.646Z" fill="#FFB8B8"/>
<path d="M266.661 31.4888C272.675 31.4888 277.55 26.6137 277.55 20.6C277.55 14.5864 272.675 9.7113 266.661 9.7113C260.647 9.7113 255.772 14.5864 255.772 20.6C255.772 26.6137 260.647 31.4888 266.661 31.4888Z" fill="#FFB8B8"/>
<path d="M253.421 37.8165C259.701 35.202 270.544 32.6179 282.583 38.25C283.992 38.9068 285.247 39.8541 286.264 41.0298C287.281 42.2054 288.038 43.5828 288.485 45.0716L293.636 62.3031L286.986 68.9531L293.193 82.6964C293.193 82.6964 269.475 97.1048 258.835 88.2381L252.406 65.4064L243.983 63.1897L246.857 46.1166C247.16 44.291 247.921 42.5721 249.069 41.1206C250.217 39.6691 251.714 38.5323 253.421 37.8165Z" fill="#CCCCCC"/>
<path d="M256.477 12.5478C260.729 15.1436 265.523 16.7232 270.486 17.1637L269.009 15.3944C270.084 15.7919 271.216 16.0166 272.361 16.06C272.935 16.0766 273.504 15.9586 274.024 15.7154C274.544 15.4721 274.999 15.1105 275.354 14.6594C275.643 14.1911 275.815 13.6596 275.855 13.1103C275.895 12.5611 275.801 12.0104 275.582 11.5051C275.132 10.4974 274.432 9.62157 273.548 8.96103C271.98 7.72128 270.131 6.88852 268.164 6.53696C266.197 6.1854 264.173 6.32596 262.273 6.94612C260.97 7.33554 259.803 8.08414 258.906 9.10614C258.465 9.62095 258.159 10.2372 258.014 10.8996C257.87 11.5621 257.893 12.2499 258.08 12.9015" fill="#2F2E41"/>
<path d="M254.44 2.85891C254.263 0.996909 251.982 -0.149414 250.198 0.413039C248.415 0.975492 247.244 2.77162 246.89 4.60822C246.719 5.38169 246.703 6.18118 246.842 6.96085C246.982 7.74051 247.273 8.48503 247.701 9.1517C248.143 9.80992 248.765 10.3274 249.492 10.6426C250.22 10.9578 251.023 11.0575 251.805 10.9298C253.569 10.5537 254.792 8.83106 255.141 7.06144C255.491 5.29182 255.144 3.46735 254.797 1.69715" fill="#2F2E41"/>
<path d="M284.587 3.74563C284.41 1.88363 282.129 0.737304 280.345 1.29976C278.561 1.86221 277.39 3.65834 277.036 5.49494C276.866 6.26841 276.85 7.0679 276.989 7.84756C277.128 8.62723 277.42 9.37175 277.848 10.0384C278.29 10.6966 278.911 11.2141 279.639 11.5293C280.366 11.8445 281.169 11.9442 281.952 11.8165C283.716 11.4404 284.938 9.71778 285.288 7.94816C285.638 6.17854 285.29 4.35407 284.944 2.58387" fill="#2F2E41"/>
<path d="M211.569 155.327H203.811V153.997C203.811 153.527 203.624 153.076 203.291 152.743C202.959 152.411 202.508 152.224 202.037 152.224H192.727C192.257 152.224 191.806 152.411 191.473 152.743C191.141 153.076 190.954 153.527 190.954 153.997V155.327H189.624V153.997C189.624 153.527 189.437 153.076 189.104 152.743C188.772 152.411 188.321 152.224 187.851 152.224H178.541C178.07 152.224 177.619 152.411 177.287 152.743C176.954 153.076 176.767 153.527 176.767 153.997V155.327H175.437V153.997C175.437 153.527 175.25 153.076 174.918 152.743C174.585 152.411 174.134 152.224 173.664 152.224H164.354C163.884 152.224 163.432 152.411 163.1 152.743C162.767 153.076 162.581 153.527 162.581 153.997V155.327H161.251V153.997C161.251 153.527 161.064 153.076 160.731 152.743C160.399 152.411 159.947 152.224 159.477 152.224H150.167C149.697 152.224 149.246 152.411 148.913 152.743C148.581 153.076 148.394 153.527 148.394 153.997V155.327H147.064V153.997C147.064 153.527 146.877 153.076 146.544 152.743C146.212 152.411 145.761 152.224 145.29 152.224H135.98C135.51 152.224 135.059 152.411 134.727 152.743C134.394 153.076 134.207 153.527 134.207 153.997V155.327H132.877V153.997C132.877 153.527 132.69 153.076 132.358 152.743C132.025 152.411 131.574 152.224 131.104 152.224H121.794C121.323 152.224 120.872 152.411 120.54 152.743C120.207 153.076 120.02 153.527 120.02 153.997V155.327H118.69V153.997C118.69 153.527 118.504 153.076 118.171 152.743C117.838 152.411 117.387 152.224 116.917 152.224H107.607C107.137 152.224 106.686 152.411 106.353 152.743C106.021 153.076 105.834 153.527 105.834 153.997V155.327H104.504V153.997C104.504 153.527 104.317 153.076 103.984 152.743C103.652 152.411 103.201 152.224 102.73 152.224H93.4204C92.9501 152.224 92.499 152.411 92.1665 152.743C91.8339 153.076 91.6471 153.527 91.6471 153.997V155.327H90.3171V153.997C90.3171 153.527 90.1303 153.076 89.7977 152.743C89.4651 152.411 89.0141 152.224 88.5438 152.224H79.2337C78.7634 152.224 78.3124 152.411 77.9798 152.743C77.6472 153.076 77.4604 153.527 77.4604 153.997V155.327H76.1304V153.997C76.1304 153.527 75.9436 153.076 75.611 152.743C75.2784 152.411 74.8274 152.224 74.3571 152.224H65.0471C64.5767 152.224 64.1257 152.411 63.7931 152.743C63.4606 153.076 63.2737 153.527 63.2737 153.997V155.327H61.9437V153.997C61.9437 153.527 61.7569 153.076 61.4243 152.743C61.0918 152.411 60.6407 152.224 60.1704 152.224H50.8604C50.3901 152.224 49.939 152.411 49.6064 152.743C49.2739 153.076 49.087 153.527 49.087 153.997V155.327H47.757V153.997C47.757 153.527 47.5702 153.076 47.2376 152.743C46.9051 152.411 46.454 152.224 45.9837 152.224H36.6737C36.2034 152.224 35.7523 152.411 35.4198 152.743C35.0872 153.076 34.9004 153.527 34.9004 153.997V155.327H33.5704V153.997C33.5704 153.527 33.3835 153.076 33.051 152.743C32.7184 152.411 32.2673 152.224 31.797 152.224H22.487C22.0167 152.224 21.5656 152.411 21.2331 152.743C20.9005 153.076 20.7137 153.527 20.7137 153.997V155.327H12.9553C9.60429 155.327 6.39054 156.659 4.02102 159.028C1.6515 161.398 0.320312 164.611 0.320312 167.962C0.320312 168.962 0.717333 169.92 1.42403 170.627C2.13073 171.334 3.08923 171.731 4.08865 171.731H220.436C221.435 171.731 222.394 171.334 223.1 170.627C223.807 169.92 224.204 168.962 224.204 167.962C224.204 164.611 222.873 161.398 220.503 159.028C218.134 156.659 214.92 155.327 211.569 155.327Z" fill="#3F3D56"/>
</g>
<defs>
<clipPath id="clip0_518_384">
<rect width="310" height="171.461" fill="white" transform="translate(0.320312 0.269409)"/>
</clipPath>
</defs>
</svg>
