<svg width="300" height="214" viewBox="0 0 300 214" fill="none" xmlns="http://www.w3.org/2000/svg">
<g clip-path="url(#clip0_466_1708)">
<path d="M273.933 192.472C276.564 197.123 274.333 212.832 274.333 212.832C274.333 212.832 259.722 206.647 257.092 201.998C255.831 199.765 255.509 197.123 256.196 194.652C256.883 192.182 258.522 190.085 260.754 188.822C262.986 187.56 265.628 187.235 268.099 187.92C270.57 188.604 272.669 190.242 273.933 192.472Z" fill="#F1F1F1"/>
<path d="M274.545 212.811L274.235 212.877C271.245 198.673 260.805 189.042 260.7 188.946L260.913 188.711C261.019 188.808 271.534 198.505 274.545 212.811Z" fill="white"/>
<path d="M297.84 197.768C294.27 204.245 274.14 213.019 274.14 213.019C274.14 213.019 270.821 191.313 274.39 184.838C276.104 181.728 278.984 179.427 282.395 178.441C285.807 177.454 289.47 177.863 292.58 179.578C295.69 181.293 297.991 184.172 298.977 187.584C299.964 190.995 299.555 194.658 297.84 197.768Z" fill="#F1F1F1"/>
<path d="M274.318 213.254L274.015 212.936C288.582 199.102 292.352 179.808 292.389 179.615L292.82 179.696C292.784 179.891 288.99 199.32 274.318 213.254Z" fill="white"/>
<path d="M70.5308 148.725C68.2271 148.717 65.9335 148.421 63.7037 147.842L63.2642 147.72L62.8565 147.516C48.1171 140.126 35.6823 130.365 25.8974 118.503C17.7975 108.627 11.4825 97.4136 7.23629 85.367C2.15849 70.9444 -0.284436 55.7262 0.0241451 40.4388C0.0303716 40.118 0.0356413 39.8702 0.0356413 39.6995C0.0356413 32.2682 4.16056 25.7478 10.5443 23.0879C15.4302 21.0521 59.7912 2.83129 62.9964 1.51479C69.0326 -1.50976 75.4722 1.0147 76.5027 1.45616C78.8142 2.40122 119.823 19.1744 128.685 23.3943C137.818 27.7434 140.255 35.5565 140.255 39.4874C140.255 57.2837 137.173 73.9158 131.094 88.9217C126.185 101.068 119.227 112.281 110.524 122.073C93.7318 140.97 76.9351 147.669 76.7729 147.728C74.7655 148.419 72.6535 148.756 70.5308 148.725ZM66.5808 138.941C68.037 139.267 71.3897 139.757 73.5749 138.96C76.351 137.947 90.4095 130.657 103.547 115.873C121.698 95.4467 130.908 69.7689 130.921 39.553C130.889 38.9409 130.454 34.5747 124.672 31.8216C115.982 27.6833 73.3568 10.2539 72.9272 10.0782L72.8094 10.0283C71.9162 9.65394 69.0733 8.86547 67.1137 9.89238L66.7213 10.0753C66.2462 10.2704 19.1565 29.6112 14.1343 31.7037C10.6212 33.1675 9.36948 36.7939 9.36948 39.6995C9.36948 39.9118 9.36398 40.2207 9.35622 40.6199C8.95485 61.2948 13.7391 112.169 66.5808 138.941Z" fill="#3F3D56"/>
<path d="M64.9482 5.75828C64.9482 5.75828 17.4305 25.2745 12.3393 27.3958C7.24808 29.5171 4.7025 34.6083 4.7025 39.6995C4.7025 44.7907 0.884116 111.224 64.9482 143.344C64.9482 143.344 70.7626 144.953 75.174 143.344C79.5853 141.735 135.588 114.582 135.588 39.4874C135.588 39.4874 135.588 31.8506 126.679 27.6079C117.769 23.3653 74.6929 5.75828 74.6929 5.75828C74.6929 5.75828 69.403 3.42483 64.9482 5.75828Z" fill="#FF8C04"/>
<path opacity="0.1" d="M70.0394 21.0319V125.144C70.0394 125.144 22.0975 102.067 22.5217 41.3966L70.0394 21.0319Z" fill="black"/>
<path d="M70.6646 95.8585L55.3927 76.2221L64.274 69.3146L71.5052 78.612L95.9335 52.8245L104.102 60.5641L70.6646 95.8585Z" fill="white"/>
<path d="M299.634 213.951H160.085C159.988 213.951 159.895 213.912 159.826 213.843C159.758 213.775 159.719 213.681 159.719 213.584C159.719 213.487 159.758 213.394 159.826 213.325C159.895 213.257 159.988 213.218 160.085 213.218H299.634C299.731 213.218 299.824 213.257 299.893 213.325C299.961 213.394 300 213.487 300 213.584C300 213.681 299.961 213.775 299.893 213.843C299.824 213.912 299.731 213.951 299.634 213.951Z" fill="#CACACA"/>
<path d="M200.425 208.177L206.089 208.177L208.784 186.328L200.423 186.328L200.425 208.177Z" fill="#FFB8B8"/>
<path d="M198.979 206.328L210.135 206.327H210.135C212.021 206.327 213.829 207.076 215.162 208.409C216.496 209.743 217.245 211.551 217.245 213.436V213.667L198.98 213.668L198.979 206.328Z" fill="#2F2E41"/>
<path d="M219.47 208.177L225.135 208.177L227.83 186.328L219.469 186.328L219.47 208.177Z" fill="#FFB8B8"/>
<path d="M218.025 206.328L229.181 206.327H229.182C231.067 206.327 232.875 207.076 234.208 208.409C235.542 209.743 236.291 211.551 236.291 213.436V213.667L218.026 213.668L218.025 206.328Z" fill="#2F2E41"/>
<path d="M209.328 131.449L210.687 200.765L199.695 200.083L192.069 155.932L189.66 125.829L209.328 131.449Z" fill="#2F2E41"/>
<path d="M228.192 119.809L229.733 201.864L216.913 201.497L214.144 152.721L209.328 135.061L189.661 125.829L192.872 103.754L221.77 103.353L228.192 119.809Z" fill="#2F2E41"/>
<path d="M206.091 46.3577C211.519 46.3577 215.921 41.9566 215.921 36.5276C215.921 31.0987 211.519 26.6976 206.091 26.6976C200.662 26.6976 196.26 31.0987 196.26 36.5276C196.26 41.9566 200.662 46.3577 206.091 46.3577Z" fill="#FFB8B8"/>
<path d="M214.244 50.4987L215.75 52.7798L219.764 64.018L216.552 107.767L197.688 108.169L195.28 57.9973L200.325 51.6916L214.244 50.4987Z" fill="#CCCCCC"/>
<path d="M187.654 59.2017L184.443 58.8003C184.443 58.8003 183.64 59.2017 183.239 62.0113C182.837 64.8209 178.021 89.7059 178.021 89.7059L184.443 120.21L191.667 110.577L187.252 93.7197L191.667 76.862L187.654 59.2017Z" fill="#FF8C04"/>
<path d="M228.594 58.8005H231.002L237.022 91.3113L231.403 116.598L225.784 107.366L227.389 97.332L226.587 88.502L223.777 83.2838L228.594 58.8005Z" fill="#FF8C04"/>
<path d="M211.899 36.5278L210.112 36.0809C210.112 36.0809 208.771 28.485 205.644 29.3786C202.516 30.2723 194.473 31.1659 194.473 27.5914C194.473 24.0168 202.069 20.8891 206.537 21.3359C211.006 21.7827 216.712 23.265 218.155 29.8254C220.467 40.3421 213.383 42.9985 213.383 42.9985L213.501 42.6156C213.829 41.5524 213.852 40.4189 213.569 39.3431C213.286 38.2673 212.707 37.2921 211.899 36.5278Z" fill="#2F2E41"/>
<path d="M184.844 58.8003L197.688 53.5824L200.698 51.3749L209.729 91.3114L213.943 50.1708L230.6 58.8003L224.981 86.0936L224.178 96.5293L226.587 104.958C226.587 104.958 235.016 110.979 232.206 117.401C229.396 123.823 226.185 124.224 226.185 124.224C226.185 124.224 212.539 111.38 211.736 108.169C210.933 104.958 209.729 99.3388 209.729 99.3388C209.729 99.3388 202.906 125.027 194.878 124.625C186.851 124.224 186.851 115.795 186.851 115.795L188.858 106.965L192.069 97.7334L190.463 82.4812L184.844 58.8003Z" fill="#FF8C04"/>
</g>
<defs>
<clipPath id="clip0_466_1708">
<rect width="300" height="213.901" fill="white" transform="translate(0 0.0495605)"/>
</clipPath>
</defs>
</svg>
