<svg width="25" height="24" viewBox="0 0 25 24" fill="none" xmlns="http://www.w3.org/2000/svg">
<g clip-path="url(#clip0_308_445)">
<path d="M12.1562 24C5.49825 24 0.15625 18.582 0.15625 12C0.15625 5.342 5.49825 0 12.1562 0C18.8143 0 24.1562 5.342 24.1562 12C24.1562 18.582 18.8143 24 12.1562 24ZM12.1562 2.014C6.65925 2.014 2.16925 6.503 2.16925 12C2.16925 17.498 6.65925 21.988 12.1562 21.988C17.6543 21.988 22.1432 17.498 22.1432 12C22.1432 6.503 17.6543 2.014 12.1562 2.014ZM18.0413 13.162H9.36925C9.18526 13.1623 9.00862 13.0898 8.87786 12.9603C8.7471 12.8309 8.67283 12.655 8.67125 12.471V11.459C8.67125 11.072 8.98225 10.762 9.36925 10.762H18.1173C18.5042 10.762 18.8143 11.073 18.8143 11.459V12.465C18.7373 12.852 18.4272 13.162 18.0413 13.162ZM15.7952 9.291H7.04725C6.95603 9.29153 6.8656 9.27406 6.78113 9.23961C6.69666 9.20516 6.61982 9.15439 6.55499 9.09021C6.49016 9.02603 6.43862 8.9497 6.40332 8.86559C6.36802 8.78147 6.34964 8.69122 6.34925 8.6V7.59C6.34925 7.279 6.65925 6.969 7.04625 6.969H15.7942C16.1042 6.969 16.4142 7.28 16.4142 7.588V8.594C16.4152 8.98 16.1042 9.291 15.7952 9.291ZM7.04725 14.709H15.7952C16.1833 14.709 16.4912 15.02 16.4912 15.406V16.412C16.4918 16.596 16.4193 16.7727 16.2898 16.9033C16.1603 17.034 15.9842 17.1079 15.8003 17.109H7.04725C6.65925 17.033 6.35025 16.722 6.35025 16.336V15.33C6.34925 15.02 6.65925 14.709 7.04725 14.709Z" fill="#222057"/>
</g>
<defs>
<clipPath id="clip0_308_445">
<rect width="24" height="24" fill="white" transform="translate(0.15625)"/>
</clipPath>
</defs>
</svg>
