<svg width="25" height="24" viewBox="0 0 25 24" fill="none" xmlns="http://www.w3.org/2000/svg">
<g clip-path="url(#clip0_308_580)">
<path fill-rule="evenodd" clip-rule="evenodd" d="M21.9062 12C21.9062 14.5859 20.879 17.0658 19.0505 18.8943C17.2221 20.7228 14.7421 21.75 12.1562 21.75C9.57039 21.75 7.09044 20.7228 5.26196 18.8943C3.43348 17.0658 2.40625 14.5859 2.40625 12C2.40625 9.41414 3.43348 6.93419 5.26196 5.10571C7.09044 3.27723 9.57039 2.25 12.1562 2.25C14.7421 2.25 17.2221 3.27723 19.0505 5.10571C20.879 6.93419 21.9062 9.41414 21.9062 12ZM24.1562 12C24.1562 15.1826 22.892 18.2348 20.6415 20.4853C18.3911 22.7357 15.3388 24 12.1562 24C8.97365 24 5.92141 22.7357 3.67097 20.4853C1.42053 18.2348 0.15625 15.1826 0.15625 12C0.15625 8.8174 1.42053 5.76516 3.67097 3.51472C5.92141 1.26428 8.97365 0 12.1562 0C15.3388 0 18.3911 1.26428 20.6415 3.51472C22.892 5.76516 24.1562 8.8174 24.1562 12ZM12.1562 15.375C12.1562 15.9717 11.9192 16.544 11.4972 16.966C11.0753 17.3879 10.503 17.625 9.90625 17.625C9.30951 17.625 8.73722 17.3879 8.31526 16.966C7.8933 16.544 7.65625 15.9717 7.65625 15.375C7.65625 14.7783 7.8933 14.206 8.31526 13.784C8.73722 13.3621 9.30951 13.125 9.90625 13.125C10.503 13.125 11.0753 13.3621 11.4972 13.784C11.9192 14.206 12.1562 14.7783 12.1562 15.375ZM6.93025 12C6.39324 12.4738 5.97707 13.069 5.71633 13.736C5.45558 14.403 5.3578 15.1226 5.43111 15.835C5.50441 16.5473 5.74669 17.232 6.1378 17.8319C6.52891 18.4318 7.05755 18.9297 7.6798 19.2843C8.30205 19.6388 8.99992 19.8397 9.71543 19.8702C10.4309 19.9008 11.1434 19.7602 11.7936 19.46C12.4438 19.1598 13.013 18.7088 13.4538 18.1444C13.8947 17.58 14.1945 16.9185 14.3282 16.215C15.009 16.4695 15.7412 16.5554 16.4624 16.4653C17.1835 16.3751 17.8721 16.1117 18.4692 15.6974C19.0663 15.2832 19.5543 14.7305 19.8912 14.0866C20.2282 13.4427 20.4043 12.7267 20.4043 12C20.4043 11.2733 20.2282 10.5573 19.8912 9.91341C19.5543 9.26951 19.0663 8.71681 18.4692 8.30257C17.8721 7.88833 17.1835 7.62488 16.4624 7.53474C15.7412 7.44461 15.009 7.53048 14.3282 7.785C14.1945 7.08145 13.8947 6.41999 13.4538 5.8556C13.013 5.29121 12.4438 4.84019 11.7936 4.54002C11.1434 4.23985 10.4309 4.0992 9.71543 4.12976C8.99992 4.16033 8.30205 4.36122 7.6798 4.71574C7.05755 5.07027 6.52891 5.56818 6.1378 6.16811C5.74669 6.76804 5.50441 7.45265 5.43111 8.16504C5.3578 8.87744 5.45558 9.59704 5.71633 10.264C5.97707 10.931 6.39324 11.5262 6.93025 12ZM9.90625 10.875C10.503 10.875 11.0753 10.6379 11.4972 10.216C11.9192 9.79403 12.1562 9.22174 12.1562 8.625C12.1562 8.02826 11.9192 7.45597 11.4972 7.03401C11.0753 6.61205 10.503 6.375 9.90625 6.375C9.30951 6.375 8.73722 6.61205 8.31526 7.03401C7.8933 7.45597 7.65625 8.02826 7.65625 8.625C7.65625 9.22174 7.8933 9.79403 8.31526 10.216C8.73722 10.6379 9.30951 10.875 9.90625 10.875ZM15.9062 14.25C16.503 14.25 17.0753 14.0129 17.4972 13.591C17.9192 13.169 18.1562 12.5967 18.1562 12C18.1562 11.4033 17.9192 10.831 17.4972 10.409C17.0753 9.98705 16.503 9.75 15.9062 9.75C15.3095 9.75 14.7372 9.98705 14.3153 10.409C13.8933 10.831 13.6562 11.4033 13.6562 12C13.6562 12.5967 13.8933 13.169 14.3153 13.591C14.7372 14.0129 15.3095 14.25 15.9062 14.25Z" fill="#222057"/>
</g>
<defs>
<clipPath id="clip0_308_580">
<rect width="24" height="24" fill="white" transform="translate(0.15625)"/>
</clipPath>
</defs>
</svg>
