<svg width="25" height="24" viewBox="0 0 25 24" fill="none" xmlns="http://www.w3.org/2000/svg">
<g clip-path="url(#clip0_308_467)">
<path d="M4.65637 18H6.15637V19.5H3.15637V4.5H1.65637V21H6.15637V22.5H0.156372V3H3.15637V1.5H7.65637C8.34387 1.5 9.00403 1.60547 9.63684 1.81641C10.2697 2.02734 10.8595 2.34375 11.4064 2.76562C11.9454 2.34375 12.5314 2.02734 13.1642 1.81641C13.797 1.60547 14.4611 1.5 15.1564 1.5H19.6564V3H22.6564V12.5977L21.1564 11.918V4.5H19.6564V11.2383L18.1564 10.5469V3H15.1564C14.6017 3 14.0704 3.09375 13.5626 3.28125C13.0548 3.46875 12.5861 3.74609 12.1564 4.11328V11.2383L10.6564 11.918V4.11328C10.2345 3.75391 9.76965 3.48047 9.26184 3.29297C8.75403 3.10547 8.21887 3.00781 7.65637 3H4.65637V18ZM21.1564 20.9883L15.9064 23.625L10.6564 20.9883C10.6564 20.707 10.6603 20.4102 10.6681 20.0977C10.6759 19.7852 10.7072 19.4688 10.7618 19.1484C10.8165 18.8281 10.8947 18.5273 10.9962 18.2461C11.0978 17.9648 11.2384 17.7031 11.4181 17.4609L9.15637 16.4297V23.25H7.65637V15.75L15.9064 12L24.1564 15.75L20.3947 17.4609L20.4884 17.5898C20.6525 17.832 20.7775 18.0938 20.8634 18.375C20.9493 18.6562 21.0157 18.9414 21.0626 19.2305C21.1095 19.5195 21.1368 19.8164 21.1447 20.1211C21.1525 20.4258 21.1564 20.7148 21.1564 20.9883ZM15.9064 13.6406L11.2775 15.75L15.9064 17.8594L20.5353 15.75L15.9064 13.6406ZM15.9064 21.9492L19.6564 20.0625C19.6486 19.8594 19.6329 19.6758 19.6095 19.5117C19.5861 19.3477 19.5431 19.1875 19.4806 19.0312C19.4181 18.875 19.3556 18.7227 19.2931 18.5742C19.2306 18.4258 19.1407 18.2617 19.0236 18.082L15.9064 19.5L12.7892 18.082C12.672 18.2695 12.5782 18.4375 12.5079 18.5859C12.4376 18.7344 12.3751 18.8828 12.3204 19.0312C12.2657 19.1797 12.2306 19.3359 12.215 19.5C12.1993 19.6641 12.1837 19.8555 12.1681 20.0742L15.9064 21.9492Z" fill="#222057"/>
</g>
<defs>
<clipPath id="clip0_308_467">
<rect width="24" height="24" fill="white" transform="translate(0.156372)"/>
</clipPath>
</defs>
</svg>
