<svg width="150" height="150" viewBox="0 0 150 150" fill="none" xmlns="http://www.w3.org/2000/svg">
<g style="mix-blend-mode:exclusion">
<path fill-rule="evenodd" clip-rule="evenodd" d="M59.4158 29.5599C59.014 27.176 58.7113 24.8191 58.5158 22.462C58.2211 18.9263 58.4033 15.3635 58.2988 11.8278C58.2533 10.3278 58.0738 6.41714 58.1461 5.85464C58.8024 0.952859 62.7586 0.202767 63.9158 0.0688388C64.4756 -0.0115184 70.2238 -0.654088 71.464 5.72091C72.9854 13.5156 73.4729 21.3637 72.9345 29.0512C74.1908 35.5869 76.339 42.0957 79.1756 47.9885C90.4631 71.426 111.972 73.7029 135.276 73.4886C138.859 73.435 141.835 76.2475 142.023 79.81C142.21 83.3992 139.543 86.5064 135.975 86.8278C122.949 88.0867 99.838 98.5333 91.8478 109.408C90.1764 111.685 89.2041 117.176 87.9184 122.56C86.1238 130.033 83.989 137.426 81.597 140.533C81.2381 141.015 76.8747 145.944 75.5729 146.667C72.4443 148.382 69.9399 147.39 68.5176 146.48C67.0953 145.569 65.4854 143.774 64.8426 140.801C64.1702 137.694 64.7381 131.319 64.6336 129.953C64.2533 124.997 63.2623 115.274 61.24 106.917C60.1498 102.417 58.9872 98.2653 57.064 96.2028C49.9444 88.5689 38.5604 89.694 28.9738 90.9529C27.8729 91.0868 26.7721 91.2476 25.6738 91.3816C21.7712 92.5334 17.6273 93.3903 13.2479 93.8993C6.63446 94.6761 5.54703 88.5957 5.48811 88.1939C5.36489 87.31 4.90681 82.7565 9.89163 80.9351C10.4354 80.7476 14.4479 79.8636 15.9935 79.5154C18.147 79.0332 20.3247 78.6583 22.5104 78.3101C45.0881 71.2923 57.3506 51.5778 59.4158 29.5599ZM67.1649 53.9084C75.6881 71.5334 88.6229 80.0511 103.955 83.9083H103.952C94.3792 88.9172 85.6711 95.1852 81.0559 101.48C79.3041 103.864 77.697 108.658 76.2479 114.042C75.4631 109.033 74.4024 103.703 73.0015 99.1492C71.4078 93.9527 69.2622 89.6405 66.8675 87.0691C62.2443 82.1138 56.4425 79.3548 50.2041 77.9887C57.672 71.3726 63.3345 63.1227 67.1649 53.9084Z" fill="#222057"/>
</g>
</svg>
