<svg xmlns="http://www.w3.org/2000/svg" width="41" height="40" viewBox="0 0 41 40" fill="none">
  <g clip-path="url(#clip0_551_1405)">
    <path d="M1.51858 19.7606C1.51765 23.1214 2.39579 26.403 4.06555 29.2954L1.35889 39.1778L11.4724 36.5261C14.2696 38.0488 17.4038 38.8468 20.5887 38.847H20.597C31.111 38.847 39.6696 30.2915 39.6741 19.7757C39.6761 14.68 37.6935 9.88839 34.0913 6.28342C30.4897 2.67877 25.6998 0.692572 20.5963 0.690247C10.0811 0.690247 1.52307 9.24529 1.51873 19.7606" fill="url(#paint0_linear_551_1405)"/>
    <path d="M0.837278 19.7544C0.836193 23.2361 1.74581 26.635 3.47511 29.631L0.671387 39.8678L11.1475 37.1209C14.034 38.6947 17.2839 39.5245 20.5909 39.5257H20.5994C31.4906 39.5257 40.3567 30.6625 40.3613 19.7702C40.3632 14.4915 38.3092 9.5276 34.5784 5.79349C30.847 2.05984 25.8858 0.00217054 20.5994 0C9.70642 0 0.841619 8.86202 0.837278 19.7544ZM7.07619 29.115L6.68503 28.4941C5.04069 25.8795 4.17278 22.8581 4.17402 19.7557C4.17743 10.7022 11.5455 3.33643 20.6056 3.33643C24.9932 3.33829 29.1167 5.04868 32.2181 8.15194C35.3193 11.2555 37.0258 15.3811 37.0247 19.769C37.0207 28.8225 29.6525 36.1891 20.5994 36.1891H20.5929C17.6452 36.1876 14.7542 35.396 12.2329 33.9L11.6329 33.5442L5.41619 35.1741L7.07619 29.115Z" fill="url(#paint1_linear_551_1405)"/>
    <path d="M15.6604 11.4958C15.2905 10.6736 14.9012 10.657 14.5494 10.6426C14.2614 10.6302 13.9321 10.6311 13.6031 10.6311C13.2738 10.6311 12.7387 10.755 12.2865 11.2488C11.8338 11.7431 10.5581 12.9375 10.5581 15.3668C10.5581 17.7961 12.3276 20.144 12.5742 20.4738C12.8212 20.8029 15.9902 25.9477 21.0091 27.927C25.1803 29.5718 26.0291 29.2446 26.9344 29.1622C27.8398 29.08 29.8559 27.968 30.2673 26.815C30.6789 25.6622 30.6789 24.6739 30.5555 24.4674C30.4321 24.2617 30.1028 24.1381 29.609 23.8913C29.1152 23.6445 26.6874 22.4498 26.2348 22.2849C25.7821 22.1203 25.453 22.0381 25.1237 22.5325C24.7944 23.0262 23.8488 24.1381 23.5606 24.4674C23.2727 24.7975 22.9845 24.8386 22.4908 24.5916C21.9967 24.3439 20.4065 23.8231 18.5198 22.1411C17.0519 20.8322 16.0609 19.216 15.7728 18.7215C15.4848 18.2279 15.742 17.9603 15.9896 17.7143C16.2114 17.493 16.4835 17.1377 16.7307 16.8494C16.9769 16.5611 17.059 16.3553 17.2237 16.026C17.3885 15.6964 17.306 15.408 17.1828 15.1611C17.059 14.9141 16.0995 12.4721 15.6604 11.4958Z" fill="white"/>
  </g>
  <defs>
    <linearGradient id="paint0_linear_551_1405" x1="1917.12" y1="3849.45" x2="1917.12" y2="0.690247" gradientUnits="userSpaceOnUse">
      <stop stop-color="#1FAF38"/>
      <stop offset="1" stop-color="#60D669"/>
    </linearGradient>
    <linearGradient id="paint1_linear_551_1405" x1="1985.17" y1="3986.78" x2="1985.17" y2="0" gradientUnits="userSpaceOnUse">
      <stop stop-color="#F9F9F9"/>
      <stop offset="1" stop-color="white"/>
    </linearGradient>
    <clipPath id="clip0_551_1405">
      <rect width="39.6899" height="40" fill="white" transform="translate(0.671387)"/>
    </clipPath>
  </defs>
</svg>