<svg width="64" height="64" viewBox="0 0 64 64" fill="none" xmlns="http://www.w3.org/2000/svg">
<path d="M6 22H58" stroke="white" stroke-width="2" stroke-miterlimit="10" stroke-linecap="round" stroke-linejoin="round"/>
<path d="M14 18C13.4 18 13 17.8 12.6 17.4C12.2 17 12 16.6 12 16C12 15.4 12.2 15 12.6 14.6L12.8 14.4C13 14.4 13 14.2 13.2 14.2C13.4 14 13.4 14 13.6 14C13.8 14 14.2 14 14.4 14C14.6 14 14.6 14 14.8 14.2C15 14.2 15 14.4 15.2 14.4L15.4 14.6C15.6 14.8 15.8 15 15.8 15.2C16 15.4 16 15.8 16 16C16 16.2 16 16.6 15.8 16.8C15.8 17 15.6 17.2 15.4 17.4C15 17.8 14.6 18 14 18Z" fill="white"/>
<path d="M20 18C19.4 18 19 17.8 18.6 17.4C18.2 17 18 16.6 18 16C18 15.8 18 15.4 18.2 15.2C18.4 15 18.4 14.8 18.6 14.6C18.8 14.4 19 14.2 19.2 14.2C20 13.8 20.8 14 21.4 14.6C21.6 14.8 21.8 15 21.8 15.2C22 15.4 22 15.8 22 16C22 16.6 21.8 17 21.4 17.4C21 17.8 20.6 18 20 18Z" fill="white"/>
<path d="M26 18C25.8 18 25.4 18 25.2 17.8C25 17.6 24.8 17.6 24.6 17.4C24.4 17.2 24.2 17 24.2 16.8C24 16.6 24 16.2 24 16C24 15.8 24 15.4 24.2 15.2C24.4 15 24.4 14.8 24.6 14.6C25.4 13.8 26.6 13.8 27.4 14.6C27.6 14.8 27.8 15 27.8 15.2C28 15.4 28 15.8 28 16C28 16.2 28 16.6 27.8 16.8C27.6 17 27.6 17.2 27.4 17.4C27 17.8 26.6 18 26 18Z" fill="white"/>
<path d="M22 54H10C7.8 54 6 52.2 6 50V14C6 11.8 7.8 10 10 10H54C56.2 10 58 11.8 58 14V50C58 52.2 56.2 54 54 54H42" stroke="white" stroke-width="2" stroke-miterlimit="10" stroke-linecap="round" stroke-linejoin="round"/>
<path d="M47.6 40.2C45.6 40.4 43.8 39.6 42.8 37.8C41.8 36 42 33.8 43.2 32.4C41.4 30.6 39.2 29.4 36.8 28.6C36 30.4 34.4 31.6 32.2 31.6C30 31.6 28.4 30.4 27.6 28.6C25.2 29.4 23 30.6 21.2 32.4C22.4 34 22.6 36 21.6 37.8C20.6 39.6 18.6 40.4 16.8 40.2C16.2 41.4 16 42.8 16 44C16 45.2 16.2 46.6 16.4 47.8C18.4 47.6 20.2 48.4 21.2 50.2C22.2 52 22 54.2 20.8 55.6C22.6 57.4 24.8 58.6 27.2 59.4C28 57.6 29.6 56.4 31.8 56.4C34 56.4 35.6 57.6 36.4 59.4C38.8 58.6 41 57.4 42.8 55.6C41.6 54 41.4 52 42.4 50.2C43.4 48.4 45.4 47.6 47.2 47.8C47.4 46.6 47.6 45.4 47.6 44C48 42.8 47.8 41.4 47.6 40.2Z" stroke="white" stroke-width="2" stroke-miterlimit="10" stroke-linecap="round" stroke-linejoin="round"/>
<path d="M32 48C34.2091 48 36 46.2091 36 44C36 41.7909 34.2091 40 32 40C29.7909 40 28 41.7909 28 44C28 46.2091 29.7909 48 32 48Z" stroke="white" stroke-width="2" stroke-miterlimit="10" stroke-linecap="round" stroke-linejoin="round"/>
</svg>
