<svg width="64" height="65" viewBox="0 0 64 65" fill="none" xmlns="http://www.w3.org/2000/svg">
<path d="M21.3333 8.5C22.6667 8.5 28 20.5 28 21.8333C28 24.5 24 27.1667 22.6667 29.8333C21.3333 32.5 24 35.1667 26.6667 37.8333C27.7181 38.8848 32 43.1667 34.6667 41.8333C37.3333 40.5 40 36.5 42.6667 36.5C44 36.5 56 41.8333 56 43.1667C56 48.5 52 52.5 48 53.8333C44 55.1667 41.3333 55.1667 36 53.8333C30.6667 52.5 26.6667 51.1667 20 44.5C13.3333 37.8333 12 33.8333 10.6667 28.5C9.33332 23.1667 9.33332 20.5 10.6667 16.5C12 12.5 16 8.5 21.3333 8.5Z" stroke="#FF8C04" stroke-width="2" stroke-linecap="round" stroke-linejoin="round"/>
<path d="M37.3333 19.2842C39.0954 20.093 40.6856 21.2126 42.033 22.5727C43.3456 23.8974 44.4282 25.4504 45.216 27.1667" stroke="#FF8C04" stroke-width="2" stroke-linecap="round" stroke-linejoin="round"/>
<path d="M55.328 24.5C54.3664 20.7647 52.4189 17.4254 49.7792 14.776C47.1211 12.1083 43.7613 10.1402 40 9.17212" stroke="#FF8C04" stroke-width="2" stroke-linecap="round" stroke-linejoin="round"/>
</svg>
