<svg width="64" height="64" viewBox="0 0 64 64" fill="none" xmlns="http://www.w3.org/2000/svg">
<g clip-path="url(#clip0_207_126)">
<path d="M59.1395 17.2316C56.6936 14.7257 53.4565 12.984 49.8489 12.3546C48.7491 9.39485 46.891 6.80848 44.4975 4.85048C41.4796 2.38048 37.5926 0.88985 33.3896 0.891725C29.1439 0.88985 25.2183 2.40948 22.1866 4.92598C19.9096 6.81223 18.1154 9.26385 17.0196 12.0705C12.3394 12.0919 8.07438 14.0041 5.00788 17.0745C1.92013 20.1584 -0.00199844 24.4556 1.55926e-06 29.1667C-0.00199844 33.877 1.92013 38.1741 5.00788 41.2581C8.09188 44.3469 12.388 46.269 17.0993 46.267C18.5783 46.267 20.605 46.267 22.9238 46.267V39.5251C20.605 39.5251 18.5783 39.5251 17.0993 39.5251C14.2288 39.5231 11.6606 38.3711 9.77538 36.4906C7.89588 34.6054 6.74388 32.0384 6.74188 29.1667C6.74388 26.2952 7.89588 23.7272 9.77538 21.842C11.6606 19.9635 14.2286 18.8115 17.0993 18.8095C17.6773 18.8095 18.2688 18.8696 18.8875 18.9762L22.1266 19.5426L22.7725 16.3191C23.267 13.8471 24.6093 11.6747 26.4868 10.1184C28.3683 8.56285 30.7539 7.63573 33.3898 7.63373C35.9985 7.63573 38.3589 8.54335 40.2306 10.0707C42.1004 11.5991 43.4464 13.7355 43.972 16.1679L44.5306 18.7561L47.1782 18.8269C49.9809 18.9016 52.4849 20.075 54.3159 21.9429C56.141 23.8185 57.2563 26.3437 57.2583 29.1667C57.2563 32.0382 56.1041 34.6054 54.2248 36.4906C52.3395 38.3711 49.7715 39.5231 46.901 39.5251C45.4346 39.5251 43.4058 39.5251 41.0784 39.5251V46.267C43.4059 46.267 45.4346 46.267 46.901 46.267C51.6121 46.269 55.9084 44.3467 58.9922 41.2581C62.08 38.1741 64.0023 33.879 64.0003 29.1667C64.002 24.5321 62.1419 20.2991 59.1395 17.2316Z" fill="#FF8C04"/>
<path d="M35.016 36.1735C36.777 35.0785 37.9535 33.1312 37.9535 30.9046C37.9535 27.4774 35.175 24.698 31.7469 24.698C28.3186 24.698 25.5403 27.4774 25.5403 30.9046C25.5403 33.3389 26.9455 35.4404 28.9859 36.4576V52.9576H23.1245L32.001 63.1084L40.8774 52.9576H35.0161V36.1735H35.016Z" fill="#FF8C04"/>
</g>
<defs>
<clipPath id="clip0_207_126">
<rect width="64" height="64" fill="white"/>
</clipPath>
</defs>
</svg>
