<svg width="64" height="64" viewBox="0 0 64 64" fill="none" xmlns="http://www.w3.org/2000/svg">
<g clip-path="url(#clip0_211_1114)">
<path d="M59.1371 17.2316C56.6912 14.7257 53.4541 12.984 49.8464 12.3546C48.7467 9.39485 46.8886 6.80848 44.4951 4.85048C41.4772 2.38048 37.5902 0.88985 33.3872 0.891725C29.1414 0.88985 25.2158 2.40948 22.1842 4.92598C19.9072 6.81223 18.1129 9.26385 17.0172 12.0705C12.3369 12.0919 8.07193 14.0041 5.00543 17.0745C1.91769 20.1584 -0.00443985 24.4556 -0.00243985 29.1667C-0.00443985 33.877 1.91769 38.1741 5.00543 41.2581C8.08944 44.3469 12.3856 46.269 17.0968 46.267C18.5758 46.267 20.6026 46.267 22.9213 46.267V39.5251C20.6026 39.5251 18.5758 39.5251 17.0968 39.5251C14.2263 39.5231 11.6582 38.3711 9.77294 36.4906C7.89344 34.6054 6.74144 32.0384 6.73944 29.1667C6.74144 26.2952 7.89344 23.7272 9.77294 21.842C11.6582 19.9635 14.2262 18.8115 17.0968 18.8095C17.6748 18.8095 18.2663 18.8696 18.8851 18.9762L22.1242 19.5426L22.7701 16.3191C23.2646 13.8471 24.6068 11.6747 26.4843 10.1184C28.3658 8.56285 30.7514 7.63573 33.3873 7.63373C35.9961 7.63573 38.3564 8.54335 40.2282 10.0707C42.0979 11.5991 43.4439 13.7355 43.9696 16.1679L44.5282 18.7561L47.1758 18.8269C49.9784 18.9016 52.4824 20.075 54.3134 21.9429C56.1386 23.8185 57.2538 26.3437 57.2558 29.1667C57.2538 32.0382 56.1017 34.6054 54.2223 36.4906C52.3371 38.3711 49.7691 39.5231 46.8986 39.5251C45.4322 39.5251 43.4033 39.5251 41.0759 39.5251V46.267C43.4034 46.267 45.4322 46.267 46.8986 46.267C51.6097 46.269 55.9059 44.3467 58.9898 41.2581C62.0776 38.1741 63.9998 33.879 63.9978 29.1667C63.9996 24.5321 62.1394 20.2991 59.1371 17.2316Z" fill="white"/>
<path d="M35.0136 36.1735C36.7746 35.0785 37.9511 33.1312 37.9511 30.9046C37.9511 27.4774 35.1726 24.698 31.7444 24.698C28.3162 24.698 25.5378 27.4774 25.5378 30.9046C25.5378 33.3389 26.9431 35.4404 28.9834 36.4576V52.9576H23.1221L31.9986 63.1084L40.8749 52.9576H35.0137V36.1735H35.0136Z" fill="white"/>
</g>
<defs>
<clipPath id="clip0_211_1114">
<rect width="64" height="64" fill="white" transform="translate(-0.00244141)"/>
</clipPath>
</defs>
</svg>
