<svg width="64" height="64" viewBox="0 0 64 64" fill="none" xmlns="http://www.w3.org/2000/svg">
<g clip-path="url(#clip0_209_199)">
<path d="M44.0621 16.1396H45.2765C45.8751 16.1396 46.3608 15.655 46.3608 15.0554C46.3608 14.4557 45.8751 13.9711 45.2765 13.9711H44.0621C43.4636 13.9711 42.9779 14.4557 42.9779 15.0554C42.9779 15.655 43.4636 16.1396 44.0621 16.1396Z" fill="#FF8C04"/>
<path d="M49.2656 16.1396H50.4811C51.0786 16.1396 51.5654 15.655 51.5654 15.0554C51.5654 14.4557 51.0786 13.9711 50.4811 13.9711H49.2656C48.6682 13.9711 48.1813 14.4557 48.1813 15.0554C48.1813 15.655 48.6682 16.1396 49.2656 16.1396Z" fill="#FF8C04"/>
<path d="M38.8565 16.1396H40.0709C40.6694 16.1396 41.1552 15.655 41.1552 15.0554C41.1552 14.4557 40.6694 13.9711 40.0709 13.9711H38.8565C38.258 13.9711 37.7722 14.4557 37.7722 15.0554C37.7722 15.655 38.258 16.1396 38.8565 16.1396Z" fill="#FF8C04"/>
<path d="M58.751 13.6599C58.5471 13.456 58.2728 13.3422 57.9844 13.3422C57.697 13.3422 57.4206 13.456 57.2178 13.6599L54.5537 16.3229V11.3633C54.5537 10.7637 54.069 10.2791 53.4694 10.2791H1.08429C0.48576 10.2791 0 10.7637 0 11.3633V52.6356C0 53.2352 0.48576 53.7199 1.08429 53.7199H53.4683C54.0679 53.7199 54.5526 53.2352 54.5526 52.6356V29.2562L63.6823 20.1265C64.1073 19.7026 64.1073 19.0173 63.6823 18.5934L58.751 13.6599ZM44.4156 31.8954C44.4406 32.4549 44.8905 32.9016 45.4479 32.9276L49.3437 33.112V48.4047H5.21V19.7622H49.3437V21.5318L44.51 26.3677C44.2953 26.5835 44.1792 26.8806 44.1933 27.1852L44.4156 31.8954ZM52.384 51.5524H2.16857V12.4476H52.384V18.4904L51.5101 19.3632V18.6769C51.5101 18.0772 51.0243 17.5926 50.4258 17.5926H4.12571C3.52718 17.5926 3.04142 18.0772 3.04142 18.6769V49.4869C3.04142 50.0865 3.52718 50.5711 4.12571 50.5711H50.428C51.0276 50.5711 51.5123 50.0865 51.5123 49.4869V32.2977L52.3873 31.4237V51.5513L52.384 51.5524ZM50.4659 30.2776L49.7807 30.9629L46.5354 30.8078L46.3803 27.5615L47.2695 26.6724L57.9833 15.9596L61.3825 19.361L50.4659 30.2776Z" fill="#FF8C04"/>
<path d="M42.3088 24.6501H9.53846C8.93994 24.6501 8.45418 25.1348 8.45418 25.7344V32.0688C8.45418 32.6684 8.93994 33.1531 9.53846 33.1531H42.3088C42.9063 33.1531 43.3931 32.6684 43.3931 32.0688V25.7344C43.3931 25.1348 42.9074 24.6501 42.3088 24.6501ZM41.2246 30.9845H10.6228V26.8187H41.2246V30.9845Z" fill="#FF8C04"/>
<path d="M19.8977 35.4335H9.53846C8.93994 35.4335 8.45418 35.9171 8.45418 36.5178V45.6095C8.45418 46.2102 8.93994 46.6938 9.53846 46.6938H19.8977C20.4963 46.6938 20.982 46.2102 20.982 45.6095V36.5178C20.982 35.9171 20.4963 35.4335 19.8977 35.4335ZM18.8134 44.5241H10.6228V37.601H18.8134V44.5241Z" fill="#FF8C04"/>
<path d="M42.3089 35.4335H24.5482C23.9497 35.4335 23.464 35.9171 23.464 36.5178C23.464 37.1174 23.9497 37.602 24.5482 37.602H42.3089C42.9063 37.602 43.3931 37.1174 43.3931 36.5178C43.3931 35.9171 42.9074 35.4335 42.3089 35.4335Z" fill="#FF8C04"/>
<path d="M42.3089 41.3536H24.5482C23.9497 41.3536 23.464 41.8383 23.464 42.4379C23.464 43.0375 23.9497 43.5222 24.5482 43.5222H42.3089C42.9063 43.5222 43.3931 43.0375 43.3931 42.4379C43.3931 41.8383 42.9074 41.3536 42.3089 41.3536Z" fill="#FF8C04"/>
</g>
<defs>
<clipPath id="clip0_209_199">
<rect width="64" height="64" fill="white"/>
</clipPath>
</defs>
</svg>
