<svg width="64" height="64" viewBox="0 0 64 64" fill="none" xmlns="http://www.w3.org/2000/svg">
<g clip-path="url(#clip0_211_1148)">
<path d="M44.0598 16.1396H45.2741C45.8727 16.1396 46.3584 15.655 46.3584 15.0554C46.3584 14.4557 45.8727 13.9711 45.2741 13.9711H44.0598C43.4612 13.9711 42.9755 14.4557 42.9755 15.0554C42.9755 15.655 43.4612 16.1396 44.0598 16.1396Z" fill="white"/>
<path d="M49.2632 16.1396H50.4787C51.0762 16.1396 51.563 15.655 51.563 15.0554C51.563 14.4557 51.0762 13.9711 50.4787 13.9711H49.2632C48.6658 13.9711 48.179 14.4557 48.179 15.0554C48.179 15.655 48.6658 16.1396 49.2632 16.1396Z" fill="white"/>
<path d="M38.8541 16.1396H40.0685C40.667 16.1396 41.1528 15.655 41.1528 15.0554C41.1528 14.4557 40.667 13.9711 40.0685 13.9711H38.8541C38.2555 13.9711 37.7698 14.4557 37.7698 15.0554C37.7698 15.655 38.2555 16.1396 38.8541 16.1396Z" fill="white"/>
<path d="M58.7485 13.6599C58.5447 13.456 58.2704 13.3422 57.9819 13.3422C57.6946 13.3422 57.4181 13.456 57.2153 13.6599L54.5513 16.3229V11.3633C54.5513 10.7637 54.0666 10.2791 53.467 10.2791H1.08184C0.483319 10.2791 -0.00244141 10.7637 -0.00244141 11.3633V52.6356C-0.00244141 53.2352 0.483319 53.7199 1.08184 53.7199H53.4659C54.0655 53.7199 54.5502 53.2352 54.5502 52.6356V29.2562L63.6799 20.1265C64.1049 19.7026 64.1049 19.0173 63.6799 18.5934L58.7485 13.6599ZM44.4132 31.8954C44.4381 32.4549 44.8881 32.9016 45.4454 32.9276L49.3413 33.112V48.4047H5.20755V19.7622H49.3413V21.5318L44.5075 26.3677C44.2928 26.5835 44.1768 26.8806 44.1909 27.1852L44.4132 31.8954ZM52.3816 51.5524H2.16613V12.4476H52.3816V18.4904L51.5077 19.3632V18.6769C51.5077 18.0772 51.0219 17.5926 50.4234 17.5926H4.12327C3.52474 17.5926 3.03898 18.0772 3.03898 18.6769V49.4869C3.03898 50.0865 3.52474 50.5711 4.12327 50.5711H50.4255C51.0252 50.5711 51.5098 50.0865 51.5098 49.4869V32.2977L52.3848 31.4237V51.5513L52.3816 51.5524ZM50.4635 30.2776L49.7782 30.9629L46.533 30.8078L46.3779 27.5615L47.267 26.6724L57.9809 15.9596L61.3801 19.361L50.4635 30.2776Z" fill="white"/>
<path d="M42.3065 24.6501H9.53607C8.93754 24.6501 8.45178 25.1348 8.45178 25.7344V32.0688C8.45178 32.6684 8.93754 33.1531 9.53607 33.1531H42.3065C42.9039 33.1531 43.3907 32.6684 43.3907 32.0688V25.7344C43.3907 25.1348 42.905 24.6501 42.3065 24.6501ZM41.2222 30.9845H10.6204V26.8187H41.2222V30.9845Z" fill="white"/>
<path d="M19.8953 35.4335H9.53607C8.93754 35.4335 8.45178 35.9171 8.45178 36.5178V45.6095C8.45178 46.2102 8.93754 46.6938 9.53607 46.6938H19.8953C20.4939 46.6938 20.9796 46.2102 20.9796 45.6095V36.5178C20.9796 35.9171 20.4939 35.4335 19.8953 35.4335ZM18.8111 44.5241H10.6204V37.601H18.8111V44.5241Z" fill="white"/>
<path d="M42.3064 35.4335H24.5458C23.9473 35.4335 23.4615 35.9171 23.4615 36.5178C23.4615 37.1174 23.9473 37.602 24.5458 37.602H42.3064C42.9039 37.602 43.3907 37.1174 43.3907 36.5178C43.3907 35.9171 42.905 35.4335 42.3064 35.4335Z" fill="white"/>
<path d="M42.3064 41.3536H24.5458C23.9473 41.3536 23.4615 41.8383 23.4615 42.4379C23.4615 43.0375 23.9473 43.5222 24.5458 43.5222H42.3064C42.9039 43.5222 43.3907 43.0375 43.3907 42.4379C43.3907 41.8383 42.905 41.3536 42.3064 41.3536Z" fill="white"/>
</g>
<defs>
<clipPath id="clip0_211_1148">
<rect width="64" height="64" fill="white" transform="translate(-0.00244141)"/>
</clipPath>
</defs>
</svg>
