<svg width="64" height="64" viewBox="0 0 64 64" fill="none" xmlns="http://www.w3.org/2000/svg">
<path d="M63.5 48.875V2.375H0.5V48.875H28.25V56.125H18.75V61.625H45.25V56.125H35.75V48.875H63.5ZM4.75 6.625H59V44.375H4.75V6.625ZM25.1475 36.4975L24.7857 33.1693L27.725 33.92L27.3452 30.646L30.194 31.3785L29.8143 28.0685L33.5312 28.8193L35.8013 26.5492C37.999 27.0285 40.3955 26.4228 42.1138 24.7043C44.7907 22.0273 44.7998 17.6952 42.1138 15.0092C39.4277 12.3232 35.1138 12.3503 32.4458 15.0183C30.7455 16.7185 30.1215 19.097 30.5828 21.2765L19.875 31.9845L20.0015 36.8683L25.1475 36.4975ZM38.7858 18.3555C38.198 17.7677 38.1888 16.8 38.7858 16.203C39.3828 15.606 40.3413 15.606 40.9383 16.203C41.5353 16.8 41.5353 17.7585 40.9383 18.3555C40.3323 18.9612 39.3735 18.9432 38.7858 18.3555Z" fill="#FF8C04"/>
</svg>
