<svg width="64" height="64" viewBox="0 0 64 64" fill="none" xmlns="http://www.w3.org/2000/svg">
<g clip-path="url(#clip0_211_1112)">
<path d="M63.4951 48.875V2.375H0.495117V48.875H28.2451V56.125H18.7451V61.625H45.2451V56.125H35.7451V48.875H63.4951ZM4.74512 6.625H58.9951V44.375H4.74512V6.625ZM25.1426 36.4975L24.7809 33.1693L27.7201 33.92L27.3404 30.646L30.1891 31.3785L29.8094 28.0685L33.5264 28.8193L35.7964 26.5492C37.9941 27.0285 40.3906 26.4228 42.1089 24.7043C44.7859 22.0273 44.7949 17.6952 42.1089 15.0092C39.4229 12.3232 35.1089 12.3503 32.4409 15.0183C30.7406 16.7185 30.1166 19.097 30.5779 21.2765L19.8701 31.9845L19.9966 36.8683L25.1426 36.4975ZM38.7809 18.3555C38.1931 17.7677 38.1839 16.8 38.7809 16.203C39.3779 15.606 40.3364 15.606 40.9334 16.203C41.5304 16.8 41.5304 17.7585 40.9334 18.3555C40.3274 18.9612 39.3686 18.9432 38.7809 18.3555Z" fill="white"/>
</g>
<defs>
<clipPath id="clip0_211_1112">
<rect width="64" height="64" fill="white" transform="translate(-0.00488281)"/>
</clipPath>
</defs>
</svg>
