<svg width="56" height="45" viewBox="0 0 56 45" fill="none" xmlns="http://www.w3.org/2000/svg">
<path d="M9.15199 0.642822C6.87871 0.642822 4.69853 1.54588 3.09108 3.15334C1.48362 4.76079 0.580566 6.94097 0.580566 9.21425V35.5C0.580566 37.7732 1.48362 39.9534 3.09108 41.5609C4.69853 43.1683 6.87871 44.0714 9.15199 44.0714H46.8571C49.1304 44.0714 51.3106 43.1683 52.9181 41.5609C54.5255 39.9534 55.4286 37.7732 55.4286 35.5V9.21425C55.4286 6.94097 54.5255 4.76079 52.9181 3.15334C51.3106 1.54588 49.1304 0.642822 46.8571 0.642822H9.15199ZM4.00914 9.21425C4.00914 7.85028 4.55097 6.54217 5.51545 5.5777C6.47992 4.61323 7.78802 4.07139 9.15199 4.07139H46.8571C48.2211 4.07139 49.5292 4.61323 50.4937 5.5777C51.4582 6.54217 52 7.85028 52 9.21425V10.9948L28 23.2874L4.00914 10.9994V9.21425ZM4.00914 14.8531L27.2183 26.7388C27.4602 26.8628 27.7282 26.9274 28 26.9274C28.2718 26.9274 28.5398 26.8628 28.7817 26.7388L52 14.8485V35.5022C52 36.8662 51.4582 38.1743 50.4937 39.1388C49.5292 40.1033 48.2211 40.6451 46.8571 40.6451H9.15428C7.79031 40.6451 6.4822 40.1033 5.51773 39.1388C4.55326 38.1743 4.01142 36.8662 4.01142 35.5022L4.00914 14.8531Z" fill="#FF8C04"/>
</svg>
