<svg width="56" height="56" viewBox="0 0 56 56" fill="none" xmlns="http://www.w3.org/2000/svg">
<rect width="56" height="56" rx="28" fill="#FBE6CC" fill-opacity="0.6"/>
<g clip-path="url(#clip0_27_78)">
<path d="M28 40C21.342 40 16 34.582 16 28C16 21.342 21.342 16 28 16C34.658 16 40 21.342 40 28C40 34.582 34.658 40 28 40ZM28 18.014C22.503 18.014 18.013 22.503 18.013 28C18.013 33.498 22.503 37.988 28 37.988C33.498 37.988 37.987 33.498 37.987 28C37.987 22.503 33.498 18.014 28 18.014ZM33.885 29.162H25.213C25.029 29.1623 24.8524 29.0898 24.7216 28.9603C24.5909 28.8309 24.5166 28.655 24.515 28.471V27.459C24.515 27.072 24.826 26.762 25.213 26.762H33.961C34.348 26.762 34.658 27.073 34.658 27.459V28.465C34.581 28.852 34.271 29.162 33.885 29.162ZM31.639 25.291H22.891C22.7998 25.2915 22.7093 25.2741 22.6249 25.2396C22.5404 25.2052 22.4636 25.1544 22.3987 25.0902C22.3339 25.026 22.2824 24.9497 22.2471 24.8656C22.2118 24.7815 22.1934 24.6912 22.193 24.6V23.59C22.193 23.279 22.503 22.969 22.89 22.969H31.638C31.948 22.969 32.258 23.28 32.258 23.588V24.594C32.259 24.98 31.948 25.291 31.639 25.291ZM22.891 30.709H31.639C32.027 30.709 32.335 31.02 32.335 31.406V32.412C32.3355 32.596 32.2631 32.7727 32.1336 32.9033C32.004 33.034 31.828 33.1079 31.644 33.109H22.891C22.503 33.033 22.194 32.722 22.194 32.336V31.33C22.193 31.02 22.503 30.709 22.891 30.709Z" fill="#222057"/>
</g>
<defs>
<clipPath id="clip0_27_78">
<rect width="24" height="24" fill="white" transform="translate(16 16)"/>
</clipPath>
</defs>
</svg>
