<svg width="32" height="32" viewBox="0 0 32 32" fill="none" xmlns="http://www.w3.org/2000/svg">
<g clip-path="url(#clip0_36_101)">
<path d="M1.14288 28.5714V3.42854C1.14288 2.82233 1.3837 2.24095 1.81235 1.81229C2.24101 1.38364 2.82239 1.14282 3.4286 1.14282H28.5715C29.1777 1.14282 29.759 1.38364 30.1877 1.81229C30.6164 2.24095 30.8572 2.82233 30.8572 3.42854V28.5714C30.8572 29.1776 30.6164 29.759 30.1877 30.1876C29.759 30.6163 29.1777 30.8571 28.5715 30.8571H21.7143V20.0228H23.3372C23.707 20.0228 24.0616 19.8759 24.3231 19.6144C24.5846 19.353 24.7315 18.9983 24.7315 18.6285V16.8685C24.7308 16.4989 24.5838 16.1446 24.3224 15.8833C24.0611 15.6219 23.7068 15.4749 23.3372 15.4742H21.8057V13.3257C21.8057 11.4057 22.6743 11.4057 23.5429 11.4057H24.6629C24.8468 11.4133 25.0302 11.3803 25.2001 11.3092C25.3699 11.2381 25.522 11.1306 25.6457 10.9943C25.7786 10.8678 25.8837 10.7152 25.9545 10.546C26.0254 10.3768 26.0603 10.1948 26.0572 10.0114V8.31996C26.0639 8.13369 26.0337 7.94793 25.9682 7.77339C25.9028 7.59884 25.8035 7.43897 25.676 7.30299C25.5486 7.16701 25.3954 7.0576 25.2255 6.98107C25.0555 6.90455 24.8721 6.86242 24.6857 6.85711H22.0572C21.2902 6.82827 20.5261 6.96628 19.8177 7.26158C19.1092 7.55689 18.4733 8.00246 17.9539 8.56751C17.4345 9.13257 17.0439 9.80365 16.8092 10.5344C16.5745 11.2651 16.5011 12.0381 16.5943 12.8V15.4742H15.1315C14.9464 15.4712 14.7627 15.505 14.5909 15.5738C14.4191 15.6425 14.2626 15.7447 14.1307 15.8745C13.9988 16.0042 13.8941 16.159 13.8226 16.3296C13.7511 16.5003 13.7143 16.6835 13.7143 16.8685V18.6285C13.7143 18.8136 13.7511 18.9968 13.8226 19.1674C13.8941 19.3381 13.9988 19.4928 14.1307 19.6226C14.2626 19.7524 14.4191 19.8546 14.5909 19.9233C14.7627 19.992 14.9464 20.0259 15.1315 20.0228H16.5943V30.8571H3.4286C2.82239 30.8571 2.24101 30.6163 1.81235 30.1876C1.3837 29.759 1.14288 29.1776 1.14288 28.5714Z" stroke="white" stroke-linecap="round" stroke-linejoin="round"/>
</g>
<defs>
<clipPath id="clip0_36_101">
<rect width="32" height="32" fill="white"/>
</clipPath>
</defs>
</svg>
