<svg width="64" height="64" viewBox="0 0 64 64" fill="none" xmlns="http://www.w3.org/2000/svg">
<path d="M8.532 17.2765C9.44217 17.2765 10.18 16.5396 10.18 15.6305C10.18 14.7214 9.44217 13.9845 8.532 13.9845C7.62184 13.9845 6.884 14.7214 6.884 15.6305C6.884 16.5396 7.62184 17.2765 8.532 17.2765Z" fill="#FF8C04"/>
<path d="M12.901 17.2765C13.8112 17.2765 14.549 16.5396 14.549 15.6305C14.549 14.7214 13.8112 13.9845 12.901 13.9845C11.9908 13.9845 11.253 14.7214 11.253 15.6305C11.253 16.5396 11.9908 17.2765 12.901 17.2765Z" fill="#FF8C04"/>
<path d="M17.27 17.2765C18.1802 17.2765 18.918 16.5396 18.918 15.6305C18.918 14.7214 18.1802 13.9845 17.27 13.9845C16.3598 13.9845 15.622 14.7214 15.622 15.6305C15.622 16.5396 16.3598 17.2765 17.27 17.2765Z" fill="#FF8C04"/>
<path d="M25.253 13.0415L21.777 18.3635H57.116V13.0415H25.253Z" fill="#FF8C04"/>
<path d="M61 6.1665H3C1.35 6.1665 0 7.5165 0 9.1665V54.8335C0 56.4835 1.35 57.8335 3 57.8335H61C62.65 57.8335 64 56.4835 64 54.8335V9.1665C64 7.5165 62.65 6.1665 61 6.1665ZM60 52.7395L57.232 50.6375H49.278L53.471 53.8335H50.008L45.8 50.6365H18.199L13.991 53.8325H10.528L14.721 50.6365H6.768L4 52.7385V10.1665H60V52.7395Z" fill="#FF8C04"/>
<path d="M26.761 26.6155L12.923 32.6045V35.9365L26.761 41.9545V38.0575L17.109 34.2295L26.761 30.5395V26.6155Z" fill="#FF8C04"/>
<path d="M33.04 23.7235L28.042 44.5975H30.892L35.945 23.7235H33.04Z" fill="#FF8C04"/>
<path d="M37.226 26.6436V30.5126L46.891 34.2716L37.226 38.0716V41.9686L51.077 35.9366V32.6336L37.226 26.6436Z" fill="#FF8C04"/>
</svg>
