<svg width="36" height="36" viewBox="0 0 36 36" fill="none" xmlns="http://www.w3.org/2000/svg">
<path d="M24 10.5C24 10.1022 24.158 9.72064 24.4393 9.43934C24.7206 9.15804 25.1022 9 25.5 9C25.8978 9 26.2794 9.15804 26.5607 9.43934C26.842 9.72064 27 10.1022 27 10.5C27 10.8978 26.842 11.2794 26.5607 11.5607C26.2794 11.842 25.8978 12 25.5 12C25.1022 12 24.7206 11.842 24.4393 11.5607C24.158 11.2794 24 10.8978 24 10.5Z" fill="white"/>
<path fill-rule="evenodd" clip-rule="evenodd" d="M18 10.875C16.1103 10.875 14.2981 11.6257 12.9619 12.9619C11.6257 14.2981 10.875 16.1103 10.875 18C10.875 19.8897 11.6257 21.7019 12.9619 23.0381C14.2981 24.3743 16.1103 25.125 18 25.125C19.8897 25.125 21.7019 24.3743 23.0381 23.0381C24.3743 21.7019 25.125 19.8897 25.125 18C25.125 16.1103 24.3743 14.2981 23.0381 12.9619C21.7019 11.6257 19.8897 10.875 18 10.875ZM13.125 18C13.125 16.7071 13.6386 15.4671 14.5529 14.5529C15.4671 13.6386 16.7071 13.125 18 13.125C19.2929 13.125 20.5329 13.6386 21.4471 14.5529C22.3614 15.4671 22.875 16.7071 22.875 18C22.875 19.2929 22.3614 20.5329 21.4471 21.4471C20.5329 22.3614 19.2929 22.875 18 22.875C16.7071 22.875 15.4671 22.3614 14.5529 21.4471C13.6386 20.5329 13.125 19.2929 13.125 18Z" fill="white"/>
<path fill-rule="evenodd" clip-rule="evenodd" d="M25.887 4.24955C20.645 3.66844 15.3549 3.66844 10.113 4.24955C7.09499 4.58705 4.65749 6.96455 4.30349 9.99755C3.68159 15.3144 3.68159 20.6857 4.30349 26.0025C4.65749 29.0355 7.09349 31.4131 10.113 31.7506C15.355 32.3311 20.645 32.3311 25.887 31.7506C28.905 31.4131 31.3425 29.0355 31.6965 26.0025C32.3185 20.6857 32.3185 15.3144 31.6965 9.99755C31.3425 6.96455 28.9065 4.58705 25.887 4.24955ZM10.362 6.48455C15.4384 5.92186 20.5615 5.92186 25.638 6.48455C27.633 6.70955 29.2305 8.28305 29.463 10.2601C30.0644 15.4025 30.0644 20.5976 29.463 25.74C29.3427 26.7076 28.8998 27.6064 28.2058 28.2912C27.5117 28.976 26.6071 29.4068 25.638 29.5141C20.5615 30.0768 15.4384 30.0768 10.362 29.5141C9.3929 29.4068 8.48827 28.976 7.79422 28.2912C7.10018 27.6064 6.65725 26.7076 6.53699 25.74C5.93556 20.5976 5.93556 15.4025 6.53699 10.2601C6.65725 9.29249 7.10018 8.39372 7.79422 7.70893C8.48827 7.02414 9.3929 6.59181 10.362 6.48455Z" fill="white"/>
</svg>
