<svg width="56" height="56" viewBox="0 0 56 56" fill="none" xmlns="http://www.w3.org/2000/svg">
<rect width="56" height="56" rx="28" fill="#FBE6CC" fill-opacity="0.6"/>
<path d="M20.5 34H22V35.5H19V20.5H17.5V37H22V38.5H16V19H19V17.5H23.5C24.1875 17.5 24.8477 17.6055 25.4805 17.8164C26.1133 18.0273 26.7031 18.3438 27.25 18.7656C27.7891 18.3438 28.375 18.0273 29.0078 17.8164C29.6406 17.6055 30.3047 17.5 31 17.5H35.5V19H38.5V28.5977L37 27.918V20.5H35.5V27.2383L34 26.5469V19H31C30.4453 19 29.9141 19.0938 29.4062 19.2812C28.8984 19.4688 28.4297 19.7461 28 20.1133V27.2383L26.5 27.918V20.1133C26.0781 19.7539 25.6133 19.4805 25.1055 19.293C24.5977 19.1055 24.0625 19.0078 23.5 19H20.5V34ZM37 36.9883L31.75 39.625L26.5 36.9883C26.5 36.707 26.5039 36.4102 26.5117 36.0977C26.5195 35.7852 26.5508 35.4688 26.6055 35.1484C26.6602 34.8281 26.7383 34.5273 26.8398 34.2461C26.9414 33.9648 27.082 33.7031 27.2617 33.4609L25 32.4297V39.25H23.5V31.75L31.75 28L40 31.75L36.2383 33.4609L36.332 33.5898C36.4961 33.832 36.6211 34.0938 36.707 34.375C36.793 34.6562 36.8594 34.9414 36.9062 35.2305C36.9531 35.5195 36.9805 35.8164 36.9883 36.1211C36.9961 36.4258 37 36.7148 37 36.9883ZM31.75 29.6406L27.1211 31.75L31.75 33.8594L36.3789 31.75L31.75 29.6406ZM31.75 37.9492L35.5 36.0625C35.4922 35.8594 35.4766 35.6758 35.4531 35.5117C35.4297 35.3477 35.3867 35.1875 35.3242 35.0312C35.2617 34.875 35.1992 34.7227 35.1367 34.5742C35.0742 34.4258 34.9844 34.2617 34.8672 34.082L31.75 35.5L28.6328 34.082C28.5156 34.2695 28.4219 34.4375 28.3516 34.5859C28.2812 34.7344 28.2188 34.8828 28.1641 35.0312C28.1094 35.1797 28.0742 35.3359 28.0586 35.5C28.043 35.6641 28.0273 35.8555 28.0117 36.0742L31.75 37.9492Z" fill="#222057"/>
</svg>
