<svg width="36" height="36" viewBox="0 0 36 36" fill="none" xmlns="http://www.w3.org/2000/svg">
<path d="M27.66 4.58997H8.34C7.34629 4.59274 6.39407 4.98871 5.69141 5.69138C4.98875 6.39404 4.59277 7.34626 4.59 8.33997V27.66C4.59277 28.6537 4.98875 29.6059 5.69141 30.3086C6.39407 31.0112 7.34629 31.4072 8.34 31.41H27.66C28.6546 31.41 29.6084 31.0149 30.3116 30.3116C31.0149 29.6084 31.41 28.6545 31.41 27.66V8.33997C31.41 7.3454 31.0149 6.39158 30.3116 5.68832C29.6084 4.98505 28.6546 4.58997 27.66 4.58997ZM29.91 27.66C29.9057 28.2554 29.6672 28.8252 29.2462 29.2462C28.8252 29.6672 28.2554 29.9056 27.66 29.91H8.34C7.74459 29.9056 7.1748 29.6672 6.75378 29.2462C6.33276 28.8252 6.09432 28.2554 6.09 27.66V8.33997C6.09432 7.74456 6.33276 7.17477 6.75378 6.75375C7.1748 6.33272 7.74459 6.09428 8.34 6.08997H27.66C28.2554 6.09428 28.8252 6.33272 29.2462 6.75375C29.6672 7.17477 29.9057 7.74456 29.91 8.33997V27.66Z" fill="white"/>
<path d="M9.564 16.1219C9.564 15.7241 9.72203 15.3426 10.0033 15.0613C10.2846 14.78 10.6662 14.6219 11.064 14.6219C11.4618 14.6219 11.8434 14.78 12.1247 15.0613C12.406 15.3426 12.564 15.7241 12.564 16.1219V25.8719C12.564 26.2698 12.406 26.6513 12.1247 26.9326C11.8434 27.2139 11.4618 27.3719 11.064 27.3719C10.6662 27.3719 10.2846 27.2139 10.0033 26.9326C9.72203 26.6513 9.564 26.2698 9.564 25.8719V16.1219Z" fill="white"/>
<path d="M11.064 11.616C11.8924 11.616 12.564 10.9444 12.564 10.116C12.564 9.28754 11.8924 8.61597 11.064 8.61597C10.2356 8.61597 9.564 9.28754 9.564 10.116C9.564 10.9444 10.2356 11.616 11.064 11.616Z" fill="white"/>
<path d="M26.43 20.055V25.875C26.43 26.2729 26.272 26.6544 25.9907 26.9357C25.7093 27.217 25.3278 27.375 24.93 27.375C24.5322 27.375 24.1506 27.217 23.8693 26.9357C23.588 26.6544 23.43 26.2729 23.43 25.875V20.055C23.43 19.4126 23.1748 18.7964 22.7205 18.3421C22.2662 17.8878 21.65 17.6325 21.0075 17.6325C20.365 17.6325 19.7488 17.8878 19.2945 18.3421C18.8402 18.7964 18.585 19.4126 18.585 20.055V25.875C18.585 26.2729 18.427 26.6544 18.1457 26.9357C17.8643 27.217 17.4828 27.375 17.085 27.375C16.6872 27.375 16.3056 27.217 16.0243 26.9357C15.743 26.6544 15.585 26.2729 15.585 25.875V16.125C15.5912 15.7291 15.7512 15.3512 16.0312 15.0712C16.3111 14.7912 16.6891 14.6312 17.085 14.625C17.3391 14.6181 17.5903 14.6799 17.8121 14.804C18.0339 14.9281 18.218 15.1099 18.345 15.33C19.1697 14.8621 20.1029 14.619 21.0511 14.625C21.9993 14.6311 22.9293 14.8861 23.748 15.3646C24.5667 15.843 25.2453 16.5281 25.716 17.3513C26.1867 18.1744 26.4329 19.1068 26.43 20.055Z" fill="white"/>
</svg>
