<svg width="64" height="64" viewBox="0 0 64 64" fill="none" xmlns="http://www.w3.org/2000/svg">
<g clip-path="url(#clip0_211_1129)">
<path d="M61.0568 3.00586H2.94325C1.32033 3.00586 0 4.32619 0 5.94911V44.0235C0 45.6464 1.32033 46.9667 2.94325 46.9667H22.739L21.2719 52.1017H16.9706C16.4519 52.1017 16.0313 52.5223 16.0313 53.0411C16.0313 53.5598 16.4519 53.9804 16.9706 53.9804H21.9774C21.9786 53.9804 21.9798 53.9807 21.9809 53.9807C21.9819 53.9807 21.9829 53.9804 21.9839 53.9804H34.0039C34.5227 53.9804 34.9432 53.5598 34.9432 53.0411C34.9432 52.5223 34.5227 52.1017 34.0039 52.1017H23.2257L24.6929 46.9667H34.0039C34.5227 46.9667 34.9432 46.5461 34.9432 46.0274C34.9432 45.5086 34.5227 45.088 34.0039 45.088H2.94325C2.35623 45.088 1.87867 44.6105 1.87867 44.0235V5.94911C1.87867 5.36209 2.35623 4.88453 2.94325 4.88453H61.0568C61.6438 4.88453 62.1213 5.36209 62.1213 5.94911V44.0235C62.1213 44.5422 62.5419 44.9628 63.0607 44.9628C63.5794 44.9628 64 44.5422 64 44.0235V5.94911C64 4.32619 62.6797 3.00586 61.0568 3.00586Z" fill="white"/>
<path d="M59.0528 7.01367H4.94715C4.42838 7.01367 4.00781 7.43424 4.00781 7.95301V42.0195C4.00781 42.5383 4.42838 42.9589 4.94715 42.9589H34.0039C34.5227 42.9589 34.9432 42.5383 34.9432 42.0195C34.9432 41.5008 34.5227 41.0802 34.0039 41.0802H5.88648V16.908H58.1135V20.9784C58.1135 21.4972 58.5341 21.9178 59.0528 21.9178C59.5716 21.9178 59.9922 21.4972 59.9922 20.9784V7.95301C59.9922 7.43424 59.5716 7.01367 59.0528 7.01367ZM5.88648 15.0293V8.89234H58.1135V15.0293H5.88648Z" fill="white"/>
<path d="M49.0333 11.0215H18.9746C18.4558 11.0215 18.0352 11.4421 18.0352 11.9608C18.0352 12.4796 18.4558 12.9002 18.9746 12.9002H49.0333C49.552 12.9002 49.9726 12.4796 49.9726 11.9608C49.9726 11.4421 49.552 11.0215 49.0333 11.0215Z" fill="white"/>
<path d="M55.045 11.0215H53.0411C52.5223 11.0215 52.1017 11.4421 52.1017 11.9608C52.1017 12.4796 52.5223 12.9002 53.0411 12.9002H55.045C55.5638 12.9002 55.9843 12.4796 55.9843 11.9608C55.9843 11.4421 55.5638 11.0215 55.045 11.0215Z" fill="white"/>
<path d="M8.95496 11.0215C8.70823 11.0215 8.46525 11.1217 8.29116 11.297C8.11582 11.4711 8.01562 11.7141 8.01562 11.9608C8.01562 12.2076 8.11582 12.4505 8.29116 12.6246C8.46525 12.8 8.70823 12.9002 8.95496 12.9002C9.20169 12.9002 9.44467 12.8 9.61876 12.6246C9.7941 12.4505 9.89429 12.2076 9.89429 11.9608C9.89429 11.7141 9.7941 11.4711 9.61876 11.297C9.44467 11.1217 9.20169 11.0215 8.95496 11.0215Z" fill="white"/>
<path d="M11.9609 11.0215C11.7129 11.0215 11.4712 11.1217 11.2971 11.297C11.1217 11.4711 11.0215 11.7128 11.0215 11.9608C11.0215 12.2076 11.1217 12.4505 11.2971 12.6246C11.4712 12.8 11.7141 12.9002 11.9609 12.9002C12.2076 12.9002 12.4506 12.8 12.6247 12.6246C12.8 12.4505 12.9002 12.2076 12.9002 11.9608C12.9002 11.7128 12.8 11.4711 12.6247 11.297C12.4506 11.1217 12.2089 11.0215 11.9609 11.0215Z" fill="white"/>
<path d="M14.9667 11.0215C14.72 11.0215 14.477 11.1217 14.3029 11.297C14.1276 11.4711 14.0274 11.7141 14.0274 11.9608C14.0274 12.2076 14.1276 12.4505 14.3029 12.6246C14.477 12.8 14.72 12.9002 14.9667 12.9002C15.2147 12.9002 15.4564 12.8 15.6305 12.6246C15.8059 12.4505 15.9061 12.2076 15.9061 11.9608C15.9061 11.7141 15.8059 11.4711 15.6305 11.297C15.4564 11.1217 15.2147 11.0215 14.9667 11.0215Z" fill="white"/>
<path d="M57.0489 24.047H40.0156C38.3927 24.047 37.0724 25.3673 37.0724 26.9902V58.0509C37.0724 59.6738 38.3927 60.9942 40.0156 60.9942H57.0489C58.6718 60.9942 59.9922 59.6738 59.9922 58.0509V26.9902C59.9922 25.3673 58.6718 24.047 57.0489 24.047ZM38.9511 29.9335H58.1135V34.0666H38.9511V29.9335ZM38.9511 35.9452H58.1135V55.1077H38.9511V35.9452ZM40.0156 25.9257H57.0489C57.6359 25.9257 58.1135 26.4032 58.1135 26.9902V28.0548H38.9511V26.9902C38.9511 26.4032 39.4286 25.9257 40.0156 25.9257ZM57.0489 59.1155H40.0156C39.4286 59.1155 38.9511 58.6379 38.9511 58.0509V56.9863H58.1135V58.0509C58.1135 58.6379 57.6359 59.1155 57.0489 59.1155Z" fill="white"/>
<path d="M52.0391 31.0607H41.0176C40.4988 31.0607 40.0782 31.4812 40.0782 32C40.0782 32.5188 40.4988 32.9393 41.0176 32.9393H52.0391C52.5579 32.9393 52.9784 32.5188 52.9784 32C52.9784 31.4812 52.5579 31.0607 52.0391 31.0607Z" fill="white"/>
<path d="M56.0469 31.0607H55.045C54.5262 31.0607 54.1057 31.4812 54.1057 32C54.1057 32.5188 54.5262 32.9393 55.045 32.9393H56.0469C56.5657 32.9393 56.9863 32.5188 56.9863 32C56.9863 31.4812 56.5657 31.0607 56.0469 31.0607Z" fill="white"/>
<path d="M10.9589 20.0392C9.88846 20.0392 9.01764 20.91 9.01764 21.9805V35.0059C9.01764 36.0764 9.88846 36.9472 10.9589 36.9472H25.9883C27.0588 36.9472 27.9296 36.0764 27.9296 35.0059V21.9805C27.9296 20.91 27.0588 20.0392 25.9883 20.0392H10.9589ZM19.8934 28.4932L26.0509 23.0601V33.9264L19.8934 28.4932ZM18.4736 27.2405L12.4413 21.9179H24.5059L18.4736 27.2405ZM10.8963 33.9263V23.0601L17.0538 28.4932L10.8963 33.9263ZM18.4736 29.7459L24.5059 35.0685H12.4413L18.4736 29.7459Z" fill="white"/>
<path d="M32 21.9179H55.045C55.5638 21.9179 55.9843 21.4973 55.9843 20.9785C55.9843 20.4598 55.5638 20.0392 55.045 20.0392H32C31.4812 20.0392 31.0607 20.4598 31.0607 20.9785C31.0607 21.4973 31.4812 21.9179 32 21.9179Z" fill="white"/>
<path d="M34.0039 25.049H32C31.4812 25.049 31.0607 25.4695 31.0607 25.9883C31.0607 26.507 31.4812 26.9276 32 26.9276H34.0039C34.5227 26.9276 34.9433 26.507 34.9433 25.9883C34.9433 25.4695 34.5227 25.049 34.0039 25.049Z" fill="white"/>
<path d="M34.0039 30.0587H32C31.4812 30.0587 31.0607 30.4793 31.0607 30.9981C31.0607 31.5168 31.4812 31.9374 32 31.9374H34.0039C34.5227 31.9374 34.9433 31.5168 34.9433 30.9981C34.9433 30.4793 34.5227 30.0587 34.0039 30.0587Z" fill="white"/>
<path d="M34.0039 35.0685H32C31.4812 35.0685 31.0607 35.4891 31.0607 36.0078C31.0607 36.5266 31.4812 36.9472 32 36.9472H34.0039C34.5227 36.9472 34.9433 36.5266 34.9433 36.0078C34.9433 35.4891 34.5227 35.0685 34.0039 35.0685Z" fill="white"/>
<path d="M54.0431 38.0743H43.0216C41.9511 38.0743 41.0803 38.9452 41.0803 40.0156V47.0293C41.0803 48.0998 41.9511 48.9706 43.0216 48.9706H54.0431C55.1135 48.9706 55.9844 48.0998 55.9844 47.0293V40.0156C55.9844 38.9452 55.1135 38.0743 54.0431 38.0743ZM50.282 43.5225L54.1057 41.0892V45.9557L50.282 43.5225ZM48.5323 42.4091L44.6728 39.953H52.3919L48.5323 42.4091ZM42.9589 45.9557V41.0892L46.7826 43.5225L42.9589 45.9557ZM48.5323 44.6359L52.3919 47.092H44.6728L48.5323 44.6359Z" fill="white"/>
<path d="M55.045 51.0999H42.0196C41.5008 51.0999 41.0803 51.5204 41.0803 52.0392C41.0803 52.558 41.5008 52.9785 42.0196 52.9785H55.045C55.5638 52.9785 55.9844 52.558 55.9844 52.0392C55.9844 51.5204 55.5638 51.0999 55.045 51.0999Z" fill="white"/>
</g>
<defs>
<clipPath id="clip0_211_1129">
<rect width="64" height="64" fill="white"/>
</clipPath>
</defs>
</svg>
