<svg width="56" height="56" viewBox="0 0 56 56" fill="none" xmlns="http://www.w3.org/2000/svg">
<rect width="56" height="56" rx="28" fill="#FBE6CC" fill-opacity="0.6"/>
<g clip-path="url(#clip0_27_71)">
<path fill-rule="evenodd" clip-rule="evenodd" d="M37.75 28C37.75 30.5859 36.7228 33.0658 34.8943 34.8943C33.0658 36.7228 30.5859 37.75 28 37.75C25.4141 37.75 22.9342 36.7228 21.1057 34.8943C19.2772 33.0658 18.25 30.5859 18.25 28C18.25 25.4141 19.2772 22.9342 21.1057 21.1057C22.9342 19.2772 25.4141 18.25 28 18.25C30.5859 18.25 33.0658 19.2772 34.8943 21.1057C36.7228 22.9342 37.75 25.4141 37.75 28ZM40 28C40 31.1826 38.7357 34.2348 36.4853 36.4853C34.2348 38.7357 31.1826 40 28 40C24.8174 40 21.7652 38.7357 19.5147 36.4853C17.2643 34.2348 16 31.1826 16 28C16 24.8174 17.2643 21.7652 19.5147 19.5147C21.7652 17.2643 24.8174 16 28 16C31.1826 16 34.2348 17.2643 36.4853 19.5147C38.7357 21.7652 40 24.8174 40 28ZM28 31.375C28 31.9717 27.7629 32.544 27.341 32.966C26.919 33.3879 26.3467 33.625 25.75 33.625C25.1533 33.625 24.581 33.3879 24.159 32.966C23.7371 32.544 23.5 31.9717 23.5 31.375C23.5 30.7783 23.7371 30.206 24.159 29.784C24.581 29.3621 25.1533 29.125 25.75 29.125C26.3467 29.125 26.919 29.3621 27.341 29.784C27.7629 30.206 28 30.7783 28 31.375ZM22.774 28C22.237 28.4738 21.8208 29.069 21.5601 29.736C21.2993 30.403 21.2016 31.1226 21.2749 31.835C21.3482 32.5473 21.5904 33.232 21.9815 33.8319C22.3727 34.4318 22.9013 34.9297 23.5235 35.2843C24.1458 35.6388 24.8437 35.8397 25.5592 35.8702C26.2747 35.9008 26.9871 35.7602 27.6374 35.46C28.2876 35.1598 28.8568 34.7088 29.2976 34.1444C29.7384 33.58 30.0382 32.9185 30.172 32.215C30.8527 32.4695 31.585 32.5554 32.3061 32.4653C33.0272 32.3751 33.7158 32.1117 34.313 31.6974C34.9101 31.2832 35.398 30.7305 35.735 30.0866C36.072 29.4427 36.248 28.7267 36.248 28C36.248 27.2733 36.072 26.5573 35.735 25.9134C35.398 25.2695 34.9101 24.7168 34.313 24.3026C33.7158 23.8883 33.0272 23.6249 32.3061 23.5347C31.585 23.4446 30.8527 23.5305 30.172 23.785C30.0382 23.0815 29.7384 22.42 29.2976 21.8556C28.8568 21.2912 28.2876 20.8402 27.6374 20.54C26.9871 20.2398 26.2747 20.0992 25.5592 20.1298C24.8437 20.1603 24.1458 20.3612 23.5235 20.7157C22.9013 21.0703 22.3727 21.5682 21.9815 22.1681C21.5904 22.768 21.3482 23.4527 21.2749 24.165C21.2016 24.8774 21.2993 25.597 21.5601 26.264C21.8208 26.931 22.237 27.5262 22.774 28ZM25.75 26.875C26.3467 26.875 26.919 26.6379 27.341 26.216C27.7629 25.794 28 25.2217 28 24.625C28 24.0283 27.7629 23.456 27.341 23.034C26.919 22.6121 26.3467 22.375 25.75 22.375C25.1533 22.375 24.581 22.6121 24.159 23.034C23.7371 23.456 23.5 24.0283 23.5 24.625C23.5 25.2217 23.7371 25.794 24.159 26.216C24.581 26.6379 25.1533 26.875 25.75 26.875ZM31.75 30.25C32.3467 30.25 32.919 30.0129 33.341 29.591C33.7629 29.169 34 28.5967 34 28C34 27.4033 33.7629 26.831 33.341 26.409C32.919 25.9871 32.3467 25.75 31.75 25.75C31.1533 25.75 30.581 25.9871 30.159 26.409C29.7371 26.831 29.5 27.4033 29.5 28C29.5 28.5967 29.7371 29.169 30.159 29.591C30.581 30.0129 31.1533 30.25 31.75 30.25Z" fill="#222057"/>
</g>
<defs>
<clipPath id="clip0_27_71">
<rect width="24" height="24" fill="white" transform="translate(16 16)"/>
</clipPath>
</defs>
</svg>
